<svg version="1.1" id="Layer_1" xmlns="http://www.w3.org/2000/svg" xmlns:xlink="http://www.w3.org/1999/xlink" x="0px" y="0px"
	 width="100%" viewBox="0 0 302 65" enable-background="new 0 0 302 65" xml:space="preserve">
<path fill="#FEFEFE" opacity="1.000000" stroke="none" 
	d="
M226.000000,66.000000 
	C150.666687,66.000000 75.833359,66.000000 1.000030,66.000000 
	C1.000020,44.333351 1.000020,22.666700 1.000010,1.000039 
	C101.666634,1.000026 202.333267,1.000026 302.999939,1.000013 
	C302.999939,22.666628 302.999939,44.333256 302.999969,65.999939 
	C277.500000,66.000000 252.000000,66.000000 226.000000,66.000000 
M20.937845,34.007248 
	C20.952858,37.647430 21.114965,41.294563 20.943420,44.925930 
	C20.754438,48.926426 22.602449,50.819530 26.452991,50.859272 
	C32.078133,50.917320 37.704426,50.894611 43.330021,50.865990 
	C47.224869,50.846172 49.026115,48.827583 48.962410,44.948547 
	C48.897205,40.978474 48.956501,37.006351 49.607056,32.638710 
	C52.040638,28.154228 51.676029,27.443029 48.075142,26.780132 
	C46.447830,23.174969 45.904594,19.321072 43.798042,18.042141 
	C41.645943,16.735559 37.959568,17.956104 33.658699,18.119080 
	C31.767733,17.948580 27.871838,16.443005 25.515356,17.738214 
	C23.513292,18.838623 23.286985,23.169807 22.074217,26.647150 
	C18.076616,27.699659 17.586479,29.209089 20.937845,34.007248 
M145.058899,46.856564 
	C146.636765,46.856564 148.214630,46.856564 150.367828,46.856564 
	C148.694733,43.588207 147.358810,40.978519 146.067520,38.455994 
	C151.248505,32.116070 150.462982,25.365166 144.246841,24.030405 
	C140.180267,23.157207 135.846176,23.529947 131.713135,23.348200 
	C131.713135,31.712502 131.713135,39.143143 131.713135,46.602318 
	C133.612000,46.602318 135.189041,46.602318 136.910721,46.602318 
	C137.065170,43.924789 137.203934,41.519001 137.342712,39.113213 
	C137.845398,38.839787 138.348083,38.566357 138.850769,38.292931 
	C140.669281,41.071365 142.487808,43.849800 145.058899,46.856564 
M227.293732,33.873291 
	C229.380493,27.477196 231.254486,26.875067 236.779205,30.189407 
	C238.303146,31.103634 240.511185,30.877497 242.859192,31.245800 
	C240.030045,24.063305 235.269623,21.741598 229.076538,23.747671 
	C223.160645,25.663963 220.306290,31.668091 221.943283,38.752472 
	C223.279190,44.533844 228.654739,47.941193 234.851852,46.934719 
	C240.810593,45.966957 243.447281,41.698406 242.603226,34.168507 
	C239.532684,34.168507 236.441681,34.168507 233.350677,34.168507 
	C233.042511,34.592464 232.734344,35.016422 232.426178,35.440380 
	C233.924728,36.726055 235.423279,38.011730 237.477905,39.774479 
	C236.128052,40.506477 234.754028,41.841564 233.302536,41.931885 
	C228.250397,42.246281 227.549164,38.512260 227.293732,33.873291 
M200.675903,45.017635 
	C207.580856,48.509613 213.621979,47.367943 216.884384,41.954475 
	C219.569977,37.498180 218.926163,30.150503 215.530884,26.506948 
	C212.257004,22.993683 206.625519,22.082319 202.177231,24.345896 
	C197.589340,26.680500 195.167633,32.230949 196.677338,38.071213 
	C197.273209,40.376286 198.892120,42.416897 200.675903,45.017635 
M258.234528,23.136702 
	C249.735443,23.573671 245.581421,27.960728 246.018250,36.038296 
	C246.395111,43.006706 251.326904,47.476185 258.131622,47.016140 
	C263.658173,46.642502 267.520111,42.781651 268.087311,37.063229 
	C268.837555,29.499241 266.153809,25.406790 258.234528,23.136702 
M119.059784,46.972946 
	C125.832207,44.706783 128.203644,41.634186 128.187729,35.146122 
	C128.173447,29.327396 125.696945,25.366764 121.034637,23.808760 
	C116.533226,22.304518 112.296883,22.994541 109.115166,26.488548 
	C105.428452,30.537121 105.024223,35.516846 107.050095,40.481201 
	C109.048889,45.379196 113.051147,47.335155 119.059784,46.972946 
M167.214813,32.963284 
	C164.287933,32.963284 161.361053,32.963284 158.419785,32.963284 
	C158.419785,30.951969 158.419785,29.692043 158.419785,27.933533 
	C162.028839,27.933533 165.441315,27.933533 169.092789,27.933533 
	C168.896484,26.166819 168.759415,24.933199 168.628021,23.750591 
	C163.162384,23.750591 158.098526,23.750591 153.005524,23.750591 
	C153.005524,31.598820 153.005524,39.127289 153.005524,46.574085 
	C158.458618,46.574085 163.550781,46.574085 168.737244,46.574085 
	C168.737244,45.017532 168.737244,43.759014 168.737244,41.916054 
	C165.156586,41.916054 161.764404,41.916054 158.001160,41.916054 
	C158.725006,33.946213 165.142151,39.414127 167.971542,36.470142 
	C167.971542,35.747662 167.971542,34.605743 167.214813,32.963284 
M80.846527,30.557308 
	C84.018784,28.771204 81.933525,26.933891 80.583809,25.669094 
	C77.001411,22.312111 72.551834,22.140469 68.609436,24.429489 
	C66.722786,25.524910 64.978271,28.507860 64.951477,30.658127 
	C64.928947,32.466473 67.176262,34.758530 68.989853,36.006405 
	C70.808144,37.257511 73.387169,37.351040 75.517647,38.230743 
	C76.193954,38.510002 76.806213,39.662064 76.863152,40.456615 
	C76.897736,40.939251 75.779198,41.979111 75.237770,41.940468 
	C73.535355,41.818974 71.798973,41.477711 70.191711,40.899296 
	C68.296425,40.217232 66.522255,39.198597 64.066078,38.025146 
	C64.086861,43.760529 66.672791,46.075062 70.590965,46.764759 
	C74.751358,47.497101 79.031921,47.511765 81.880058,43.533424 
	C84.051910,40.499729 83.109207,36.438652 79.702248,34.545162 
	C77.865547,33.524372 75.551979,33.377926 73.673500,32.410107 
	C72.468750,31.789406 71.664795,30.390759 70.681183,29.340839 
	C72.316002,28.978802 74.009727,28.172016 75.569237,28.378576 
	C77.160217,28.589304 78.619324,29.795782 80.846527,30.557308 
M92.088234,46.020985 
	C93.824234,46.340916 95.560242,46.660851 97.818855,47.077099 
	C97.818855,40.241570 97.818855,34.336411 97.818855,28.283936 
	C100.291092,28.099842 102.369621,27.945066 104.448143,27.790291 
	C104.764893,27.347752 105.081642,26.905212 105.398384,26.462675 
	C104.181404,25.442173 103.013069,23.617855 101.738998,23.540752 
	C96.313408,23.212416 90.856537,23.401173 85.297890,23.401173 
	C85.297890,25.178108 85.297890,26.525177 85.297890,27.850182 
	C87.697281,28.019251 89.761978,28.164738 91.969543,28.320290 
	C91.969543,34.184284 91.969543,39.643555 92.088234,46.020985 
M194.759155,44.448757 
	C193.849854,43.641209 193.026901,42.299671 192.013519,42.135807 
	C189.813828,41.780113 187.516861,42.026119 184.826065,42.026119 
	C184.826065,35.575031 184.826065,29.682226 184.826065,23.402773 
	C182.657578,23.513948 180.957687,23.601101 179.426544,23.679602 
	C179.426544,31.690334 179.426544,39.089378 179.426544,46.889530 
	C182.857117,46.889530 185.992020,47.074280 189.091202,46.821327 
	C190.997879,46.665710 192.849960,45.841293 194.759155,44.448757 
z"/>
<path fill="#FEC363" opacity="1.000000" stroke="none" 
	d="
M48.961300,33.035126 
	C48.956501,37.006351 48.897205,40.978474 48.962410,44.948547 
	C49.026115,48.827583 47.224869,50.846172 43.330021,50.865990 
	C37.704426,50.894611 32.078133,50.917320 26.452991,50.859272 
	C22.602449,50.819530 20.754438,48.926426 20.943420,44.925930 
	C21.114965,41.294563 20.952858,37.647430 21.400410,33.477921 
	C25.780836,32.948597 29.698698,32.948597 33.534344,32.948597 
	C33.858227,36.268475 34.110050,38.849739 34.361874,41.431004 
	C34.814243,41.417171 35.266613,41.403339 35.718983,41.389511 
	C35.885315,38.693893 36.051647,35.998276 36.234489,33.035126 
	C40.710579,33.035126 44.835941,33.035126 48.961300,33.035126 
z"/>
<path fill="#3C1E54" opacity="1.000000" stroke="none" 
	d="
M144.682617,46.742401 
	C142.487808,43.849800 140.669281,41.071365 138.850769,38.292931 
	C138.348083,38.566357 137.845398,38.839787 137.342712,39.113213 
	C137.203934,41.519001 137.065170,43.924789 136.910721,46.602318 
	C135.189041,46.602318 133.612000,46.602318 131.713135,46.602318 
	C131.713135,39.143143 131.713135,31.712502 131.713135,23.348200 
	C135.846176,23.529947 140.180267,23.157207 144.246841,24.030405 
	C150.462982,25.365166 151.248505,32.116070 146.067520,38.455994 
	C147.358810,40.978519 148.694733,43.588207 150.367828,46.856564 
	C148.214630,46.856564 146.636765,46.856564 144.682617,46.742401 
M141.749313,28.331068 
	C140.335022,28.227428 138.920746,28.123787 137.255417,28.001749 
	C137.187042,29.323334 137.074448,30.278582 137.106369,31.228973 
	C137.137802,32.165073 137.315643,33.096252 137.424118,33.987404 
	C143.898651,34.355289 144.754883,33.413429 141.749313,28.331068 
z"/>
<path fill="#34144D" opacity="1.000000" stroke="none" 
	d="
M227.251297,34.262856 
	C227.549164,38.512260 228.250397,42.246281 233.302536,41.931885 
	C234.754028,41.841564 236.128052,40.506477 237.477905,39.774479 
	C235.423279,38.011730 233.924728,36.726055 232.426178,35.440380 
	C232.734344,35.016422 233.042511,34.592464 233.350677,34.168507 
	C236.441681,34.168507 239.532684,34.168507 242.603226,34.168507 
	C243.447281,41.698406 240.810593,45.966957 234.851852,46.934719 
	C228.654739,47.941193 223.279190,44.533844 221.943283,38.752472 
	C220.306290,31.668091 223.160645,25.663963 229.076538,23.747671 
	C235.269623,21.741598 240.030045,24.063305 242.859192,31.245800 
	C240.511185,30.877497 238.303146,31.103634 236.779205,30.189407 
	C231.254486,26.875067 229.380493,27.477196 227.251297,34.262856 
z"/>
<path fill="#35164E" opacity="1.000000" stroke="none" 
	d="
M200.360535,44.797783 
	C198.892120,42.416897 197.273209,40.376286 196.677338,38.071213 
	C195.167633,32.230949 197.589340,26.680500 202.177231,24.345896 
	C206.625519,22.082319 212.257004,22.993683 215.530884,26.506948 
	C218.926163,30.150503 219.569977,37.498180 216.884384,41.954475 
	C213.621979,47.367943 207.580856,48.509613 200.360535,44.797783 
M211.539246,39.980286 
	C211.781784,37.283466 212.605988,34.477627 212.125931,31.916235 
	C211.461792,28.372583 208.610916,27.282372 205.296600,28.635885 
	C202.134689,29.927162 200.903534,35.367363 202.879395,39.105076 
	C204.899109,42.925785 207.768906,43.025623 211.539246,39.980286 
z"/>
<path fill="#34144C" opacity="1.000000" stroke="none" 
	d="
M258.631897,23.193638 
	C266.153809,25.406790 268.837555,29.499241 268.087311,37.063229 
	C267.520111,42.781651 263.658173,46.642502 258.131622,47.016140 
	C251.326904,47.476185 246.395111,43.006706 246.018250,36.038296 
	C245.581421,27.960728 249.735443,23.573671 258.631897,23.193638 
M260.948090,40.512764 
	C261.300476,37.635670 262.285400,34.658684 261.850677,31.905909 
	C261.262054,28.178682 256.693817,26.719742 254.082291,29.182793 
	C251.024826,32.066395 251.149368,35.800976 252.779587,39.296940 
	C254.415695,42.805580 257.294159,42.718838 260.948090,40.512764 
z"/>
<path fill="#33144C" opacity="1.000000" stroke="none" 
	d="
M118.650742,46.994038 
	C113.051147,47.335155 109.048889,45.379196 107.050095,40.481201 
	C105.024223,35.516846 105.428452,30.537121 109.115166,26.488548 
	C112.296883,22.994541 116.533226,22.304518 121.034637,23.808760 
	C125.696945,25.366764 128.173447,29.327396 128.187729,35.146122 
	C128.203644,41.634186 125.832207,44.706783 118.650742,46.994038 
M115.012314,41.737312 
	C117.191566,41.025726 120.915321,40.731693 121.243027,39.519543 
	C122.035255,36.589161 121.613632,33.139969 120.872414,30.096968 
	C120.637230,29.131430 117.719215,28.089365 116.262360,28.356325 
	C114.799606,28.624363 112.516869,30.502815 112.539581,31.636517 
	C112.604393,34.872204 113.658730,38.088070 115.012314,41.737312 
z"/>
<path fill="#A70F3E" opacity="1.000000" stroke="none" 
	d="
M49.284180,32.836918 
	C44.835941,33.035126 40.710579,33.035126 36.234489,33.035126 
	C36.051647,35.998276 35.885315,38.693893 35.718983,41.389511 
	C35.266613,41.403339 34.814243,41.417171 34.361874,41.431004 
	C34.110050,38.849739 33.858227,36.268475 33.534344,32.948597 
	C29.698698,32.948597 25.780836,32.948597 21.396702,33.016403 
	C17.586479,29.209089 18.076616,27.699659 22.074217,26.647150 
	C23.286985,23.169807 23.513292,18.838623 25.515356,17.738214 
	C27.871838,16.443005 31.767733,17.948580 33.658699,18.119080 
	C37.959568,17.956104 41.645943,16.735559 43.798042,18.042141 
	C45.904594,19.321072 46.447830,23.174969 48.075142,26.780132 
	C51.676029,27.443029 52.040638,28.154228 49.284180,32.836918 
M43.974262,20.448759 
	C42.187859,20.078798 39.523472,18.809027 38.793266,19.521521 
	C37.146496,21.128344 36.456566,23.715797 35.243179,26.176275 
	C43.715992,27.542353 45.012779,26.702721 43.974262,20.448759 
M27.239616,26.630383 
	C29.334249,26.630383 31.428883,26.630383 35.013565,26.630383 
	C33.283890,23.571615 32.321903,21.058081 30.598764,19.283714 
	C30.030291,18.698341 26.475325,19.611877 26.092161,20.565668 
	C25.466557,22.122953 26.322786,24.275534 27.239616,26.630383 
z"/>
<path fill="#35164E" opacity="1.000000" stroke="none" 
	d="
M167.593170,33.213554 
	C167.971542,34.605743 167.971542,35.747662 167.971542,36.470142 
	C165.142151,39.414127 158.725006,33.946213 158.001160,41.916054 
	C161.764404,41.916054 165.156586,41.916054 168.737244,41.916054 
	C168.737244,43.759014 168.737244,45.017532 168.737244,46.574085 
	C163.550781,46.574085 158.458618,46.574085 153.005524,46.574085 
	C153.005524,39.127289 153.005524,31.598820 153.005524,23.750591 
	C158.098526,23.750591 163.162384,23.750591 168.628021,23.750591 
	C168.759415,24.933199 168.896484,26.166819 169.092789,27.933533 
	C165.441315,27.933533 162.028839,27.933533 158.419785,27.933533 
	C158.419785,29.692043 158.419785,30.951969 158.419785,32.963284 
	C161.361053,32.963284 164.287933,32.963284 167.593170,33.213554 
z"/>
<path fill="#36174F" opacity="1.000000" stroke="none" 
	d="
M80.491348,30.561810 
	C78.619324,29.795782 77.160217,28.589304 75.569237,28.378576 
	C74.009727,28.172016 72.316002,28.978802 70.681183,29.340839 
	C71.664795,30.390759 72.468750,31.789406 73.673500,32.410107 
	C75.551979,33.377926 77.865547,33.524372 79.702248,34.545162 
	C83.109207,36.438652 84.051910,40.499729 81.880058,43.533424 
	C79.031921,47.511765 74.751358,47.497101 70.590965,46.764759 
	C66.672791,46.075062 64.086861,43.760529 64.066078,38.025146 
	C66.522255,39.198597 68.296425,40.217232 70.191711,40.899296 
	C71.798973,41.477711 73.535355,41.818974 75.237770,41.940468 
	C75.779198,41.979111 76.897736,40.939251 76.863152,40.456615 
	C76.806213,39.662064 76.193954,38.510002 75.517647,38.230743 
	C73.387169,37.351040 70.808144,37.257511 68.989853,36.006405 
	C67.176262,34.758530 64.928947,32.466473 64.951477,30.658127 
	C64.978271,28.507860 66.722786,25.524910 68.609436,24.429489 
	C72.551834,22.140469 77.001411,22.312111 80.583809,25.669094 
	C81.933525,26.933891 84.018784,28.771204 80.491348,30.561810 
z"/>
<path fill="#3D1F55" opacity="1.000000" stroke="none" 
	d="
M92.028885,45.561905 
	C91.969543,39.643555 91.969543,34.184284 91.969543,28.320290 
	C89.761978,28.164738 87.697281,28.019251 85.297890,27.850182 
	C85.297890,26.525177 85.297890,25.178108 85.297890,23.401173 
	C90.856537,23.401173 96.313408,23.212416 101.738998,23.540752 
	C103.013069,23.617855 104.181404,25.442173 105.398384,26.462675 
	C105.081642,26.905212 104.764893,27.347752 104.448143,27.790291 
	C102.369621,27.945066 100.291092,28.099842 97.818855,28.283936 
	C97.818855,34.336411 97.818855,40.241570 97.818855,47.077099 
	C95.560242,46.660851 93.824234,46.340916 92.028885,45.561905 
z"/>
<path fill="#3C1E54" opacity="1.000000" stroke="none" 
	d="
M194.742859,44.882965 
	C192.849960,45.841293 190.997879,46.665710 189.091202,46.821327 
	C185.992020,47.074280 182.857117,46.889530 179.426544,46.889530 
	C179.426544,39.089378 179.426544,31.690334 179.426544,23.679602 
	C180.957687,23.601101 182.657578,23.513948 184.826065,23.402773 
	C184.826065,29.682226 184.826065,35.575031 184.826065,42.026119 
	C187.516861,42.026119 189.813828,41.780113 192.013519,42.135807 
	C193.026901,42.299671 193.849854,43.641209 194.742859,44.882965 
z"/>
<path fill="#F2F0F4" opacity="1.000000" stroke="none" 
	d="
M142.100342,28.533611 
	C144.754883,33.413429 143.898651,34.355289 137.424118,33.987404 
	C137.315643,33.096252 137.137802,32.165073 137.106369,31.228973 
	C137.074448,30.278582 137.187042,29.323334 137.255417,28.001749 
	C138.920746,28.123787 140.335022,28.227428 142.100342,28.533611 
z"/>
<path fill="#F5F4F6" opacity="1.000000" stroke="none" 
	d="
M211.276520,40.279457 
	C207.768906,43.025623 204.899109,42.925785 202.879395,39.105076 
	C200.903534,35.367363 202.134689,29.927162 205.296600,28.635885 
	C208.610916,27.282372 211.461792,28.372583 212.125931,31.916235 
	C212.605988,34.477627 211.781784,37.283466 211.276520,40.279457 
z"/>
<path fill="#F6F4F7" opacity="1.000000" stroke="none" 
	d="
M260.640747,40.756714 
	C257.294159,42.718838 254.415695,42.805580 252.779587,39.296940 
	C251.149368,35.800976 251.024826,32.066395 254.082291,29.182793 
	C256.693817,26.719742 261.262054,28.178682 261.850677,31.905909 
	C262.285400,34.658684 261.300476,37.635670 260.640747,40.756714 
z"/>
<path fill="#F5F3F6" opacity="1.000000" stroke="none" 
	d="
M114.668045,41.524521 
	C113.658730,38.088070 112.604393,34.872204 112.539581,31.636517 
	C112.516869,30.502815 114.799606,28.624363 116.262360,28.356325 
	C117.719215,28.089365 120.637230,29.131430 120.872414,30.096968 
	C121.613632,33.139969 122.035255,36.589161 121.243027,39.519543 
	C120.915321,40.731693 117.191566,41.025726 114.668045,41.524521 
z"/>
<path fill="#F8EBF0" opacity="1.000000" stroke="none" 
	d="
M44.165359,20.795574 
	C45.012779,26.702721 43.715992,27.542353 35.243179,26.176275 
	C36.456566,23.715797 37.146496,21.128344 38.793266,19.521521 
	C39.523472,18.809027 42.187859,20.078798 44.165359,20.795574 
z"/>
<path fill="#F8EDF1" opacity="1.000000" stroke="none" 
	d="
M26.896725,26.403671 
	C26.322786,24.275534 25.466557,22.122953 26.092161,20.565668 
	C26.475325,19.611877 30.030291,18.698341 30.598764,19.283714 
	C32.321903,21.058081 33.283890,23.571615 35.013565,26.630383 
	C31.428883,26.630383 29.334249,26.630383 26.896725,26.403671 
z"/>
</svg>