<?xml version="1.0" standalone="no"?>
<!DOCTYPE svg PUBLIC "-//W3C//DTD SVG 1.1//EN" "http://www.w3.org/Graphics/SVG/1.1/DTD/svg11.dtd" >
<svg xmlns="http://www.w3.org/2000/svg">
<metadata>Generated by IcoMoon</metadata>
<defs>
<font id="icomoon" horiz-adv-x="1024">
<font-face units-per-em="1024" ascent="960" descent="-64" />
<missing-glyph horiz-adv-x="1024" />
<glyph unicode="&#x20;" horiz-adv-x="512" d="" />
<glyph unicode="&#xe900;" horiz-adv-x="1237" d="M1097.167 31.034c0-19.917-208.684-36.049-466.108-36.049s-466.146 16.132-466.146 36.049 207.958 31.27 465.382 31.27c102.87 0 258.953-1.491 265.643-8.142s1.453-10.36 71.753-22.936c31.194-5.581 58.412 17.89 79.322 15.1 32.073-4.32 50.154-9.404 50.154-15.291z" />
<glyph unicode="&#xe901;" horiz-adv-x="1237" d="M962.148 118.383l-4.511 92.587c-0.012 0.228-0.018 0.496-0.018 0.765 0 8.888 7.205 16.094 16.094 16.094 0.006 0 0.013 0 0.019 0h-0.001c8.874-0.019 16.061-7.217 16.061-16.094 0-0.417-0.016-0.83-0.047-1.239l0.003 0.054-6.804-92.434c-0.388-5.306-4.765-9.471-10.126-9.519h-0.234c-0.006 0-0.013 0-0.020 0-5.535 0-10.064 4.309-10.414 9.756l-0.002 0.031z" />
<glyph unicode="&#xe902;" horiz-adv-x="1237" d="M984.205 82.641c0-6.207-5.032-11.239-11.239-11.239s-11.239 5.032-11.239 11.239c0 6.207 5.032 11.239 11.239 11.239s11.239-5.032 11.239-11.239z" />
<glyph unicode="&#xe903;" horiz-adv-x="1237" d="M861.915 106.648c0-3.969-3.218-7.187-7.187-7.187s-7.187 3.218-7.187 7.187c0 3.969 3.218 7.187 7.187 7.187s7.187-3.218 7.187-7.187z" />
<glyph unicode="&#xe904;" horiz-adv-x="1237" d="M269.771 205.122c0-3.969-3.218-7.187-7.187-7.187s-7.187 3.218-7.187 7.187c0 3.969 3.218 7.187 7.187 7.187s7.187-3.218 7.187-7.187z" />
<glyph unicode="&#xe905;" horiz-adv-x="1237" d="M917.919 508.113c0-3.969-3.218-7.187-7.187-7.187s-7.187 3.218-7.187 7.187c0 3.969 3.218 7.187 7.187 7.187s7.187-3.218 7.187-7.187z" />
<glyph unicode="&#xe906;" horiz-adv-x="1237" d="M1077.939 151.718c0 0 0 0 0 0-2.963 0-5.368 2.391-5.39 5.35v0.002c-0.065 54.62-44.315 98.884-98.924 98.971h-0.008c-0.136-0.012-0.294-0.019-0.454-0.019-2.977 0-5.39 2.413-5.39 5.39s2.413 5.39 5.39 5.39c0.16 0 0.318-0.007 0.474-0.021l-0.020 0.001c60.616 0 109.762-49.106 109.828-109.707v-0.006c0-0.001 0-0.001 0-0.002 0-2.956-2.396-5.352-5.352-5.352-0.054 0-0.107 0.001-0.161 0.002h0.008z" />
<glyph unicode="&#xe907;" horiz-adv-x="1237" d="M305.476 154.738c-3.272 0.004-5.993 2.357-6.569 5.464l-0.006 0.041-51.034 285.254c-0.034 0.255-0.054 0.549-0.054 0.849 0 3.695 2.995 6.69 6.69 6.69 3.155 0 5.8-2.184 6.505-5.123l0.009-0.046 51.072-285.215c0.050-0.309 0.079-0.666 0.079-1.029 0-3.284-2.353-6.019-5.466-6.61l-0.042-0.007z" />
<glyph unicode="&#xe908;" horiz-adv-x="1237" d="M963.983 307.915c-0.207-0.027-0.446-0.042-0.688-0.042s-0.481 0.015-0.716 0.045l0.028-0.003c-3.055 0.661-5.31 3.34-5.31 6.546 0 0.498 0.054 0.983 0.158 1.45l-0.008-0.044 26.759 124.278c0.558 3.179 3.298 5.563 6.594 5.563 3.695 0 6.69-2.995 6.69-6.69 0-0.591-0.077-1.165-0.221-1.711l0.010 0.047-26.759-124.278c-0.702-2.978-3.337-5.161-6.482-5.161-0.019 0-0.038 0-0.057 0h0.003z" />
<glyph unicode="&#xe909;" horiz-adv-x="1237" d="M200.044 828.459c-25.335 0-45.873 20.538-45.873 45.873s20.538 45.873 45.873 45.873c25.335 0 45.873-20.538 45.873-45.873v0c0-25.335-20.538-45.873-45.873-45.873v0zM200.044 908.355c-19.001 0-34.405-15.404-34.405-34.405s15.404-34.405 34.405-34.405c19.001 0 34.405 15.404 34.405 34.405v0c0 19.001-15.404 34.405-34.405 34.405v0z" />
<glyph unicode="&#xe90a;" horiz-adv-x="1237" d="M92.396 374.546c-13.596 0-24.619 11.022-24.619 24.619s11.022 24.619 24.619 24.619c13.596 0 24.619-11.022 24.619-24.619v0c0-13.596-11.022-24.619-24.619-24.619v0zM92.396 412.276c-7.263 0-13.15-5.888-13.15-13.15s5.888-13.15 13.15-13.15c7.263 0 13.15 5.888 13.15 13.15v0c0 0.011 0 0.025 0 0.038 0 7.242-5.87 13.112-13.112 13.112-0.013 0-0.027 0-0.040 0h0.002z" />
<glyph unicode="&#xe90b;" horiz-adv-x="1237" d="M1153.4 818.138c0.022-13.601 11.053-24.619 24.657-24.619 13.618 0 24.657 11.039 24.657 24.657s-11.039 24.657-24.657 24.657c-13.604 0-24.635-11.017-24.657-24.616v-0.002zM1153.4 855.868c-7.262 0-13.15-5.888-13.15-13.15s5.888-13.15 13.15-13.15c7.263 0 13.15 5.888 13.15 13.15 0 0.040 0 0.081-0.001 0.121v-0.006c-0.043 7.209-5.897 13.036-13.112 13.036-0.014 0-0.027 0-0.041 0h0.002z" />
<glyph unicode="&#xe90c;" horiz-adv-x="1237" d="M603.001 667.216c-0.011 0-0.025 0-0.038 0-12.984 0-23.51 10.526-23.51 23.51s10.526 23.51 23.51 23.51c12.971 0 23.488-10.504 23.51-23.47v-0.002c0-0.023 0-0.050 0-0.076 0-12.963-10.509-23.472-23.472-23.472 0 0 0 0 0 0v0zM603.001 702.729c-0.011 0-0.025 0-0.038 0-6.65 0-12.042-5.391-12.042-12.042s5.391-12.042 12.042-12.042c6.637 0 12.020 5.369 12.042 12.001v0.002c-0.064 6.596-5.405 11.922-11.999 11.965h-0.004z" />
<glyph unicode="&#xe90d;" horiz-adv-x="1237" d="M1163.721 180.197c-0.011 0-0.025 0-0.038 0-12.984 0-23.51 10.526-23.51 23.51s10.526 23.51 23.51 23.51c12.971 0 23.488-10.504 23.51-23.47v-0.002c0-0.011 0-0.025 0-0.038 0-12.971-10.504-23.488-23.47-23.51h-0.002zM1163.721 215.711c-0.011 0-0.025 0-0.038 0-6.65 0-12.042-5.391-12.042-12.042s5.391-12.042 12.042-12.042c6.637 0 12.020 5.369 12.042 12.001v0.002c-0.043 6.604-5.396 11.944-12.001 11.965h-0.002z" />
<glyph unicode="&#xe90e;" horiz-adv-x="1237" d="M187.582 160.969h-19.42v20.872c0 3.167-2.567 5.734-5.734 5.734s-5.734-2.567-5.734-5.734v0-20.872h-20.146c-3.167 0-5.734-2.567-5.734-5.734s2.567-5.734 5.734-5.734v0h20.146v-18.693c0-3.167 2.567-5.734 5.734-5.734s5.734 2.567 5.734 5.734v0 18.693h19.42c3.167 0 5.734 2.567 5.734 5.734s-2.567 5.734-5.734 5.734v0z" />
<glyph unicode="&#xe90f;" horiz-adv-x="1237" d="M1053.244 698.142h-19.496v20.872c0 3.167-2.567 5.734-5.734 5.734s-5.734-2.567-5.734-5.734v0-20.872h-20.146c-3.167 0-5.734-2.567-5.734-5.734s2.567-5.734 5.734-5.734v0h20.146v-18.693c0-3.167 2.567-5.734 5.734-5.734s5.734 2.567 5.734 5.734v0 18.693h19.42c3.167 0 5.734 2.567 5.734 5.734s-2.567 5.734-5.734 5.734v0z" />
<glyph unicode="&#xe910;" horiz-adv-x="1237" d="M271.339 734.611c-1.050 1.041-2.495 1.684-4.090 1.684s-3.041-0.643-4.091-1.684v0l-14.832-14.87-14.221 14.221c-0.998 0.862-2.308 1.388-3.74 1.388-3.167 0-5.734-2.567-5.734-5.734 0-1.423 0.518-2.725 1.377-3.727l-0.007 0.008 14.221-14.259-13.074-13.036c-1.039-1.038-1.682-2.472-1.682-4.057 0-3.086 2.438-5.603 5.493-5.729h0.011c0.047-0.001 0.103-0.002 0.158-0.002 1.494 0 2.852 0.583 3.858 1.534l13.262 13.262 13.877-13.685c1.017-1.018 2.423-1.648 3.976-1.648s2.959 0.63 3.976 1.648v0c1.041 1.050 1.684 2.495 1.684 4.090s-0.643 3.041-1.684 4.091v0l-13.571 13.609 14.718 14.718c1.075 1.055 1.742 2.524 1.742 4.148 0 1.567-0.62 2.989-1.629 4.034l0.002-0.002z" />
<glyph unicode="&#xe911;" horiz-adv-x="1237" d="M1102.94 371.335l14.718 14.756c1.081 1.052 1.752 2.522 1.752 4.148 0 3.195-2.59 5.785-5.785 5.785-1.569 0-2.992-0.625-4.034-1.639l0.001 0.001-14.679-14.87-14.221 14.221c-0.998 0.862-2.308 1.388-3.74 1.388-3.167 0-5.734-2.567-5.734-5.734 0-1.423 0.518-2.725 1.377-3.727l-0.007 0.008 14.221-14.259-13.15-13.15c-1.028-1.043-1.667-2.472-1.682-4.049v-0.003c0-3.167 2.567-5.734 5.734-5.734v0c0.047-0.001 0.103-0.002 0.158-0.002 1.494 0 2.852 0.583 3.858 1.534l13.262 13.262 13.724-13.724c0.991-1.038 2.385-1.683 3.93-1.683 0.043 0 0.086 0.001 0.129 0.001h-0.006c1.493 0.022 2.84 0.631 3.823 1.606v0c1.041 1.050 1.684 2.495 1.684 4.090s-0.643 3.041-1.684 4.091v0z" />
<glyph unicode="&#xe912;" horiz-adv-x="1237" d="M215.966 594.316h831.639c30.645 0 55.487-24.842 55.487-55.487s-24.842-55.487-55.487-55.487h-831.639c-30.645 0-55.487 24.842-55.487 55.487s24.842 55.487 55.487 55.487z" />
<glyph unicode="&#xe913;" horiz-adv-x="1237" d="M848.192 515.108h-647.039c-26.387 0.762-47.488 22.334-47.488 48.836s21.101 48.074 47.418 48.834l0.070 0.002c3.674 0 6.652 2.978 6.652 6.652s-2.978 6.652-6.652 6.652v0c-0.114 0.001-0.248 0.001-0.382 0.001-34.308 0-62.121-27.812-62.121-62.121 0-34.174 27.595-61.903 61.718-62.12h0.021l47.020-255.36c0.638-3.066 3.296-5.343 6.494-5.39h0.005c0.183-0.019 0.396-0.030 0.612-0.030s0.428 0.011 0.638 0.032l-0.026-0.002c3.136 0.613 5.47 3.338 5.47 6.609 0 0.366-0.029 0.725-0.085 1.075l0.005-0.038-46.408 253.066h634.079c3.674 0 6.652 2.978 6.652 6.652s-2.978 6.652-6.652 6.652v0z" />
<glyph unicode="&#xe914;" horiz-adv-x="1237" d="M448.867 186.964l-40.33 228.562c-0.268 1.445-0.421 3.109-0.421 4.808 0 13.529 9.707 24.79 22.536 27.2l0.172 0.027c1.51 0.292 3.247 0.46 5.023 0.46 13.556 0 24.836-9.746 27.215-22.614l0.026-0.17 41.095-228.448c0.279-1.477 0.439-3.176 0.439-4.912 0-13.57-9.752-24.862-22.631-27.25l-0.171-0.026h-0.879c-1.443-0.267-3.104-0.419-4.8-0.419-13.563 0-24.85 9.742-27.246 22.611l-0.026 0.171z" />
<glyph unicode="&#xe915;" horiz-adv-x="1237" d="M611.296 189.372v232.079c0 0 0 0 0 0.001 0 15.218 12.283 27.568 27.475 27.676h0.010c0.068 0.001 0.149 0.001 0.229 0.001 15.259 0 27.634-12.348 27.677-27.597v-0.004l0.917-232.079c0-0.023 0-0.050 0-0.077 0-15.266-12.343-27.65-27.594-27.715h-0.885c-0.034 0-0.074 0-0.115 0-15.307 0-27.715 12.408-27.715 27.715 0 0 0 0 0 0v0z" />
<glyph unicode="&#xe916;" horiz-adv-x="1237" d="M770.819 191.436l41.515 228.333c2.428 13.033 13.712 22.769 27.27 22.769 1.67 0 3.305-0.148 4.894-0.431l-0.168 0.025c13.118-2.355 22.943-13.681 22.943-27.301 0-1.713-0.155-3.391-0.453-5.018l0.026 0.17-40.636-228.486c-2.405-13.082-13.72-22.863-27.319-22.863-1.707 0-3.378 0.154-5 0.449l0.17-0.026h-0.879c-13.066 2.4-22.836 13.7-22.836 27.282 0 1.802 0.172 3.564 0.501 5.271l-0.028-0.174z" />
<glyph unicode="&#xe917;" horiz-adv-x="1237" d="M292.899 531.355c-16.318 0.086-29.513 13.334-29.513 29.664 0 16.383 13.281 29.665 29.665 29.665s29.665-13.281 29.665-29.665c0-8.225-3.348-15.669-8.755-21.042l-0.002-0.002c-5.356-5.328-12.739-8.621-20.892-8.621-0.059 0-0.118 0-0.176 0.001h0.009zM292.899 577.228c-8.973 0-16.247-7.274-16.247-16.247s7.274-16.247 16.247-16.247c8.973 0 16.247 7.274 16.247 16.247v0c0 8.973-7.274 16.247-16.247 16.247v0z" />
<glyph unicode="&#xe918;" horiz-adv-x="1237" d="M939.326 531.355c-16.362 0-29.626 13.264-29.626 29.626s13.264 29.626 29.626 29.626c16.362 0 29.626-13.264 29.626-29.626v0c0-16.362-13.264-29.626-29.626-29.626v0zM939.326 577.228c-8.973 0-16.247-7.274-16.247-16.247s7.274-16.247 16.247-16.247c8.973 0 16.247 7.274 16.247 16.247v0c0 8.973-7.274 16.247-16.247 16.247v0z" />
<glyph unicode="&#xe919;" horiz-adv-x="1237" d="M455.978 153.323c-16.845 0.043-30.842 12.185-33.761 28.193l-0.032 0.21-40.33 228.562c-0.356 1.858-0.56 3.995-0.56 6.18 0 19.001 15.404 34.405 34.405 34.405 7.363 0 14.187-2.313 19.782-6.253l-0.109 0.073c7.383-5.115 12.594-12.918 14.228-21.965l0.031-0.207 41.286-228.562c0.346-1.831 0.543-3.937 0.543-6.090 0-16.842-12.102-30.858-28.084-33.825l-0.212-0.033h-0.841c-1.881-0.386-4.066-0.634-6.3-0.687l-0.045-0.001zM415.762 437.277c-1.352-0.001-2.674-0.126-3.956-0.365l0.133 0.021c-9.858-1.885-17.207-10.438-17.207-20.707 0-1.274 0.113-2.521 0.33-3.733l-0.019 0.128 40.33-228.562c1.812-9.922 10.389-17.344 20.7-17.344 1.317 0 2.606 0.121 3.857 0.353l-0.13-0.020h0.841c9.901 1.83 17.301 10.397 17.301 20.693 0 1.306-0.119 2.585-0.347 3.826l0.020-0.129-41.209 228.409c-1.836 9.875-10.374 17.256-20.64 17.279h-0.003z" />
<glyph unicode="&#xe91a;" horiz-adv-x="1237" d="M618.1 152.368h-1.032c-19.001 0-34.405 15.404-34.405 34.405v0l0.459 232.079c0 18.948 15.361 34.309 34.309 34.309s34.309-15.361 34.309-34.309v0l0.421-232.117c0-19.001-15.404-34.405-34.405-34.405v0zM617.68 439.877c-11.582-0.022-20.965-9.405-20.987-20.985v-0.002l-0.459-232.079c-0.001-0.056-0.001-0.121-0.001-0.187 0-5.741 2.339-10.935 6.116-14.682l0.001-0.001c3.794-3.806 9.035-6.169 14.828-6.193h0.961c11.595 0.022 20.987 9.427 20.987 21.025 0 0.013 0 0.027 0 0.040v-0.002l-0.421 232.079c-0.043 11.547-9.37 20.901-20.902 20.987h-0.008z" />
<glyph unicode="&#xe91b;" horiz-adv-x="1237" d="M996.897 293.809l41.592 208.263c31.941 2.828 56.8 29.456 56.8 61.891 0 34.308-27.812 62.12-62.12 62.12-0.132 0-0.264 0-0.396-0.001h-78.002c-0.102 1.665-0.782 3.154-1.839 4.285l0.004-0.004-240.298 249.931c-6.876 7.19-16.545 11.66-27.258 11.66-0.040 0-0.079 0-0.119 0h-0.262c-20.944-0.055-37.901-17.046-37.901-37.998 0-10.269 4.074-19.587 10.693-26.426l-0.010 0.010 196.031-201.459h-462.935l191.787 198.171c6.632 6.829 10.721 16.158 10.721 26.443 0 20.971-17 37.971-37.971 37.971-10.77 0-20.492-4.484-27.403-11.686l-0.013-0.013-240.642-249.97c-0.264-0.266-0.493-0.567-0.677-0.897l-0.011-0.021h-50.46c-3.674 0-6.652-2.978-6.652-6.652s2.978-6.652 6.652-6.652v0h796.585c0.407 0.012 0.886 0.019 1.366 0.019 26.982 0 48.855-21.873 48.855-48.855s-21.873-48.855-48.855-48.855c-0.48 0-0.959 0.007-1.436 0.021l0.070-0.002h-93.581c-3.674 0-6.652-2.978-6.652-6.652s2.978-6.652 6.652-6.652v0h85.591l-41.095-205.855v-0.535c-3.288 0.268-6.652 0.421-10.016 0.421-75.379-0.087-136.462-61.17-136.549-136.54v-0.008c0-3.695 2.995-6.69 6.69-6.69s6.69 2.995 6.69 6.69v0c0 0.034 0 0.074 0 0.115 0 68.024 55.145 123.169 123.169 123.169s123.169-55.145 123.169-123.169c0-68.024-55.145-123.169-123.169-123.169-0.027 0-0.054 0-0.081 0h0.004c-40.139 0-73.523 17.394-99.391 51.645-1.233 1.632-3.171 2.676-5.352 2.676-3.695 0-6.69-2.995-6.69-6.69 0-1.514 0.503-2.91 1.35-4.031l-0.012 0.017c4.443-5.857 8.926-11.043 13.713-15.931l-0.028 0.028h-525.819c-25.616 0.004-47.924 14.161-59.53 35.077l-0.177 0.348h522.719c3.695 0 6.69 2.995 6.69 6.69s-2.995 6.69-6.69 6.69v0h-528.304c-0.604 1.824-1.186 4.112-1.627 6.45l-0.055 0.354-11.468 63.037c-0.652 3.074-3.344 5.347-6.566 5.347-3.703 0-6.705-3.002-6.705-6.705 0-0.371 0.030-0.735 0.088-1.089l-0.005 0.039 11.468-63.075c7.304-38.131 40.392-66.554 80.119-66.554 0.056 0 0.112 0 0.168 0h538.502c0.657 0.009 1.287 0.106 1.885 0.28l-0.050-0.012c21.925-17.444 50.018-27.988 80.573-27.988 0.42 0 0.84 0.002 1.259 0.006h-0.064c75.347 0.088 136.395 61.189 136.395 136.549 0 67.133-48.447 122.951-112.286 134.399l-0.828 0.123zM373.215 626.083h-68.236l232.5 241.674c4.395 4.712 10.64 7.649 17.571 7.649 0.139 0 0.278-0.001 0.417-0.004h-0.021c13.533-0.138 24.451-11.141 24.451-24.694 0-6.654-2.632-12.694-6.912-17.135l0.007 0.008-198.286-205.052c-0.645-0.679-1.154-1.495-1.476-2.399l-0.015-0.048zM872.275 626.083c-0.127 0.232-0.266 0.433-0.424 0.616l0.004-0.005-204.517 210.251c-4.31 4.444-6.966 10.513-6.966 17.202 0 13.654 11.069 24.723 24.723 24.723 6.965 0 13.257-2.88 17.751-7.514l0.006-0.006 235.711-245.268z" />
<glyph unicode="&#xe91c;" horiz-adv-x="1237" d="M776.974 153.362c-2.181 0.010-4.31 0.204-6.38 0.568l0.225-0.033h-0.841c-16.195 3-28.296 17.016-28.296 33.858 0 2.152 0.198 4.259 0.576 6.302l-0.033-0.212 41.171 228.486c2.872 16.343 16.961 28.603 33.912 28.603 19.001 0 34.405-15.404 34.405-34.405 0-2.22-0.21-4.39-0.612-6.493l0.034 0.215-40.33-228.562c-2.953-16.231-16.97-28.38-33.829-28.403h-0.002zM817.227 437.315c-10.269-0.023-18.807-7.404-20.623-17.149l-0.020-0.13-41.209-228.409c-0.208-1.111-0.328-2.39-0.328-3.697 0-10.295 7.4-18.862 17.171-20.673l0.13-0.020h0.841c1.121-0.212 2.41-0.333 3.727-0.333 10.311 0 18.888 7.422 20.681 17.215l0.020 0.129 40.33 228.562c0.198 1.084 0.311 2.331 0.311 3.605 0 10.27-7.349 18.823-17.075 20.686l-0.132 0.021c-0.901 0.132-1.941 0.207-2.999 0.207-0.29 0-0.578-0.006-0.865-0.017l0.041 0.001z" />
<glyph unicode="&#xe91d;" horiz-adv-x="1237" d="M857.175 529.1c-0.011 0-0.023 0-0.036 0-3.146 0-5.696 2.55-5.696 5.696 0 0.964 0.24 1.873 0.663 2.669l-0.015-0.031 22.44 43.847c0.972 1.866 2.892 3.117 5.103 3.117 3.168 0 5.736-2.568 5.736-5.736 0-0.956-0.234-1.858-0.648-2.65l0.015 0.032-22.44-43.847c-0.985-1.855-2.905-3.096-5.115-3.096-0.003 0-0.006 0-0.008 0v0z" />
<glyph unicode="&#xe91e;" horiz-adv-x="1237" d="M811.226 529.1c-0.022 0-0.048 0-0.074 0-3.146 0-5.696 2.55-5.696 5.696 0 0.964 0.24 1.873 0.663 2.669l-0.015-0.031 22.478 43.847c0.965 1.855 2.872 3.1 5.070 3.1 0.94 0 1.826-0.228 2.607-0.63l-0.032 0.015c1.86-0.984 3.105-2.906 3.105-5.119 0-0.919-0.215-1.789-0.597-2.56l0.015 0.034-22.478-43.847c-0.949-1.872-2.846-3.139-5.042-3.173h-0.004z" />
<glyph unicode="&#xe91f;" horiz-adv-x="1237" d="M765.238 529.1c-0.012 0-0.025 0-0.039 0-0.921 0-1.789 0.226-2.552 0.626l0.030-0.014c-1.883 0.966-3.148 2.894-3.148 5.118 0 0.92 0.217 1.79 0.602 2.561l-0.015-0.033 22.44 44.917c0.987 1.856 2.909 3.099 5.121 3.099 3.192 0 5.78-2.588 5.78-5.78 0-0.886-0.199-1.726-0.556-2.477l0.015 0.035-22.44-44.879c-0.951-1.896-2.88-3.174-5.107-3.174-0.046 0-0.091 0.001-0.137 0.002h0.007z" />
<glyph unicode="&#xe920;" horiz-adv-x="1237" d="M720.283 529.1c-1.008 0.002-1.955 0.256-2.784 0.704l0.031-0.015c-1.749 1.004-2.908 2.861-2.908 4.989 0 0.971 0.241 1.886 0.667 2.687l-0.015-0.031 23.51 42.777c0.997 1.783 2.874 2.969 5.027 2.969 3.17 0 5.74-2.57 5.74-5.74 0-1.017-0.264-1.972-0.728-2.8l0.015 0.029-23.51-42.777c-1.037-1.685-2.872-2.791-4.964-2.791-0.029 0-0.057 0-0.086 0.001h0.004z" />
<glyph unicode="&#xe921;" horiz-adv-x="1237" d="M674.41 530.17c-0.011 0-0.023 0-0.036 0-3.146 0-5.696 2.55-5.696 5.696 0 0.964 0.24 1.873 0.663 2.669l-0.015-0.031 21.369 41.706c0.972 1.866 2.892 3.117 5.103 3.117 3.168 0 5.736-2.568 5.736-5.736 0-0.956-0.234-1.858-0.648-2.65l0.015 0.032-21.446-41.783c-0.987-1.81-2.875-3.018-5.046-3.020v0z" />
<glyph unicode="&#xe922;" horiz-adv-x="1237" d="M629.072 529.1c-0.011 0-0.023 0-0.036 0-3.146 0-5.696 2.55-5.696 5.696 0 0.964 0.24 1.873 0.663 2.669l-0.015-0.031 22.44 43.847c0.972 1.866 2.892 3.117 5.103 3.117 3.168 0 5.736-2.568 5.736-5.736 0-0.956-0.234-1.858-0.648-2.65l0.015 0.032-22.44-43.847c-0.985-1.855-2.905-3.096-5.115-3.096-0.003 0-0.006 0-0.008 0v0z" />
<glyph unicode="&#xe923;" horiz-adv-x="1237" d="M583.084 529.1c-0.011 0-0.023 0-0.036 0-3.146 0-5.696 2.55-5.696 5.696 0 0.964 0.24 1.873 0.663 2.669l-0.015-0.031 22.44 43.847c0.972 1.866 2.892 3.117 5.103 3.117 3.168 0 5.736-2.568 5.736-5.736 0-0.956-0.234-1.858-0.648-2.65l0.015 0.032-22.44-43.847c-0.985-1.855-2.905-3.096-5.115-3.096-0.003 0-0.006 0-0.008 0v0z" />
<glyph unicode="&#xe924;" horiz-adv-x="1237" d="M537.135 529.1c-0.012 0-0.025 0-0.039 0-0.921 0-1.789 0.226-2.552 0.626l0.030-0.014c-1.883 0.966-3.148 2.894-3.148 5.118 0 0.92 0.217 1.79 0.602 2.561l-0.015-0.033 22.44 44.917c0.965 1.886 2.896 3.155 5.122 3.155 3.168 0 5.736-2.568 5.736-5.736 0-0.941-0.227-1.829-0.628-2.613l0.015 0.032-22.44-44.879c-0.958-1.874-2.876-3.135-5.088-3.135-0.012 0-0.025 0-0.037 0h0.002z" />
<glyph unicode="&#xe925;" horiz-adv-x="1237" d="M492.217 529.1c-1.008 0.002-1.955 0.256-2.784 0.704l0.031-0.015c-1.749 1.004-2.908 2.861-2.908 4.989 0 0.971 0.241 1.886 0.667 2.687l-0.015-0.031 23.51 42.777c0.997 1.783 2.874 2.969 5.027 2.969 3.17 0 5.74-2.57 5.74-5.74 0-1.017-0.264-1.972-0.728-2.8l0.015 0.029-23.548-42.738c-0.996-1.704-2.817-2.83-4.9-2.83-0.038 0-0.076 0-0.113 0.001h0.006z" />
<glyph unicode="&#xe926;" horiz-adv-x="1237" d="M446.23 530.17c-0.011 0-0.023 0-0.036 0-3.146 0-5.696 2.55-5.696 5.696 0 0.964 0.24 1.873 0.663 2.669l-0.015-0.031 21.369 41.706c0.972 1.866 2.892 3.117 5.103 3.117 3.168 0 5.736-2.568 5.736-5.736 0-0.956-0.234-1.858-0.648-2.65l0.015 0.032-21.369-41.783c-0.988-1.812-2.878-3.020-5.051-3.020-0.025 0-0.050 0-0.075 0h0.004z" />
<glyph unicode="&#xe927;" horiz-adv-x="1237" d="M400.242 529.1c-0.011 0-0.023 0-0.036 0-3.146 0-5.696 2.55-5.696 5.696 0 0.964 0.24 1.873 0.663 2.669l-0.015-0.031 21.369 41.63c0.972 1.866 2.892 3.117 5.103 3.117 3.168 0 5.736-2.568 5.736-5.736 0-0.956-0.234-1.858-0.648-2.65l0.015 0.032-21.369-41.706c-0.997-1.812-2.895-3.020-5.074-3.020-0.017 0-0.034 0-0.051 0h0.003z" />
<glyph unicode="&#xe928;" horiz-adv-x="1237" d="M356.433 530.17c-0.005 0-0.010 0-0.016 0-0.955 0-1.857 0.226-2.656 0.627l0.034-0.016c-1.843 0.989-3.075 2.902-3.075 5.103 0 0.926 0.218 1.8 0.605 2.576l-0.015-0.033 21.407 41.706c0.965 1.855 2.872 3.1 5.070 3.1 0.94 0 1.826-0.228 2.607-0.63l-0.032 0.015c1.843-0.989 3.075-2.902 3.075-5.103 0-0.926-0.218-1.8-0.605-2.576l0.015 0.033-21.331-41.783c-0.968-1.81-2.845-3.021-5.005-3.021-0.028 0-0.055 0-0.083 0.001h0.004z" />
<glyph unicode="&#xe929;" horiz-adv-x="1309" d="M1031.216 200.387l232.993-20.915c2.51-0.418 4.183-2.51 3.765-5.020 0-1.255-0.837-2.51-2.092-3.346l-399.895-228.81c-9.621-5.438-20.915-7.529-31.791-5.856-74.039 11.712-381.072 60.654-717.804 117.961-1.673 0.418-2.928 2.092-2.928 3.765 0 1.255 0.837 2.092 2.092 2.51l133.438 49.359c0 0 273.569-122.562 566.797-106.248l215.425 196.601z" />
<glyph unicode="&#xe92a;" horiz-adv-x="1309" d="M784.418-5.417c-108.758 0-476.444 18.405-775.529 252.654-10.039 7.948-12.131 22.588-4.183 32.627 2.092 2.51 4.183 4.601 7.111 5.856l38.902 22.17c2.928 1.673 6.693 0.837 8.366-2.51 1.673-2.928 0.837-6.693-2.51-8.366l-39.32-22.588c-1.255-0.837-2.51-1.673-3.346-2.51-3.765-4.601-2.928-11.712 1.673-15.059 338.405-264.784 765.072-250.98 796.863-249.307l405.333 378.144c-20.915 0.418-41.412 0.837-61.49 1.673-3.346 0-6.275 2.928-5.856 6.693 0 3.346 2.928 6.275 6.693 5.856 22.588-0.837 46.013-1.255 69.856-1.673 5.020 0 9.203-4.183 9.203-9.203 0-2.51-1.255-5.020-2.928-6.693l-412.444-384.837c-1.673-1.255-3.346-2.092-5.438-2.51-2.51 0-13.386-0.418-30.954-0.418zM1227.399 385.694c0 0 0 0 0 0s0 0 0 0z" />
<glyph unicode="&#xe92b;" horiz-adv-x="1309" d="M334.327 334.243c-2.092 0-4.183 1.255-5.438 2.928-1.673 2.928-0.837 6.693 2.092 8.784l179.451 105.412c2.928 1.673 6.693 0.837 8.784-2.092 1.673-2.928 0.837-6.693-2.092-8.784l-179.451-105.412c-1.255-0.418-2.51-0.837-3.346-0.837z" />
<glyph unicode="&#xe92c;" horiz-adv-x="1309" d="M426.771 329.224c-2.092 0-4.183 1.255-5.438 2.928-1.673 2.928-0.837 6.693 2.092 8.784l108.34 64c2.928 1.673 6.693 0.837 8.784-2.092 1.673-2.928 0.837-6.693-2.092-8.784l-108.34-64c-1.255-0.418-2.51-0.837-3.346-0.837z" />
<glyph unicode="&#xe92d;" horiz-adv-x="1309" d="M384.105 193.276c-2.092 0-4.183 0.837-5.438 2.928-1.673 2.928-0.837 6.693 2.092 8.784l353.882 224.209c2.928 1.673 6.693 0.837 8.784-2.092 1.673-2.928 0.837-6.693-2.092-8.784l-353.882-224.209c-0.837-0.418-2.092-0.837-3.346-0.837z" />
<glyph unicode="&#xe92e;" horiz-adv-x="1309" d="M455.634 161.067c-2.092 0-4.183 0.837-5.438 2.928-2.092 2.928-1.255 6.693 1.673 8.784l344.68 226.719c2.928 2.092 6.693 1.255 8.784-1.673s1.255-6.693-1.673-8.784l-344.68-226.719c-0.837-0.837-2.092-1.255-3.346-1.255z" />
<glyph unicode="&#xe92f;" horiz-adv-x="1309" d="M547.242 139.315c-2.092 0-3.765 0.837-5.020 2.928-2.092 2.928-1.255 6.693 1.673 8.784l205.804 141.804c2.928 2.092 6.693 1.255 8.784-1.673s1.255-6.693-1.673-8.784l-205.804-141.804c-1.255-0.837-2.51-1.255-3.765-1.255z" />
<glyph unicode="&#xe930;" horiz-adv-x="1309" d="M633.83 121.328c-2.092 0-3.765 0.837-5.020 2.51-2.092 2.928-1.255 6.693 1.673 8.784l211.66 147.66c2.928 2.092 6.693 1.255 8.784-1.673s1.255-6.693-1.673-8.784l-211.66-147.66c-1.255-0.418-2.51-0.837-3.765-0.837z" />
<glyph unicode="&#xe931;" horiz-adv-x="1309" d="M925.386 204.57c-7.111 0-12.967 1.673-13.386 1.673-3.346 0.837-5.020 4.601-4.183 7.948s4.601 5.020 7.948 4.183v0c0 0 15.895-4.601 23.007 3.346 3.765 4.183 8.366 16.314-2.928 47.686-8.784 2.092-15.477 5.020-16.314 5.020-25.935 10.458-38.484 24.68-44.758 34.719-12.131 19.66-15.059 34.719-9.203 44.758 3.765 6.275 10.039 8.784 14.641 8.366 28.026-1.673 57.725-65.673 63.163-78.641 0.418-1.255 1.255-2.51 1.673-3.765 12.131-2.092 24.261-2.092 28.444 3.346 2.928 3.346 3.765 8.366 2.928 13.804-0.418 1.673-0.837 3.346-1.673 5.438-12.131-2.928-22.588-1.673-23.425-1.255-0.418 0-0.837 0-1.255 0.418-15.895 5.438-18.824 14.641-19.242 19.242-0.418 6.275 2.928 12.549 8.784 15.477 7.948 3.765 18.824-1.255 20.915-2.092 7.948-4.601 14.222-10.039 19.242-16.314 4.183 2.092 7.948 5.020 11.294 9.203 2.928 5.438 12.131 12.967 28.444 6.275 2.928-0.837 28.444-6.693 50.614 7.111 16.732 10.458 27.608 30.536 31.791 58.562 0.418 3.346 3.765 5.856 7.111 5.020 3.346-0.418 5.856-3.765 5.020-7.111-5.020-32.209-17.987-54.797-37.647-67.346-28.026-17.569-59.817-8.784-61.072-8.366-0.418 0-0.418 0-0.837 0.418-9.621 4.183-12.549 0.418-12.967-0.418 0-0.418-0.418-0.418-0.418-0.837-4.601-6.275-9.621-10.458-15.477-13.386 0.837-2.51 1.673-5.020 2.092-7.529 1.673-8.784-0.418-17.569-5.438-23.843-7.529-9.203-20.915-10.039-33.464-8.784 7.948-25.516 7.529-43.085-2.092-53.542-5.020-7.111-14.222-8.784-21.333-8.784zM879.791 349.72c0 0-2.092-0.418-3.346-2.928s-3.346-10.876 9.203-31.373c7.529-12.131 21.333-22.588 38.902-29.699 1.673-0.837 3.765-1.255 5.438-2.092-13.386 28.863-35.974 65.255-50.196 66.092v0zM954.248 313.328c1.673 0 6.693-0.418 12.967 0.418-2.928 2.928-7.111 6.275-12.131 9.203-2.928 1.673-7.948 2.51-9.203 2.092-0.837-0.418-2.092-1.673-2.092-3.346 0.418-2.092 3.346-5.856 10.458-8.366z" />
<glyph unicode="&#xe932;" horiz-adv-x="1309" d="M849.255 27.21c-99.556 0-350.118 14.222-599.425 142.222-2.928 1.673-4.183 5.438-2.928 8.366 1.673 2.928 5.438 4.183 8.366 2.928 298.248-152.68 607.373-140.967 633.307-139.712l317.908 300.34c2.51 2.51 6.693 2.092 8.784-0.418 2.51-2.51 2.092-6.693-0.418-8.784l-318.745-301.176c-1.255-1.255-3.346-2.51-5.438-2.51-5.438-0.837-20.078-1.255-41.412-1.255zM888.157 39.759c0 0 0 0 0 0v0z" />
<glyph unicode="&#xe933;" horiz-adv-x="1309" d="M1268.81 384.439c-1.673 0-3.346 0.837-4.601 2.092-2.51 2.51-2.092 6.275 0.418 8.784l27.19 25.935c-97.046 0.418-194.928 6.275-291.137 17.987-3.346 0.418-5.856 3.346-5.438 7.111 0.418 3.346 3.346 5.856 7.111 5.438 98.719-11.712 199.111-17.569 298.248-17.569 2.51 0 4.601-0.837 6.275-2.51s2.51-4.183 2.928-6.275c0-2.51-0.837-5.020-2.928-6.693l-33.464-31.791c-1.673-2.092-3.346-2.51-4.601-2.51zM1300.183 421.25c0 0 0 0 0 0s0 0 0 0zM1297.673 427.106c0 0 0 0 0 0v0z" />
<glyph unicode="&#xe934;" horiz-adv-x="1309" d="M154.876 225.067c-1.255 0-2.51 0.418-3.346 0.837-23.007 15.059-46.013 31.373-69.020 48.523-10.039 7.948-12.131 22.588-4.183 32.627 1.673 2.51 4.183 4.183 6.693 5.856l449.255 261.438c7.111 4.183 16.314 4.183 23.425 0 29.699-17.15 143.895-76.549 366.85-112.523 3.346-0.418 5.856-3.765 5.020-7.111-0.418-3.346-3.765-5.856-7.111-5.020-225.464 36.392-341.333 96.627-371.451 114.196-3.346 2.092-7.529 2.092-10.876 0l-448.418-261.438c-1.255-0.837-2.092-1.673-2.928-2.51-3.765-4.601-2.928-11.712 1.673-15.059 22.17-17.15 45.176-33.046 68.183-48.105 2.928-2.092 3.765-5.856 1.673-8.784-1.255-1.673-3.346-2.928-5.438-2.928z" />
<glyph unicode="&#xe935;" horiz-adv-x="1309" d="M1119.059 681.433c-2.51 0.418-4.183 2.51-3.765 4.601l28.444 209.569c0 0 10.876 60.654 69.020 58.144 3.346 0 6.275-3.346 5.856-6.693 0 0 0 0 0 0s0-0.418 0-0.418l-38.065-267.294c-0.418-2.092-2.51-3.765-4.601-3.765l-56.889 5.856z" />
<glyph unicode="&#xe936;" horiz-adv-x="1309" d="M1176.366 668.884c-0.418 0-0.837 0-0.837 0l-57.307 6.275c0 0 0 0 0 0-5.856 0.837-10.039 5.856-9.203 11.712l28.444 209.569c0 0.837 12.549 66.51 75.712 63.582 7.111-0.418 12.131-6.275 12.131-12.967 0-0.418 0-0.837 0-1.255l-38.065-267.712c-1.255-5.438-5.856-9.203-10.876-9.203zM1121.569 687.707l53.124-5.856 38.065 265.203c0 0 0 0.418 0 0.418-51.869 2.51-62.327-50.614-62.745-52.706l-28.444-207.059zM1212.758 946.217c0 0 0 0 0 0s0 0 0 0z" />
<glyph unicode="&#xe937;" horiz-adv-x="1309" d="M1127.007 663.027l37.647-3.765c2.928-0.418 5.020-2.928 5.020-5.856 0 0 0 0 0 0l-28.026-191.582c-0.418-2.928-3.346-5.438-6.275-5.020l-36.81 5.438c-2.928 0.418-5.020 0.418-4.183 3.346l27.19 192.418c0 3.346 2.51 5.438 5.438 5.020z" />
<glyph unicode="&#xe938;" horiz-adv-x="1309" d="M1135.791 450.949c-0.418 0-1.255 0-1.673 0l-37.647 5.438c-2.092 0.418-5.020 0.837-7.111 3.346-1.255 1.673-1.673 4.183-1.673 6.693l27.19 192.418c0.837 6.275 6.693 10.458 12.967 10.039l37.647-3.765c6.275-0.837 11.294-6.275 10.458-12.967v0c0 0 0-0.418 0-0.418l-28.026-191.582c-1.255-5.020-6.275-9.203-12.131-9.203zM1134.954 463.080c0 0 0 0 0 0v0zM1100.654 468.518l34.719-5.020 28.026 189.908-35.974 3.346-26.771-188.235zM1163.817 653.407v0 0z" />
<glyph unicode="&#xe939;" horiz-adv-x="1309" d="M1093.961 462.243l45.595-4.601-24.261-58.144c-4.183-6.275-10.876-0.837-11.712 2.51l-9.621 60.235z" />
<glyph unicode="&#xe93a;" horiz-adv-x="1309" d="M1110.275 390.295c-0.837 0-1.255 0-2.092 0-5.020 0.837-10.039 5.438-10.876 10.039 0 0 0 0.418 0 0.418l-9.621 60.654c-0.418 2.092 0.418 3.765 1.673 5.438 1.255 1.255 3.346 2.092 5.020 2.092l45.595-4.601c2.092 0 3.765-1.255 4.601-2.928s1.255-3.765 0.418-5.438l-24.261-58.144c0-0.418-0.418-0.837-0.418-0.837-2.51-4.601-5.856-6.693-10.039-6.693zM1109.438 403.681c0-0.418 0-0.418 0 0l20.915 48.523-29.281 2.928 8.366-51.451zM1109.438 403.681v0 0z" />
<glyph unicode="&#xe93b;" horiz-adv-x="1309" d="M1093.961 717.407c-0.418 0-0.418 0-0.837 0-3.346 0.418-5.856 3.765-5.438 7.111l23.425 159.791c0 2.092 1.673 13.804 10.039 21.752 5.856 5.020 13.386 7.111 22.17 6.275 3.346-0.418 5.856-3.346 5.856-6.693-0.418-3.346-3.346-5.856-6.693-5.856-5.438 0.418-9.621-0.418-12.967-3.346-5.438-4.601-5.856-12.967-5.856-12.967s0-0.418 0-0.418l-23.425-160.209c-0.418-3.346-3.346-5.438-6.275-5.438z" />
<glyph unicode="&#xe93c;" horiz-adv-x="1309" d="M1163.399 880.962c0 0-0.418 0-0.418 0-2.092 0.418-3.765 2.51-3.765 4.601 7.111 50.196 37.647 51.033 38.902 51.033 2.51 0 4.183-1.673 4.183-4.183 0-2.092-1.673-4.183-4.183-4.183-1.255 0-24.68-0.837-30.536-43.503-0.418-2.51-2.092-3.765-4.183-3.765z" />
<glyph unicode="&#xe93d;" horiz-adv-x="1309" d="M1114.039 483.995c-0.418 0-0.418 0-0.837 0-2.092 0.418-3.765 2.51-3.346 5.020l3.346 17.569c0.418 2.092 2.51 3.765 5.020 3.346 2.092-0.418 3.765-2.51 3.346-5.020l-3.346-17.569c-0.837-1.673-2.51-3.346-4.183-3.346z" />
<glyph unicode="&#xe93e;" horiz-adv-x="1309" d="M1120.314 519.55c0 0-0.418 0-0.418 0-2.092 0.418-3.765 2.51-3.765 4.601l14.641 109.176c0.418 2.092 2.51 3.765 4.601 3.765 2.092-0.418 3.765-2.51 3.765-4.601l-14.641-109.176c-0.418-2.092-2.092-3.765-4.183-3.765z" />
<glyph unicode="&#xe93f;" horiz-adv-x="1309" d="M242.301 186.165c0-3.234-2.622-5.856-5.856-5.856s-5.856 2.622-5.856 5.856c0 3.234 2.622 5.856 5.856 5.856s5.856-2.622 5.856-5.856z" />
<glyph unicode="&#xe940;" horiz-adv-x="1309" d="M902.797 219.21c0-3.234-2.622-5.856-5.856-5.856s-5.856 2.622-5.856 5.856c0 3.234 2.622 5.856 5.856 5.856s5.856-2.622 5.856-5.856z" />
<glyph unicode="&#xe941;" horiz-adv-x="1309" d="M776.052 299.524c0-3.234-2.622-5.856-5.856-5.856s-5.856 2.622-5.856 5.856c0 3.234 2.622 5.856 5.856 5.856s5.856-2.622 5.856-5.856z" />
<glyph unicode="&#xe942;" horiz-adv-x="1309" d="M265.725 706.112c-26.771 0-48.523 21.752-48.523 48.523s21.752 48.523 48.523 48.523 48.105-22.17 48.105-48.523-21.752-48.523-48.105-48.523zM265.725 790.191c-19.66 0-35.974-15.895-35.974-35.974s15.895-35.974 35.974-35.974 35.974 15.895 35.974 35.974-16.314 35.974-35.974 35.974z" />
<glyph unicode="&#xe943;" horiz-adv-x="1309" d="M117.229 416.23c-14.222 0-26.353 11.712-26.353 26.353s11.712 26.353 26.353 26.353c14.222 0 26.353-11.712 26.353-26.353s-12.131-26.353-26.353-26.353zM117.229 455.969c-7.529 0-13.804-6.275-13.804-13.804s6.275-13.804 13.804-13.804 13.804 6.275 13.804 13.804-6.275 13.804-13.804 13.804z" />
<glyph unicode="&#xe944;" horiz-adv-x="1309" d="M48.627 77.407c-14.222 0-26.353 11.712-26.353 26.353s11.712 26.353 26.353 26.353 26.353-11.712 26.353-26.353-12.131-26.353-26.353-26.353zM48.627 117.145c-7.529 0-13.804-6.275-13.804-13.804s6.275-13.804 13.804-13.804 13.804 6.275 13.804 13.804-6.275 13.804-13.804 13.804z" />
<glyph unicode="&#xe945;" horiz-adv-x="1309" d="M1193.516-60.633c-26.771 0-48.523 21.752-48.523 48.523s21.752 48.523 48.523 48.523c26.771 0 48.523-21.752 48.523-48.523s-21.752-48.523-48.523-48.523zM1193.516 23.446c-19.66 0-35.974-15.895-35.974-35.974 0-19.66 15.895-35.974 35.974-35.974 19.66 0 35.974 15.895 35.974 35.974s-15.895 35.974-35.974 35.974z" />
<glyph unicode="&#xe946;" horiz-adv-x="1309" d="M1252.078 323.786c-13.804 0-25.098 11.294-25.098 25.098s11.294 25.098 25.098 25.098c13.804 0 25.098-11.294 25.098-25.098s-11.294-25.098-25.098-25.098zM1252.078 361.433c-6.693 0-12.549-5.438-12.549-12.549 0-6.693 5.438-12.549 12.549-12.549 6.693 0 12.549 5.438 12.549 12.549 0 6.693-5.438 12.549-12.549 12.549z" />
<glyph unicode="&#xe947;" horiz-adv-x="1309" d="M85.438 652.57h-53.542c-3.346 0-6.275 2.928-6.275 6.275s2.928 6.275 6.275 6.275h53.961c3.346 0 6.275-2.928 6.275-6.275s-3.346-6.275-6.693-6.275z" />
<glyph unicode="&#xe948;" horiz-adv-x="1309" d="M59.085 626.635c-3.346 0-6.275 2.928-6.275 6.275v53.961c0 3.346 2.928 6.275 6.275 6.275s6.275-2.928 6.275-6.275v-53.961c0-3.346-2.928-6.275-6.275-6.275z" />
<glyph unicode="&#xe949;" horiz-adv-x="1309" d="M1009.464 573.929c-1.673 0-3.346 0.418-4.601 1.673l-38.065 38.065c-2.51 2.51-2.51 6.275 0 8.784s6.275 2.51 8.784 0l38.065-38.065c2.51-2.51 2.51-6.275 0-8.784-0.837-0.837-2.51-1.673-4.183-1.673z" />
<glyph unicode="&#xe94a;" horiz-adv-x="1309" d="M972.654 574.766c-1.673 0-3.346 0.418-4.601 1.673-2.51 2.51-2.51 6.275 0 8.784l38.065 38.065c2.51 2.51 6.275 2.51 8.784 0s2.51-6.275 0-8.784l-38.065-38.065c-0.837-1.255-2.51-1.673-4.183-1.673z" />
<glyph unicode="&#xe94b;" horiz-adv-x="1235" d="M364.466 543.353h328.050v5.573c0 19.585-15.877 35.462-35.462 35.462v0h-257.241c-19.595-0.014-35.475-15.903-35.475-35.5 0-0.336 0.005-0.67 0.014-1.003l-0.001 0.049z" />
<glyph unicode="&#xe94c;" horiz-adv-x="1235" d="M1130.767 17.993c0-18.093-216.397-32.79-483.333-32.79s-483.18 14.696-483.18 32.79 214.755 5.611 481.73 5.611 484.783 12.482 484.783-5.611z" />
<glyph unicode="&#xe94d;" horiz-adv-x="1235" d="M360.038 312.871h327.935v5.535c0 19.585-15.877 35.462-35.462 35.462v0h-257.126c-19.595-0.015-35.474-15.903-35.474-35.5 0-0.322 0.004-0.643 0.013-0.963l-0.001 0.047z" />
<glyph unicode="&#xe94e;" horiz-adv-x="1235" d="M362.252 83.534h328.050v5.535c0 19.585-15.877 35.462-35.462 35.462v0h-257.241c-0.004 0-0.008 0-0.013 0-19.585 0-35.462-15.877-35.462-35.462 0-0.336 0.005-0.67 0.014-1.003l-0.001 0.049z" />
<glyph unicode="&#xe94f;" horiz-adv-x="1235" d="M827.72 81.244s29.545 1.489 31.034 35.462v118.333s4.428 25.117-23.667 31.034l103.446 1.451s35.462-5.878 35.462-41.378v-112.264s-10.345-35.462-38.401-35.462c0-0.115-107.874 4.313-107.874 2.825z" />
<glyph unicode="&#xe950;" horiz-adv-x="1235" d="M900.247 141.060c-3.689 0-6.68 2.991-6.68 6.68v0 68.709c0 3.689 2.991 6.68 6.68 6.68s6.68-2.991 6.68-6.68v0-68.709c0-3.689-2.991-6.68-6.68-6.68v0z" />
<glyph unicode="&#xe951;" horiz-adv-x="1235" d="M828.445 310.772s29.545 1.489 31.034 35.462v118.333s4.428 25.117-23.628 31.034l103.408 1.451s35.462-5.917 35.462-41.378v-112.569s-10.345-35.462-38.401-35.462c0 0.153-107.874 4.619-107.874 3.13z" />
<glyph unicode="&#xe952;" horiz-adv-x="1235" d="M900.972 370.587c-3.689 0-6.68 2.991-6.68 6.68v0 68.709c0 3.689 2.991 6.68 6.68 6.68s6.68-2.991 6.68-6.68v0-68.709c0-3.689-2.991-6.68-6.68-6.68v0z" />
<glyph unicode="&#xe953;" horiz-adv-x="1235" d="M828.445 542.743s29.545 1.489 31.034 35.462v118.333s4.428 25.117-23.628 31.034l103.408 1.489s35.462-5.917 35.462-41.378v-112.302s-10.345-35.462-38.401-35.462c0-0.115-107.874 4.313-107.874 2.825z" />
<glyph unicode="&#xe954;" horiz-adv-x="1235" d="M900.972 602.673c-3.689 0-6.68 2.991-6.68 6.68v0 68.709c0 3.689 2.991 6.68 6.68 6.68s6.68-2.991 6.68-6.68v0-68.709c0-3.689-2.991-6.68-6.68-6.68v0z" />
<glyph unicode="&#xe955;" horiz-adv-x="1235" d="M783.402 212.059c-14.358-0.083-26.363-10.063-29.542-23.459l-0.042-0.207h-194.295c-3.689 0-6.68-2.991-6.68-6.68s2.991-6.68 6.68-6.68v0h194.295c3.172-13.608 15.198-23.59 29.555-23.59 16.739 0 30.309 13.57 30.309 30.309 0 16.729-13.553 30.292-30.278 30.308h-0.002zM783.402 164.764c-0.011 0-0.025 0-0.038 0-9.381 0-16.987 7.605-16.987 16.987s7.605 16.987 16.987 16.987c9.381 0 16.987-7.605 16.987-16.987 0-0.013 0-0.027 0-0.040v0.002c-0.022-9.352-7.597-16.927-16.946-16.948h-0.002z" />
<glyph unicode="&#xe956;" horiz-adv-x="1235" d="M784.128 441.549c-14.363-0.009-26.389-10.008-29.505-23.424l-0.040-0.205h-194.333c-3.689 0-6.68-2.991-6.68-6.68s2.991-6.68 6.68-6.68v0h194.333c3.158-13.627 15.192-23.628 29.563-23.628 16.739 0 30.309 13.57 30.309 30.309s-13.57 30.309-30.309 30.309c-0.006 0-0.013 0-0.019 0h0.001zM784.128 394.292c-9.36 0-16.948 7.588-16.948 16.948s7.588 16.948 16.948 16.948c9.36 0 16.948-7.588 16.948-16.948v0c0-9.36-7.588-16.948-16.948-16.948v0z" />
<glyph unicode="&#xe957;" horiz-adv-x="1235" d="M560.249 636.569h194.333c3.158-13.627 15.192-23.628 29.563-23.628 16.739 0 30.309 13.57 30.309 30.309s-13.57 30.309-30.309 30.309c-14.371 0-26.406-10.002-29.523-23.424l-0.040-0.205h-194.333c-3.689 0-6.68-2.991-6.68-6.68s2.991-6.68 6.68-6.68v0zM784.128 660.198c0.011 0 0.025 0 0.038 0 9.381 0 16.987-7.605 16.987-16.987s-7.605-16.987-16.987-16.987c-9.381 0-16.987 7.605-16.987 16.987 0 0.013 0 0.027 0 0.040v-0.002c0.022 9.352 7.597 16.927 16.946 16.948h0.002z" />
<glyph unicode="&#xe958;" horiz-adv-x="1235" d="M139.213 817.657c-0.022 0-0.048 0-0.074 0-1.293 0-2.495 0.385-3.5 1.046l0.024-0.015c-1.902 1.199-3.147 3.289-3.147 5.669 0 1.308 0.376 2.528 1.025 3.558l-0.016-0.028c14.849 23.743 40.653 37.561 70.809 37.905 14.497-0.359 27.938-4.572 39.43-11.647l-0.342 0.196c21.491 39.584 52.83 62.64 88.902 65.159 1.684 0.099 3.653 0.156 5.635 0.156 34.547 0 65.074-17.215 83.469-43.534l0.218-0.329c5.958-8.13 10.041-17.99 11.419-28.698l0.033-0.313c0.021-0.201 0.034-0.435 0.034-0.671 0-3.691-2.992-6.684-6.684-6.684-3.403 0-6.212 2.543-6.63 5.833l-0.003 0.033c-1.163 8.723-4.469 16.508-9.366 23.029l0.091-0.126c-16.1 23.128-42.555 38.076-72.501 38.076-1.701 0-3.391-0.048-5.068-0.143l0.232 0.011c-33.133-2.367-62.029-25.27-81.344-64.396-1.105-2.223-3.361-3.724-5.966-3.724-1.541 0-2.96 0.525-4.087 1.406l0.015-0.011s-17.483 13.169-37.447 12.902c-14.963-0.191-42.638-4.504-59.586-31.645-1.203-1.827-3.245-3.016-5.565-3.016-0.003 0-0.006 0-0.009 0v0z" />
<glyph unicode="&#xe959;" horiz-adv-x="1235" d="M140.969 641.952c-8.474 0-54.548 1.603-76 35.614-17.788 28.171-14.773 68.404 7.138 95.85s56.189 35.385 94.246 21.834c2.548-0.982 4.322-3.41 4.322-6.253 0-3.691-2.992-6.684-6.684-6.684-0.753 0-1.476 0.124-2.152 0.354l0.047-0.014c-32.332 11.452-61.075 5.039-79.359-17.559s-21.109-56.953-6.298-80.39c19.086-30.232 65.159-29.392 65.618-29.354 0.036 0.001 0.078 0.001 0.12 0.001 3.638 0 6.604-2.875 6.751-6.477v-0.013c0.002-0.057 0.003-0.124 0.003-0.191 0-3.663-2.949-6.638-6.603-6.68h-0.004z" />
<glyph unicode="&#xe95a;" horiz-adv-x="1235" d="M693.24 729.174c0-3.668-2.974-6.642-6.642-6.642s-6.642 2.974-6.642 6.642c0 3.668 2.974 6.642 6.642 6.642s6.642-2.974 6.642-6.642z" />
<glyph unicode="&#xe95b;" horiz-adv-x="1235" d="M201.548 648.822c0-3.668-2.974-6.642-6.642-6.642s-6.642 2.974-6.642 6.642c0 3.668 2.974 6.642 6.642 6.642s6.642-2.974 6.642-6.642z" />
<glyph unicode="&#xe95c;" horiz-adv-x="1235" d="M436.61 821.283c0-3.668-2.974-6.642-6.642-6.642s-6.642 2.974-6.642 6.642c0 3.668 2.974 6.642 6.642 6.642s6.642-2.974 6.642-6.642z" />
<glyph unicode="&#xe95d;" horiz-adv-x="1235" d="M746.070 267.409c0-3.668-2.974-6.642-6.642-6.642s-6.642 2.974-6.642 6.642c0 3.668 2.974 6.642 6.642 6.642s6.642-2.974 6.642-6.642z" />
<glyph unicode="&#xe95e;" horiz-adv-x="1235" d="M303.161 427.082c0-3.731-3.025-6.756-6.756-6.756s-6.756 3.025-6.756 6.756c0 3.731 3.025 6.756 6.756 6.756s6.756-3.025 6.756-6.756z" />
<glyph unicode="&#xe95f;" horiz-adv-x="1235" d="M324.576 183.163c-3.689 0-6.68 2.991-6.68 6.68v0 31.606c0.043 13.159 10.699 23.814 23.853 23.857h211.629c3.689 0 6.68-2.991 6.68-6.68s-2.991-6.68-6.68-6.68v0h-211.625c-5.789-0.022-10.476-4.709-10.497-10.495v-31.608c0-3.689-2.991-6.68-6.68-6.68v0z" />
<glyph unicode="&#xe960;" horiz-adv-x="1235" d="M427.22 672.718h-32.293c-3.689 0-6.68 2.991-6.68 6.68s2.991 6.68 6.68 6.68v0h32.293c0.275-0.006 0.599-0.010 0.923-0.010 9.339 0 18.011 2.857 25.189 7.744l-0.156-0.1c22.14 15.612 18.017 43.134 17.826 44.279-0.057 0.327-0.089 0.704-0.089 1.088 0 3.696 2.996 6.693 6.693 6.693 3.312 0 6.062-2.406 6.598-5.565l0.006-0.039c0.229-1.489 5.764-36.836-23.361-57.258-9.162-6.383-20.527-10.198-32.783-10.198-0.298 0-0.594 0.002-0.891 0.007l0.045-0.001z" />
<glyph unicode="&#xe961;" horiz-adv-x="1235" d="M93.559 728.64c-3.699 0.016-6.691 3.017-6.691 6.718 0 0.85 0.158 1.664 0.446 2.413l-0.016-0.046c4.13 11.791 12.701 21.132 23.656 26.185l0.278 0.115c21.72 9.467 46.951-0.42 48.020-0.84 2.482-1.012 4.2-3.407 4.2-6.203 0-3.69-2.991-6.681-6.681-6.681-0.894 0-1.747 0.176-2.526 0.494l0.045-0.016s-21.224 8.169-37.752 0.763c-7.927-3.703-13.945-10.38-16.693-18.559l-0.065-0.222c-1.031-2.441-3.405-4.123-6.171-4.123-0.018 0-0.036 0-0.054 0h0.003z" />
<glyph unicode="&#xe962;" horiz-adv-x="1235" d="M200.441 253.934c-25.298 0-45.806 20.508-45.806 45.806s20.508 45.806 45.806 45.806c25.298 0 45.806-20.508 45.806-45.806v0c0-25.298-20.508-45.806-45.806-45.806v0zM200.441 333.713c-18.974 0-34.355-15.381-34.355-34.355s15.381-34.355 34.355-34.355c18.974 0 34.355 15.381 34.355 34.355v0c0 18.974-15.381 34.355-34.355 34.355v0z" />
<glyph unicode="&#xe963;" horiz-adv-x="1235" d="M630.715 836.896c-13.577 0-24.583 11.006-24.583 24.583s11.006 24.583 24.583 24.583c13.577 0 24.583-11.006 24.583-24.583v0c0-13.577-11.006-24.583-24.583-24.583v0zM630.715 874.571c-7.252 0-13.131-5.879-13.131-13.131s5.879-13.131 13.131-13.131c7.252 0 13.131 5.879 13.131 13.131v0c0 7.252-5.879 13.131-13.131 13.131v0z" />
<glyph unicode="&#xe964;" horiz-adv-x="1235" d="M1089.236 119.836c-13.577 0-24.583 11.006-24.583 24.583s11.006 24.583 24.583 24.583c13.577 0 24.583-11.006 24.583-24.583v0c0-13.577-11.006-24.583-24.583-24.583v0zM1089.236 157.512c-7.252 0-13.131-5.879-13.131-13.131s5.879-13.131 13.131-13.131c7.252 0 13.131 5.879 13.131 13.131v0c0 0.011 0 0.025 0 0.038 0 7.231-5.862 13.093-13.093 13.093-0.013 0-0.027 0-0.040 0h0.002z" />
<glyph unicode="&#xe965;" horiz-adv-x="1235" d="M29.621 857.241c-0.011 0-0.025 0-0.038 0-12.965 0-23.476 10.51-23.476 23.476s10.51 23.476 23.476 23.476c12.952 0 23.454-10.489 23.476-23.435v-0.002c0-0.023 0-0.050 0-0.076 0-12.944-10.493-23.438-23.438-23.438 0 0 0 0 0 0v0zM29.621 892.703c-0.011 0-0.025 0-0.038 0-6.641 0-12.024-5.383-12.024-12.024s5.383-12.024 12.024-12.024c6.627 0 12.002 5.362 12.024 11.984v0.002c0 0.034 0.001 0.074 0.001 0.115 0 6.628-5.362 12.003-11.984 12.024h-0.002z" />
<glyph unicode="&#xe966;" horiz-adv-x="1235" d="M1055.759 788.723h-19.391v20.842c0 3.162-2.564 5.726-5.726 5.726s-5.726-2.564-5.726-5.726v0-20.842h-20.117c-3.162 0-5.726-2.564-5.726-5.726s2.564-5.726 5.726-5.726v0h20.117v-18.666c0-3.162 2.564-5.726 5.726-5.726s5.726 2.564 5.726 5.726v0 18.666h19.391c3.162 0 5.726 2.564 5.726 5.726s-2.564 5.726-5.726 5.726v0z" />
<glyph unicode="&#xe967;" horiz-adv-x="1235" d="M243.919 607.94c-1.048 1.039-2.491 1.681-4.084 1.681s-3.036-0.642-4.085-1.682v0l-14.811-14.849-14.2 14.2c-0.996 0.861-2.304 1.386-3.735 1.386-3.162 0-5.726-2.564-5.726-5.726 0-1.421 0.518-2.721 1.375-3.722l-0.007 0.008 14.2-14.2-13.131-12.902c-1.114-1.053-1.808-2.542-1.808-4.192 0-3.183 2.581-5.764 5.764-5.764 1.603 0 3.053 0.654 4.098 1.71v0.001l13.246 13.246 13.704-13.704c1.035-1.037 2.466-1.678 4.046-1.68v0c1.482 0.072 2.812 0.669 3.821 1.607l-0.004-0.003c1.039 1.048 1.681 2.491 1.681 4.084s-0.642 3.036-1.682 4.085v0l-13.704 13.704 14.696 14.696c1.102 1.058 1.786 2.543 1.786 4.188 0 1.47-0.547 2.812-1.448 3.835l0.005-0.006z" />
<glyph unicode="&#xe968;" horiz-adv-x="1235" d="M1109.772 404.789l14.696 14.696c1.080 1.051 1.75 2.518 1.75 4.142 0 3.19-2.586 5.777-5.777 5.777-1.567 0-2.988-0.624-4.028-1.636l-14.81-14.81-14.2 14.124c-1.020 0.952-2.393 1.537-3.903 1.537-3.162 0-5.726-2.564-5.726-5.726 0-1.51 0.585-2.884 1.54-3.907l14.197-14.197-13.131-13.169c-1.035-1.036-1.675-2.466-1.675-4.046 0-3.16 2.561-5.723 5.72-5.726v0c0.017 0 0.036 0 0.056 0 1.524 0 2.913 0.58 3.957 1.531l-0.005-0.004 13.246 13.246 13.704-13.704c1.014-0.997 2.398-1.619 3.927-1.641h0.004c1.489 0.069 2.823 0.682 3.819 1.643l-0.002-0.002c1.046 1.038 1.694 2.476 1.694 4.065s-0.648 3.028-1.693 4.065v0z" />
<glyph unicode="&#xe969;" horiz-adv-x="1235" d="M1125.881 30.094h-222.046v44.47h30.27c25.711 0.022 46.548 20.859 46.57 46.568v53.443c46.869 18.44 79.439 63.308 79.439 115.783 0 52.201-32.231 96.875-77.879 115.205l-0.835 0.296v6.604c44.874 19.379 75.709 63.251 75.709 114.325s-30.835 94.946-74.904 114.015l-0.804 0.31v47.944c-0.043 25.702-20.867 46.526-46.566 46.57h-187.046c-3.689 0-6.68-2.991-6.68-6.68s2.991-6.68 6.68-6.68v0h76.115c16.681 0 28.782-11.184 28.782-26.72v-119.593c0-15.269-11.871-26.72-28.209-26.72h-126.769v2.939c0 0.045 0 0.099 0 0.153 0 22.881-18.538 41.433-41.415 41.455h-260.029c-22.856-0.043-41.373-18.56-41.417-41.412v-3.134h-18.437c-18.332 0.022-33.188 14.877-33.21 33.207v59.55h132.838c43.676 1.451 78.711 36.485 80.157 80.026l0.004 0.135h147.458c3.689 0 6.68 2.991 6.68 6.68s-2.991 6.68-6.68 6.68v0h-148.183c-1.81 12.033-6.091 22.802-12.32 32.163l0.181-0.29c-14.727 21.798-39.347 35.94-67.27 35.94-0.641 0-1.279-0.007-1.916-0.022l0.095 0.002c-3.689 0-6.68-2.991-6.68-6.68s2.991-6.68 6.68-6.68v0c0.774 0.033 1.683 0.051 2.596 0.051 36.493 0 66.076-29.583 66.076-66.076 0-9.809-2.137-19.119-5.972-27.489l0.169 0.412c-19.811-44.203-60.502-41.646-62.22-41.531h-215.786c-3.689 0-6.68-2.991-6.68-6.68s2.991-6.68 6.68-6.68v0h70.733v-59.319c0.043-25.702 20.867-46.526 46.566-46.57h18.441v-32.637h-18.437c-25.711-0.022-46.548-20.859-46.57-46.568v-0.002c0-3.689 2.991-6.68 6.68-6.68s6.68 2.991 6.68 6.68v0c0.022 18.332 14.877 33.188 33.207 33.21h487.61c16.681 0 28.782-11.146 28.782-26.72v-119.669c0-15.269-11.871-26.72-28.209-26.72h-126.883v3.245c0 22.874-18.543 41.417-41.417 41.417v0h-260.027c-22.865-0.022-41.395-18.552-41.417-41.414v-2.903h-18.437c-18.332 0.022-33.188 14.877-33.21 33.207v55.809c0 3.689-2.991 6.68-6.68 6.68s-6.68-2.991-6.68-6.68v0-55.578c0.022-25.711 20.859-46.548 46.568-46.57h18.439v-30.003h-19.086c-25.702-0.043-46.526-20.867-46.57-46.566v-106.389c0.043-25.702 20.867-46.526 46.566-46.57h18.479v-43.669l-183.645 0.229c-3.689 0-6.68-2.991-6.68-6.68s2.991-6.68 6.68-6.68v0l955.405-1.107c3.689 0 6.68 2.991 6.68 6.68s-2.991 6.68-6.68 6.68v0zM967.315 184.156c-8.596-2.64-18.498-4.258-28.746-4.464l-0.112-0.002v37.943c0 3.689-2.991 6.68-6.68 6.68s-6.68-2.991-6.68-6.68v0-68.709c0-3.689 2.991-6.68 6.68-6.68s6.68 2.991 6.68 6.68v0 17.406c10.315 0.148 20.239 1.532 29.721 4.009l-0.863-0.192v-49.051c-0.022-18.332-14.877-33.188-33.207-33.21h-78.751c6.253 6.903 10.081 16.105 10.081 26.2 0 0.183-0.001 0.365-0.004 0.548v-0.028 119.554c0.002 0.149 0.003 0.325 0.003 0.501 0 10.128-3.89 19.348-10.257 26.246l0.024-0.026h78.901c18.332-0.022 33.188-14.877 33.21-33.207v-0.002zM1046.789 290.312c-0.062-44.971-26.874-83.664-65.376-101.026l-0.7-0.282v38.515c-0.022 25.711-20.859 46.548-46.568 46.57h-29.509v30.003h30.232c25.711 0.022 46.548 20.859 46.57 46.568v40.655c38.807-17.811 65.286-56.307 65.35-100.994v-0.009zM855.929 490.256h78.901c18.332-0.022 33.188-14.877 33.21-33.207v-35.387c-8.505-2.947-18.346-4.926-28.559-5.521l-0.299-0.014v30.957c0 3.689-2.991 6.68-6.68 6.68s-6.68-2.991-6.68-6.68v0-68.709c0-3.689 2.991-6.68 6.68-6.68s6.68 2.991 6.68 6.68v0 22.674c10.399-0.309 20.286-2.003 29.642-4.905l-0.784 0.209v-45.806c-0.022-18.332-14.877-33.188-33.207-33.21h-78.903c6.253 6.903 10.081 16.105 10.081 26.2 0 0.183-0.001 0.365-0.004 0.548v-0.028 119.631c0.002 0.153 0.003 0.334 0.003 0.515 0 10.049-3.829 19.203-10.108 26.083l0.027-0.030zM981.4 626.377c37.26-18.346 62.446-56.046 62.446-99.629s-25.186-81.283-61.797-99.339l-0.649-0.289v29.927c-0.022 25.711-20.859 46.548-46.568 46.57h-30.234v32.446h30.232c25.702 0.043 46.526 20.867 46.57 46.566v0.004zM934.83 722.265c18.332-0.022 33.188-14.877 33.21-33.207v-43.251c-8.518 2.639-18.379 4.403-28.57 4.913l-0.288 0.011v28.285c0 3.689-2.991 6.68-6.68 6.68s-6.68-2.991-6.68-6.68v0-68.709c0-3.689 2.991-6.68 6.68-6.68s6.68 2.991 6.68 6.68v0 27.064c10.51-0.603 20.351-2.596 29.625-5.804l-0.767 0.231v-49.165c-0.022-18.332-14.877-33.188-33.207-33.21h-78.903c6.254 6.924 10.080 16.144 10.080 26.258 0 0.162-0.001 0.325-0.003 0.487v-0.025 119.554c0.002 0.136 0.003 0.296 0.003 0.457 0 10.142-3.889 19.376-10.258 26.291l0.025-0.027zM368.206 552.362c0.022 15.486 12.57 28.035 28.054 28.056h260.029c15.486-0.022 28.035-12.57 28.056-28.054v-3.132h-316.14zM368.206 503.616v32.446h522.955v-32.637zM368.206 320.391c0.022 15.486 12.57 28.035 28.054 28.056h260.029c15.495 0 28.056-12.561 28.056-28.056v0-2.901h-316.14zM335.646 87.924c-18.332 0.022-33.188 14.877-33.21 33.207v106.387c0.022 18.332 14.877 33.188 33.207 33.21h347.367c3.689 0 6.68 2.991 6.68 6.68s-2.991 6.68-6.68 6.68v0h-314.804v30.003h522.955v-30.003h-128.449c-3.689 0-6.68-2.991-6.68-6.68s2.991-6.68 6.68-6.68v0h60.579c16.681 0 28.782-11.146 28.782-26.72v-119.669c0-15.269-11.871-26.72-28.247-26.72h-126.845v2.939c-0.043 22.849-18.565 41.357-41.414 41.378h-260.067c-22.844-0.022-41.357-18.534-41.378-41.376v-2.941zM683.621 90.863v-2.939h-316.293v2.939c0 15.474 12.544 28.018 28.018 28.018v0h260.065c0.045 0 0.099 0 0.153 0 15.482 0 28.035-12.54 28.056-28.017v-0.002zM367.328 74.564h522.955v-44.47l-522.955 0.611z" />
<glyph unicode="&#xe96a;" horiz-adv-x="1235" d="M111.004 17.764h-36.95c-3.689 0-6.68 2.991-6.68 6.68s2.991 6.68 6.68 6.68v0h36.95c3.689 0 6.68-2.991 6.68-6.68s-2.991-6.68-6.68-6.68v0z" />
<glyph unicode="&#xe96b;" horiz-adv-x="1235" d="M1219.593 17.764h-67.984c-3.689 0-6.68 2.991-6.68 6.68s2.991 6.68 6.68 6.68v0h67.984c3.689 0 6.68-2.991 6.68-6.68s-2.991-6.68-6.68-6.68v0z" />
<glyph unicode="&#xe96c;" horiz-adv-x="1235" d="M154.215 25.399c0-3.963-3.213-7.176-7.176-7.176s-7.176 3.213-7.176 7.176c0 3.963 3.213 7.176 7.176 7.176s7.176-3.213 7.176-7.176z" />
<glyph unicode="&#xe96d;" horiz-adv-x="1235" d="M293.16 737.878c-0.878 17.559-2.787 56.838-3.817 78.023-0.010 0.194-0.016 0.421-0.016 0.649 0 7.497 6.071 13.576 13.565 13.589h0.001c0 0 0.001 0 0.001 0 7.484 0 13.551-6.067 13.551-13.551 0-0.363-0.014-0.722-0.042-1.078l0.003 0.047-5.726-77.871c-0.345-4.467-4.032-7.968-8.546-8.016h-0.234c-0.016 0-0.034 0-0.052 0-4.632 0-8.419 3.619-8.688 8.183l-0.001 0.024z" />
<glyph unicode="&#xe96e;" horiz-adv-x="1235" d="M311.712 707.76c0-5.228-4.238-9.467-9.467-9.467s-9.467 4.238-9.467 9.467c0 5.228 4.238 9.467 9.467 9.467s9.467-4.238 9.467-9.467z" />
<glyph unicode="&#xe96f;" horiz-adv-x="1227" d="M227.441 905.963c-25.202 0-45.633-20.43-45.633-45.633s20.43-45.633 45.633-45.633c25.202 0 45.633 20.43 45.633 45.633v0c0 25.202-20.43 45.633-45.633 45.633v0zM227.441 825.725c-18.902 0-34.225 15.323-34.225 34.225s15.323 34.225 34.225 34.225c18.902 0 34.225-15.323 34.225-34.225v0c0-18.902-15.323-34.225-34.225-34.225v0z" />
<glyph unicode="&#xe970;" horiz-adv-x="1227" d="M67.841 499.907c-13.525 0-24.49-10.964-24.49-24.49s10.964-24.49 24.49-24.49c13.525 0 24.49 10.964 24.49 24.49v0c0 13.525-10.964 24.49-24.49 24.49v0zM67.841 462.298c-0.003 0-0.007 0-0.011 0-7.225 0-13.081 5.857-13.081 13.081 0 7.221 5.85 13.075 13.069 13.081h0.023c7.225 0 13.081-5.857 13.081-13.081s-5.857-13.081-13.081-13.081v0z" />
<glyph unicode="&#xe971;" horiz-adv-x="1227" d="M1186.529 611.023c-12.916 0-23.387-10.471-23.387-23.387s10.471-23.387 23.387-23.387v0c12.916 0 23.387 10.471 23.387 23.387s-10.471 23.387-23.387 23.387v0zM1186.529 575.62c-6.616 0-11.979 5.363-11.979 11.979s5.363 11.979 11.979 11.979v0c0.209 0.013 0.453 0.020 0.699 0.020 6.595 0 11.941-5.346 11.941-11.941 0-6.367-4.983-11.57-11.262-11.922l-0.031-0.001c-0.201-0.013-0.436-0.020-0.673-0.020s-0.472 0.007-0.705 0.022l0.032-0.002z" />
<glyph unicode="&#xe972;" horiz-adv-x="1227" d="M206.831 320.456h-19.318v20.763c0 3.15-2.554 5.704-5.704 5.704s-5.704-2.554-5.704-5.704v0-20.763h-20.040c-3.15 0-5.704-2.554-5.704-5.704s2.554-5.704 5.704-5.704v0h20.040v-18.595c0-3.15 2.554-5.704 5.704-5.704s5.704 2.554 5.704 5.704v0 18.595h19.318c3.15 0 5.704 2.554 5.704 5.704s-2.554 5.704-5.704 5.704v0z" />
<glyph unicode="&#xe973;" horiz-adv-x="1227" d="M940.606 862.498h-19.318v20.839c0 3.15-2.554 5.704-5.704 5.704s-5.704-2.554-5.704-5.704v0-20.839h-20.040c-3.15 0-5.704-2.554-5.704-5.704s2.554-5.704 5.704-5.704v0h20.040v-18.595c0-3.15 2.554-5.704 5.704-5.704s5.704 2.554 5.704 5.704v0 18.595h19.318c3.15 0 5.704 2.554 5.704 5.704s-2.554 5.704-5.704 5.704v0z" />
<glyph unicode="&#xe974;" horiz-adv-x="1227" d="M166.065 646.655l13.614-13.576c1.036-1.031 2.464-1.668 4.040-1.668 3.163 0 5.727 2.564 5.727 5.727 0 1.586-0.645 3.022-1.687 4.059v0h-0.019l-13.614 13.614 14.679 14.679c1.076 1.047 1.743 2.508 1.743 4.126 0 3.178-2.577 5.755-5.755 5.755-1.561 0-2.976-0.621-4.013-1.63l0.001 0.001-14.793-14.831-14.184 14.184c-0.984 0.829-2.266 1.333-3.665 1.333-3.15 0-5.704-2.554-5.704-5.704 0-1.385 0.494-2.655 1.315-3.643l-0.008 0.009 14.184-14.184-13.043-13.081c-1.033-1.032-1.673-2.459-1.673-4.035 0-3.070 2.425-5.573 5.464-5.699h0.011c0.112-0.008 0.243-0.013 0.375-0.013 1.491 0 2.846 0.584 3.849 1.536l-0.002-0.002z" />
<glyph unicode="&#xe975;" horiz-adv-x="1227" d="M1088.342 426.591c-1.044 1.035-2.482 1.675-4.069 1.675s-3.025-0.64-4.069-1.675v0l-14.755-14.793-14.146 14.146c-0.993 0.858-2.296 1.381-3.721 1.381-3.15 0-5.704-2.554-5.704-5.704 0-1.416 0.516-2.711 1.369-3.708l-0.006 0.008 14.146-14.146-13.081-13.119c-1.031-1.032-1.668-2.457-1.668-4.031 0-3.149 2.551-5.701 5.699-5.704v0c0.050-0.002 0.11-0.003 0.169-0.003 1.482 0 2.829 0.58 3.826 1.526l13.193 13.193 13.652-13.652c0.986-1.033 2.373-1.675 3.911-1.675 0.042 0 0.084 0 0.126 0.001h-0.006c0.049-0.002 0.106-0.002 0.163-0.002 1.51 0 2.877 0.611 3.868 1.6v0c1.044 1.040 1.69 2.479 1.69 4.069 0 1.58-0.639 3.012-1.672 4.050v0h-0.019l-13.652 13.652 14.641 14.641c1.103 1.054 1.789 2.538 1.789 4.181 0 1.549-0.609 2.955-1.601 3.993l0.002-0.002z" />
<glyph unicode="&#xe976;" horiz-adv-x="1227" d="M1032.214 44.15c0-38.56-174.051-69.818-388.791-69.818s-388.791 31.258-388.791 69.818c0 21.752 55.368 41.184 142.146 53.961l231.967-91.836 248.090 93.699c94.384-12.739 155.38-33.008 155.38-55.824z" />
<glyph unicode="&#xe977;" horiz-adv-x="1227" d="M958.289 607.715l-328.556-136.898-299.351 131.308 170.553 76.321c-0.913-66.624 56.242-123.323 123.893-123.323 0.046 0 0.101 0 0.156 0 72.15 0 130.65 58.447 130.734 130.578v0.16c0 2.434 0 4.867-0.19 7.263z" />
<glyph unicode="&#xe978;" horiz-adv-x="1227" d="M635.893 407.615l89.668-106.933c3.463-3.966 8.527-6.457 14.174-6.457 3.904 0 7.529 1.191 10.533 3.229l-0.066-0.042 240.941 107.693 0.684 36.734-251.893-100.62-106.781 110.888z" />
<glyph unicode="&#xe979;" horiz-adv-x="1227" d="M283.836 411.494l238.85-118.113c2.687-1.363 5.858-2.161 9.216-2.161 6.705 0 12.666 3.183 16.455 8.12l0.036 0.049 82.709 108.226-5.932 46.774-96.742-122.296-244.592 108.606z" />
<glyph unicode="&#xe97a;" horiz-adv-x="1227" d="M995.289 368.143c-3.654 0-6.617 2.962-6.617 6.617v0 63.658c0 3.654 2.962 6.617 6.617 6.617s6.617-2.962 6.617-6.617v-63.658c0-3.654-2.962-6.617-6.617-6.617v0z" />
<glyph unicode="&#xe97b;" horiz-adv-x="1227" d="M615.472 644.107l-4.487 92.102c-0.011 0.222-0.017 0.482-0.017 0.743 0 8.575 6.725 15.578 15.188 16.025l0.040 0.002h0.761c8.821 0 15.971-7.151 15.971-15.971v0-1.217l-6.769-91.95c-0.367-5.295-4.728-9.457-10.072-9.507h-0.233c-5.519 0.010-10.031 4.31-10.38 9.742l-0.002 0.031z" />
<glyph unicode="&#xe97c;" horiz-adv-x="1227" d="M638.334 610.438c0-6.191-5.019-11.21-11.21-11.21s-11.21 5.019-11.21 11.21c0 6.191 5.019 11.21 11.21 11.21s11.21-5.019 11.21-11.21z" />
<glyph unicode="&#xe97d;" horiz-adv-x="1227" d="M515.765 632.433c0-3.948-3.201-7.149-7.149-7.149s-7.149 3.201-7.149 7.149c0 3.948 3.201 7.149 7.149 7.149s7.149-3.201 7.149-7.149z" />
<glyph unicode="&#xe97e;" horiz-adv-x="1227" d="M324.107 759.748c0-3.948-3.201-7.149-7.149-7.149s-7.149 3.201-7.149 7.149c0 3.948 3.201 7.149 7.149 7.149s7.149-3.201 7.149-7.149z" />
<glyph unicode="&#xe97f;" horiz-adv-x="1227" d="M730.657 677.267c-0.011 0-0.025 0-0.038 0-2.927 0-5.302 2.362-5.324 5.284v0.040c-0.065 54.334-44.083 98.366-98.406 98.453h-0.008c-2.94 0-5.324 2.384-5.324 5.324s2.384 5.324 5.324 5.324v0c60.228-0.067 109.033-48.873 109.1-109.094v-0.006c0-0.011 0-0.025 0-0.038 0-2.906-2.345-5.264-5.246-5.286h-0.002z" />
<glyph unicode="&#xe980;" horiz-adv-x="1227" d="M885.010 182.227v64.646c0.032 1.697 1.059 3.146 2.521 3.792l0.027 0.011 52.592 21.866c0.472 0.201 1.021 0.317 1.598 0.317 2.288 0 4.147-1.837 4.182-4.117v-66.855c-0.013-1.745-1.122-3.227-2.672-3.794l-0.028-0.009-52.592-19.508c-0.442-0.175-0.953-0.277-1.489-0.277-2.213 0-4.020 1.734-4.139 3.917v0.011z" />
<glyph unicode="&#xe981;" horiz-adv-x="1227" d="M899.422 158.688c-3.654 0-6.617 2.962-6.617 6.617v0 15.743c0 3.654 2.962 6.617 6.617 6.617s6.617-2.962 6.617-6.617v0-6.236l47.686 17.683v61.566l-51.755-21.523c-0.775-0.343-1.679-0.543-2.629-0.543-3.663 0-6.632 2.969-6.632 6.632 0 2.774 1.703 5.15 4.121 6.14l0.044 0.016 60.844 25.326c0.751 0.315 1.624 0.498 2.54 0.498 1.376 0 2.655-0.413 3.721-1.121l-0.025 0.015c1.777-1.212 2.928-3.227 2.928-5.511 0-0.001 0-0.002 0-0.003v0-76.055c0-0.005 0-0.011 0-0.017 0-2.828-1.785-5.238-4.29-6.167l-0.045-0.015-60.844-22.588c-0.675-0.271-1.456-0.436-2.273-0.456h-0.008z" />
<glyph unicode="&#xe982;" horiz-adv-x="1227" d="M1001.754 353.616c0-3.948-3.201-7.149-7.149-7.149s-7.149 3.201-7.149 7.149c0 3.948 3.201 7.149 7.149 7.149s7.149-3.201 7.149-7.149z" />
<glyph unicode="&#xe983;" horiz-adv-x="1227" d="M1080.623 501.238l-104.917 103.054 88.756 96.551c2.943 3.198 4.747 7.484 4.747 12.191 0 7.412-4.473 13.78-10.867 16.55l-0.117 0.045-303.154 128c-2.564 1.103-5.548 1.745-8.682 1.745-6.751 0-12.806-2.976-16.926-7.689l-0.022-0.026-39.663-46.203c-18.060 9.585-39.484 15.212-62.223 15.212-0.197 0-0.394 0-0.59-0.001h0.030c-15.72-0.066-30.77-2.847-44.734-7.898l0.927 0.293-33.768 39.092c-3.828 4.407-9.442 7.178-15.702 7.178-3.043 0-5.934-0.655-8.538-1.831l0.131 0.053-190.669-82.786c-2.382-1.037-4.017-3.37-4.017-6.085 0-3.654 2.962-6.617 6.617-6.617 0.022 0 0.044 0 0.066 0h-0.003c0.952 0.004 1.853 0.214 2.664 0.587l-0.040-0.017 190.669 83.052c0.918 0.424 1.993 0.672 3.125 0.672 2.285 0 4.334-1.007 5.728-2.602l0.008-0.009 30.802-35.67c-46.186-22.234-77.794-68.111-79.169-121.509l-0.004-0.178-174.583-77.994-87.197 94.878c-1.305 1.363-2.109 3.216-2.109 5.256 0 3.15 1.915 5.853 4.645 7.008l0.050 0.019 42.553 18.519c2.404 1.028 4.058 3.372 4.058 6.103 0 3.656-2.963 6.619-6.619 6.619-0.925 0-1.805-0.19-2.604-0.532l0.043 0.016-0.164-0.072-42.553-18.523c-7.488-3.294-12.621-10.648-12.621-19.2 0-5.482 2.109-10.472 5.561-14.202l-0.013 0.014 86.132-93.661-99.936-98.871c-2.884-2.838-4.671-6.783-4.671-11.145 0-6.183 3.59-11.528 8.799-14.064l0.093-0.041 66.89-32.133c-0.009-0.091-0.014-0.197-0.014-0.304s0.005-0.213 0.015-0.317l-0.001 0.013v-177.512c0-3.654 2.962-6.617 6.617-6.617s6.617 2.962 6.617 6.617v0 171.922l122.524-58.828c0.755-0.325 1.635-0.514 2.558-0.514 3.654 0 6.617 2.962 6.617 6.617 0 2.486-1.371 4.652-3.399 5.783l-0.034 0.017-202.61 97.312c-0.713 0.325-1.223 0.986-1.33 1.776l-0.001 0.012c-0.021 0.119-0.033 0.256-0.033 0.396 0 0.665 0.275 1.266 0.717 1.695l0.001 0.001 101.267 100.050 301.937-129.901-94.536-119.824c-0.435-0.569-1.114-0.932-1.877-0.932-0.383 0-0.744 0.091-1.064 0.253l0.013-0.006-63.239 30.422c-0.943 0.549-2.076 0.873-3.284 0.873-3.654 0-6.617-2.962-6.617-6.617 0-2.783 1.718-5.165 4.152-6.143l0.045-0.016 63.201-30.422c1.992-0.965 4.33-1.538 6.8-1.559h0.007c0.004 0 0.008 0 0.013 0 4.954 0 9.366 2.322 12.206 5.937l0.025 0.033 90.505 114.614v-433.017l-328.594 122.068c-3.473 1.33-5.894 4.637-5.894 8.509 0 0.003 0 0.007 0 0.010v-0.001 52.059c0 3.654-2.962 6.617-6.617 6.617s-6.617-2.962-6.617-6.617v0-52.059c0.012-9.524 5.977-17.652 14.373-20.864l0.153-0.052 330.496-122.79c2.257-0.88 4.869-1.395 7.601-1.407h0.005c2.831 0.009 5.535 0.538 8.026 1.497l-0.154-0.052 349.851 132.373c8.477 3.291 14.383 11.372 14.412 20.835v175.994c0 3.654-2.962 6.617-6.617 6.617s-6.617-2.962-6.617-6.617v0-176.029c-0.006-3.852-2.408-7.141-5.794-8.459l-0.062-0.021-344.756-130.548v427.655l94.232-109.062c3.116-3.633 7.712-5.92 12.842-5.92 2.497 0 4.867 0.542 7 1.514l-0.106-0.043 323.841 142.222c6.055 2.7 10.2 8.667 10.2 15.602 0 4.76-1.953 9.065-5.102 12.156l-0.003 0.003zM739.441 842.99c1.689 1.94 4.163 3.16 6.921 3.16 1.291 0 2.519-0.267 3.633-0.749l-0.059 0.023 303.116-128c1.721-0.754 2.901-2.442 2.901-4.405 0-0.682-0.143-1.331-0.399-1.919l0.012 0.031c-0.221-0.504-0.503-0.937-0.844-1.316l0.004 0.004-89.859-97.882-202.267 83.66c-3.65 43.059-26.859 80.030-60.604 102.359l-0.506 0.315zM628.896 472.528l-297.526 128 168.613 75.18c1.353 0.626 2.43 1.654 3.101 2.93l0.017 0.036c0.738 1.031 1.18 2.317 1.18 3.707 0 0.034 0 0.067-0.001 0.101v-0.005c0 68.906 55.064 124.996 122.714 124.996 67.731 0 122.638-54.907 122.638-122.638s-54.907-122.638-122.638-122.638v0c-40.043 0-73.241 17.264-98.871 51.375-1.227 1.624-3.154 2.662-5.324 2.662-3.675 0-6.655-2.979-6.655-6.655 0-1.506 0.5-2.895 1.343-4.010l-0.012 0.017c27.722-37.077 65.521-56.699 109.367-56.699 73.754 0.098 133.754 58.846 135.867 132.102l0.004 0.195 186.334-77.043zM1072.447 488.537c-0.242-1.251-1.070-2.268-2.182-2.766l-0.024-0.010-323.879-142.222c-0.445-0.197-0.964-0.312-1.509-0.312-1.14 0-2.163 0.502-2.86 1.297l-0.004 0.004-102.141 118.189 325.020 133.59 106.477-104.347c0.719-0.693 1.165-1.664 1.165-2.739 0-0.242-0.023-0.478-0.066-0.707l0.004 0.024z" />
<glyph unicode="&#xe984;" horiz-adv-x="1227" d="M609.312 274.215c0-3.948-3.201-7.149-7.149-7.149s-7.149 3.201-7.149 7.149c0 3.948 3.201 7.149 7.149 7.149s7.149-3.201 7.149-7.149z" />
<glyph unicode="&#xe985;" horiz-adv-x="1227" d="M596.649 246.759v-184.357c0-0.003 0-0.006 0-0.010 0-3.654 2.962-6.617 6.617-6.617 3.651 0 6.611 2.957 6.617 6.607v184.377c0 3.654-2.962 6.617-6.617 6.617s-6.617-2.962-6.617-6.617v0z" />
<glyph unicode="&#xe986;" horiz-adv-x="1227" d="M944.675 460.435l-194.472-85.638-19.622 22.816c-1.223 1.41-3.018 2.297-5.020 2.297-3.663 0-6.632-2.969-6.632-6.632 0-1.661 0.611-3.18 1.62-4.343l-0.007 0.008 22.816-26.619c1.219-1.401 3.004-2.282 4.995-2.282 0.009 0 0.017 0 0.026 0h-0.001c0.004 0 0.009 0 0.014 0 0.959 0 1.87 0.21 2.688 0.587l-0.040-0.016 198.959 87.463c2.531 0.968 4.296 3.376 4.296 6.197 0 3.655-2.963 6.617-6.617 6.617-0.834 0-1.632-0.154-2.367-0.436l0.045 0.015c-0.275-0.103-0.499-0.204-0.716-0.317l0.035 0.017z" />
<glyph unicode="&#xe987;" horiz-adv-x="1227" d="M265.925 517.21c-1.204 1.358-2.953 2.21-4.902 2.21-1.664 0-3.184-0.622-4.338-1.646l0.007 0.006-0.084-0.076-17.797-15.971c-1.355-1.21-2.203-2.962-2.203-4.913 0-2.625 1.537-4.891 3.76-5.946l0.040-0.017 55.178-26.011c0.805-0.408 1.756-0.647 2.762-0.647 0.018 0 0.037 0 0.055 0h-0.003c3.638 0.022 6.578 2.976 6.578 6.617 0 2.617-1.52 4.88-3.725 5.953l-0.039 0.017-46.165 21.79 10.381 9.317c1.358 1.204 2.21 2.953 2.21 4.902 0 1.664-0.622 3.184-1.646 4.338l0.006-0.007z" />
<glyph unicode="&#xe988;" horiz-adv-x="1232" d="M1158.709 363.831c-25.298 0-45.806 20.508-45.806 45.806s20.508 45.806 45.806 45.806c25.298 0 45.806-20.508 45.806-45.806v0c0-25.298-20.508-45.806-45.806-45.806v0zM1158.709 443.61c-18.974 0-34.355-15.381-34.355-34.355s15.381-34.355 34.355-34.355c18.974 0 34.355 15.381 34.355 34.355v0c0 18.974-15.381 34.355-34.355 34.355v0z" />
<glyph unicode="&#xe989;" horiz-adv-x="1232" d="M158.070 174.269c-25.298 0-45.806 20.508-45.806 45.806s20.508 45.806 45.806 45.806c25.298 0 45.806-20.508 45.806-45.806v0c0-25.298-20.508-45.806-45.806-45.806v0zM158.070 254.048c-18.974 0-34.355-15.381-34.355-34.355s15.381-34.355 34.355-34.355c18.974 0 34.355 15.381 34.355 34.355v0c0 18.974-15.381 34.355-34.355 34.355v0z" />
<glyph unicode="&#xe98a;" horiz-adv-x="1232" d="M134.709 802.693c-25.298 0-45.806 20.508-45.806 45.806s20.508 45.806 45.806 45.806c25.298 0 45.806-20.508 45.806-45.806v0c0-25.298-20.508-45.806-45.806-45.806v0zM134.709 882.473c-18.974 0-34.355-15.381-34.355-34.355s15.381-34.355 34.355-34.355c18.974 0 34.355 15.381 34.355 34.355v0c0 18.974-15.381 34.355-34.355 34.355v0z" />
<glyph unicode="&#xe98b;" horiz-adv-x="1232" d="M701.027 896.482c-13.577 0-24.583 11.006-24.583 24.583s11.006 24.583 24.583 24.583c13.577 0 24.583-11.006 24.583-24.583v0c0-13.577-11.006-24.583-24.583-24.583v0zM701.027 934.158c-7.252 0-13.131-5.879-13.131-13.131s5.879-13.131 13.131-13.131c7.252 0 13.131 5.879 13.131 13.131v0c0 7.252-5.879 13.131-13.131 13.131v0z" />
<glyph unicode="&#xe98c;" horiz-adv-x="1232" d="M1176.535 746.886c13.558 0.011 24.545 11.004 24.545 24.564 0 13.566-10.998 24.564-24.564 24.564s-24.564-10.998-24.564-24.564c0-13.559 10.987-24.553 24.544-24.564h0.001zM1176.535 784.562c-0.011 0-0.025 0-0.038 0-7.252 0-13.131-5.879-13.131-13.131s5.879-13.131 13.131-13.131c7.252 0 13.131 5.879 13.131 13.131v0c-0.022 7.23-5.866 13.088-13.089 13.131h-0.004z" />
<glyph unicode="&#xe98d;" horiz-adv-x="1232" d="M258.996 268.134c-0.011 0-0.025 0-0.038 0-12.965 0-23.476 10.51-23.476 23.476s10.51 23.476 23.476 23.476c12.952 0 23.454-10.489 23.476-23.435v-0.002c0-0.011 0-0.025 0-0.038 0-12.952-10.489-23.454-23.436-23.476h-0.002zM258.996 303.596c-0.011 0-0.025 0-0.038 0-6.641 0-12.024-5.383-12.024-12.024s5.383-12.024 12.024-12.024c6.627 0 12.002 5.362 12.024 11.984v0.002c-0.128 6.529-5.441 11.775-11.984 11.795h-0.002z" />
<glyph unicode="&#xe98e;" horiz-adv-x="1232" d="M963.841 264.813c-0.011 0-0.025 0-0.038 0-12.965 0-23.476 10.51-23.476 23.476s10.51 23.476 23.476 23.476c12.952 0 23.454-10.489 23.476-23.435v-0.002c0-0.011 0-0.025 0-0.038 0-12.952-10.489-23.454-23.436-23.476h-0.002zM963.841 300.275c-6.64-0.001-12.023-5.384-12.023-12.024s5.383-12.024 12.024-12.024c6.574 0 11.915 5.275 12.023 11.823v0.010c-0.064 6.586-5.397 11.905-11.982 11.948h-0.004z" />
<glyph unicode="&#xe98f;" horiz-adv-x="1232" d="M39.584 460.94c-0.011 0-0.025 0-0.038 0-12.965 0-23.476 10.51-23.476 23.476s10.51 23.476 23.476 23.476c12.952 0 23.454-10.489 23.476-23.435v-0.002c0 0 0 0 0 0 0-12.96-10.484-23.47-23.433-23.514h-0.004zM39.584 496.402c-0.011 0-0.025 0-0.038 0-6.641 0-12.024-5.383-12.024-12.024s5.383-12.024 12.024-12.024c6.627 0 12.002 5.362 12.024 11.984v0.002c-0.043 6.595-5.388 11.926-11.984 11.948h-0.002z" />
<glyph unicode="&#xe990;" horiz-adv-x="1232" d="M218.687 599.39h-19.391v20.766c0 3.162-2.564 5.726-5.726 5.726s-5.726-2.564-5.726-5.726v0-20.842h-20.117c-3.162 0-5.726-2.564-5.726-5.726s2.564-5.726 5.726-5.726v0h20.117v-18.666c0-3.162 2.564-5.726 5.726-5.726s5.726 2.564 5.726 5.726v0 18.742h19.391c3.162 0 5.726 2.564 5.726 5.726s-2.564 5.726-5.726 5.726v0z" />
<glyph unicode="&#xe991;" horiz-adv-x="1232" d="M1119.659 230.344h-19.391v20.842c0 3.162-2.564 5.726-5.726 5.726s-5.726-2.564-5.726-5.726v0-20.842h-20.117c-3.162 0-5.726-2.564-5.726-5.726s2.564-5.726 5.726-5.726v0h20.117v-18.628c0-3.162 2.564-5.726 5.726-5.726s5.726 2.564 5.726 5.726v0 18.666h19.391c3.162 0 5.726 2.564 5.726 5.726s-2.564 5.726-5.726 5.726v0z" />
<glyph unicode="&#xe992;" horiz-adv-x="1232" d="M1062.554 565.989l-13.742 13.704 14.849 14.696c1.080 1.051 1.75 2.518 1.75 4.142 0 3.19-2.586 5.777-5.777 5.777-1.567 0-2.988-0.624-4.028-1.636l0.001 0.001-14.849-14.811-14.2 14.162c-0.996 0.861-2.304 1.386-3.735 1.386-3.162 0-5.726-2.564-5.726-5.726 0-1.421 0.518-2.721 1.375-3.722l-0.007 0.008 14.2-14.2-13.207-13.055c-1.035-1.036-1.675-2.466-1.675-4.046 0-3.16 2.561-5.723 5.72-5.726v0c1.477 0.028 2.813 0.603 3.821 1.531l13.242 13.242 13.704-13.704c1.020-0.952 2.393-1.537 3.903-1.537 3.162 0 5.726 2.564 5.726 5.726 0 1.51-0.585 2.884-1.54 3.907l0.003-0.003z" />
<glyph unicode="&#xe993;" horiz-adv-x="1232" d="M1056.79 119.951c0-40.393-192.008-73.137-428.862-73.137s-428.862 32.745-428.862 73.137c0 40.393 192.008 73.137 428.862 73.137s428.862-32.745 428.862-73.137z" />
<glyph unicode="&#xe994;" horiz-adv-x="1232" d="M839.63 776.66c0-0.060 0-0.132 0-0.204 0-18.617 4.136-36.267 11.54-52.083l-0.317 0.754h-561.127v84.131c0 15.917 12.903 28.82 28.82 28.82h537.461c-10.296-17.601-16.376-38.755-16.376-61.329 0-0.032 0-0.063 0-0.095v0.005z" />
<glyph unicode="&#xe995;" horiz-adv-x="1232" d="M647.892 794.83h-272.624c-3.689 0-6.68 2.991-6.68 6.68s2.991 6.68 6.68 6.68v0h272.624c3.689 0 6.68-2.991 6.68-6.68s-2.991-6.68-6.68-6.68v0z" />
<glyph unicode="&#xe996;" horiz-adv-x="1232" d="M328.737 778.225c-12.235 0.018-22.146 9.941-22.146 22.178 0 12.249 9.929 22.178 22.178 22.178s22.178-9.929 22.178-22.178c0-6.127-2.485-11.675-6.502-15.689v0c-4.013-4.010-9.555-6.489-15.676-6.489-0.011 0-0.023 0-0.034 0h0.002zM328.737 809.221c-4.815-0.044-8.702-3.958-8.702-8.779 0-4.849 3.931-8.78 8.78-8.78s8.78 3.931 8.78 8.78c0 2.431-0.988 4.632-2.585 6.221v0c-1.593 1.581-3.788 2.558-6.21 2.558-0.022 0-0.043 0-0.065 0h0.003z" />
<glyph unicode="&#xe997;" horiz-adv-x="1232" d="M604.071 417.844c-0.020 0-0.044 0-0.068 0-5.778 0-10.616 4.024-11.864 9.423l-0.016 0.082-4.771 20.842-19.926 12.177-19.086-12.482c-1.865-1.194-4.14-1.902-6.58-1.902-3.39 0-6.461 1.368-8.69 3.583l0.001-0.001-21.911 21.72c-2.216 2.2-3.588 5.248-3.588 8.616 0 2.475 0.741 4.778 2.013 6.697l-0.028-0.045 10.955 17.177-7.291 21.529-22.903 6.184c-5.246 1.48-9.027 6.223-9.027 11.85 0 0.236 0.007 0.47 0.020 0.703l-0.001-0.032 1.794 31.721c0.357 5.881 4.799 10.624 10.508 11.444l0.066 0.008 17.406 2.367 14.811 20.231-11.91 21.071c-1.004 1.738-1.596 3.824-1.596 6.047 0 3.511 1.476 6.677 3.842 8.911l0.006 0.006 21.376 20.193c2.192 2.109 5.176 3.407 8.464 3.407 2.538 0 4.895-0.774 6.848-2.099l-0.043 0.027 16.223-10.612 22.903 5.993 7.062 24.086c1.475 5.051 6.026 8.694 11.442 8.779h0.010l27.713 0.611c0.084 0.002 0.183 0.003 0.282 0.003 5.704 0 10.494-3.909 11.839-9.195l0.018-0.084 4.848-20.918 20.155-11.871 19.086 12.826c1.906 1.275 4.251 2.035 6.773 2.035 3.298 0 6.293-1.299 8.5-3.413l-0.004 0.004 22.063-21.453c2.322-2.221 3.766-5.345 3.766-8.805 0-2.396-0.692-4.63-1.887-6.513l0.029 0.050-10.65-17.368 7.634-21.376 22.903-5.764c5.376-1.391 9.283-6.198 9.283-11.917 0-0.145-0.003-0.289-0.007-0.433l0.001 0.021-1.183-31.797c-0.31-5.838-4.675-10.569-10.314-11.443l-0.068-0.009-16.987-2.672-12.597-21.605 12.749-21.491c1.078-1.794 1.716-3.96 1.716-6.274 0-3.315-1.309-6.325-3.437-8.541l0.004 0.004-21.109-21.682c-2.226-2.275-5.328-3.685-8.76-3.685-2.133 0-4.139 0.545-5.886 1.503l0.064-0.032-23.857 12.826-22.483-6.642-7.634-24.125c-1.552-4.964-6.078-8.517-11.443-8.589h-27.759zM567.426 475.102c1.299-0.011 2.51-0.379 3.542-1.010l-0.030 0.017 25.881-15.918c1.501-0.938 2.592-2.414 3.006-4.153l0.009-0.046 5.23-22.903h25.995l8.398 26.72c0.708 2.113 2.368 3.735 4.456 4.377l0.048 0.013 27.484 8.131c0.874 0.442 1.905 0.701 2.996 0.701s2.123-0.259 3.035-0.719l-0.039 0.018 25.652-13.818 19.888 20.46-14.314 24.125c-0.576 0.974-0.916 2.146-0.916 3.397s0.34 2.424 0.933 3.429l-0.017-0.031 16.223 27.751c0.992 1.718 2.695 2.931 4.697 3.24l0.037 0.005 19.086 3.016 1.107 29.927-25.575 6.413c-2.171 0.556-3.887 2.121-4.642 4.153l-0.015 0.046-10.039 27.751c-0.247 0.669-0.39 1.442-0.39 2.248 0 1.302 0.372 2.517 1.017 3.544l-0.016-0.028 11.833 19.353-20.956 20.231-21.72-14.696c-1.056-0.709-2.356-1.132-3.754-1.132-1.245 0-2.412 0.335-3.416 0.92l0.032-0.017-26.224 15.269c-1.516 0.925-2.628 2.386-3.081 4.113l-0.011 0.048-5.649 22.598-25.995-0.573-7.902-26.911c-0.671-2.243-2.43-3.964-4.648-4.57l-0.047-0.011-29.316-7.634c-0.509-0.141-1.093-0.221-1.696-0.221-1.359 0-2.622 0.411-3.672 1.114l0.024-0.015-17.941 11.757-20.117-19.086 13.742-23.972c0.549-0.949 0.873-2.088 0.873-3.302 0-1.486-0.485-2.859-1.306-3.969l0.013 0.018-19.086-25.995c-1.061-1.42-2.65-2.394-4.471-2.63l-0.033-0.004-19.277-2.634-1.718-29.927 25.461-6.909c2.155-0.593 3.845-2.182 4.566-4.228l0.014-0.047 9.505-27.942c0.221-0.636 0.349-1.368 0.349-2.131 0-1.351-0.401-2.607-1.090-3.658l-12.199-19.061 20.422-20.613 21.987 14.238c1.038 0.806 2.344 1.313 3.765 1.374h0.014z" />
<glyph unicode="&#xe998;" horiz-adv-x="1232" d="M623.882 522.931c-17.772 0-32.179 14.407-32.179 32.179s14.407 32.179 32.179 32.179c17.772 0 32.179-14.407 32.179-32.179v0c0-17.772-14.407-32.179-32.179-32.179v0zM623.882 573.929c-10.393 0-18.819-8.425-18.819-18.819s8.425-18.819 18.819-18.819c10.393 0 18.819 8.425 18.819 18.819v0c0 10.393-8.425 18.819-18.819 18.819v0z" />
<glyph unicode="&#xe999;" horiz-adv-x="1232" d="M964.91 913.087c-41.145-0.023-78.010-18.329-102.915-47.233l-0.149-0.177c-0.194 0.019-0.42 0.030-0.649 0.030s-0.454-0.011-0.677-0.032l0.028 0.002h-559.142c-24.026-0.043-43.501-19.464-43.63-43.465v-264.505c0-3.689 2.991-6.68 6.68-6.68s6.68 2.991 6.68 6.68v0 180.591h566.777c3.689 0 6.68 2.991 6.68 6.68s-2.991 6.68-6.68 6.68v0h-566.777v70.542c0.022 16.709 13.561 30.249 30.268 30.27h550.174c-14.347-21.192-22.903-47.324-22.903-75.453 0-0.098 0-0.197 0-0.295v0.015c0-3.689 2.991-6.68 6.68-6.68s6.68 2.991 6.68 6.68v0c0 67.925 55.064 122.99 122.99 122.99s122.99-55.064 122.99-122.99c0-67.925-55.064-122.99-122.99-122.99-0.040 0-0.080 0-0.121 0h0.006c-40.081 0-73.405 17.368-99.056 51.57-1.234 1.639-3.176 2.687-5.363 2.687-3.698 0-6.695-2.998-6.695-6.695 0-1.511 0.5-2.905 1.345-4.025l-0.012 0.017c27.942-37.218 65.885-56.914 109.782-56.914h2.138v-248.117c-0.022-16.709-13.561-30.249-30.268-30.27h-635.374c-16.709 0.022-30.249 13.561-30.27 30.268v74.552c0 3.689-2.991 6.68-6.68 6.68s-6.68-2.991-6.68-6.68v0-74.588c0.022-24.088 19.543-43.609 43.628-43.631h99.249v-54.968c-8.458-3.255-14.352-11.315-14.352-20.751 0-12.249 9.929-22.178 22.178-22.178s22.178 9.929 22.178 22.178c0 10.282-6.997 18.93-16.489 21.442l-0.155 0.035v54.242h39.851v-91.88l-56.838-60.273c-1.135-1.2-1.832-2.824-1.832-4.611 0-0.003 0-0.005 0-0.008v0-62.182c-8.511-3.242-14.448-11.334-14.448-20.814 0-12.27 9.946-22.216 22.216-22.216s22.216 9.946 22.216 22.216c0 10.282-6.985 18.933-16.469 21.465l-0.155 0.035v59.014l56.914 60.121c1.134 1.178 1.832 2.783 1.832 4.55 0 0.011 0 0.021 0 0.032v-0.002 94.552h35.233v-92.223c-9.081-2.928-15.536-11.304-15.536-21.188 0-12.27 9.946-22.216 22.216-22.216s22.216 9.946 22.216 22.216c0 9.884-6.455 18.26-15.379 21.144l-0.157 0.044v92.223h34.355v-161.582l-43.478-43.516c-1.22-1.194-1.978-2.855-1.985-4.694v-118.334c-9.617-2.568-16.584-11.201-16.584-21.461 0-12.249 9.929-22.178 22.178-22.178s22.178 9.929 22.178 22.178c0 9.459-5.922 17.535-14.26 20.723l-0.152 0.051v116.233l43.478 43.478c1.215 1.212 1.971 2.883 1.985 4.731v164.371h19.086v-248.499c-9.017-2.923-15.421-11.248-15.421-21.068 0-12.206 9.895-22.102 22.102-22.102s22.102 9.895 22.102 22.102c0 9.82-6.405 18.145-15.265 21.024l-0.156 0.044v248.499h16.567v-111.157c0-0.010 0-0.023 0-0.035 0-1.835 0.744-3.496 1.947-4.698l52.906-52.906v-30.767c-9.34-2.752-16.041-11.25-16.041-21.312 0-12.249 9.929-22.178 22.178-22.178s22.178 9.929 22.178 22.178c0 9.662-6.178 17.88-14.799 20.921l-0.155 0.048v33.897c-0.012 1.839-0.769 3.499-1.984 4.694l-52.869 52.907v108.408h28.743v-28.743c-9.669-2.547-16.684-11.212-16.684-21.516 0-12.27 9.946-22.216 22.216-22.216s22.216 9.946 22.216 22.216c0 9.457-5.909 17.533-14.236 20.74l-0.152 0.051v29.469h32.064v-337.134c-9.081-2.928-15.536-11.304-15.536-21.188 0-12.27 9.946-22.216 22.216-22.216s22.216 9.946 22.216 22.216c0 9.884-6.455 18.26-15.379 21.144l-0.157 0.044v337.134h29.507v-46.493c-9.617-2.568-16.584-11.201-16.584-21.461 0-12.249 9.929-22.178 22.178-22.178s22.178 9.929 22.178 22.178c0 9.459-5.922 17.535-14.26 20.723l-0.152 0.051v47.18h38.744v-101.766l-49.623-49.623c-1.203-1.214-1.947-2.885-1.947-4.729 0-0.001 0-0.003 0-0.004v0-80.161c-9.34-2.752-16.041-11.25-16.041-21.312 0-12.249 9.929-22.178 22.178-22.178s22.178 9.929 22.178 22.178c0 9.662-6.178 17.88-14.799 20.921l-0.155 0.048v77.794l49.623 49.623c1.197 1.219 1.939 2.889 1.947 4.732v104.478h23.209v-196.395c-9.060-2.926-15.498-11.285-15.498-21.148 0-12.249 9.929-22.178 22.178-22.178s22.178 9.929 22.178 22.178c0 9.863-6.438 18.222-15.341 21.104l-0.157 0.044v196.395h91.613c24.088 0.022 43.609 19.543 43.631 43.628v249.074c68.208 8.176 120.573 65.69 120.573 135.434 0 75.206-60.887 136.191-136.056 136.35h-0.015zM417.372 272.791c0-0.011 0-0.025 0-0.038 0-4.891-3.965-8.856-8.856-8.856s-8.856 3.965-8.856 8.856c0 4.891 3.965 8.856 8.856 8.856v0c0 0 0 0 0 0 4.878 0 8.834-3.943 8.856-8.816v-0.002zM411.837 108.652c-0.065-4.759-3.938-8.592-8.706-8.592-4.809 0-8.707 3.898-8.707 8.707s3.898 8.707 8.707 8.707c4.768 0 8.642-3.833 8.706-8.586v-0.006zM509.366 226.145c0.065-4.778 3.953-8.627 8.741-8.627 4.828 0 8.741 3.914 8.741 8.741s-3.914 8.741-8.741 8.741c-4.787 0-8.676-3.849-8.741-8.621v-0.006zM510.473-9.91c0.065-4.778 3.953-8.627 8.741-8.627 4.828 0 8.741 3.914 8.741 8.741s-3.914 8.741-8.741 8.741c-4.787 0-8.676-3.849-8.741-8.621v-0.006zM589.184 69.907c0.065-4.757 3.936-8.589 8.702-8.589 4.807 0 8.703 3.897 8.703 8.703s-3.897 8.703-8.703 8.703c-4.766 0-8.638-3.832-8.702-8.583v-0.006zM673.391 118.653c0.065-4.757 3.936-8.589 8.702-8.589 4.807 0 8.703 3.897 8.703 8.703s-3.897 8.703-8.703 8.703c-4.766 0-8.638-3.832-8.702-8.583v-0.006zM660.107 289.319c0.065-4.757 3.936-8.589 8.702-8.589 4.807 0 8.703 3.897 8.703 8.703s-3.897 8.703-8.703 8.703c-4.766 0-8.638-3.832-8.702-8.583v-0.006zM706.639-18.766c0.065-4.757 3.936-8.589 8.702-8.589 4.807 0 8.703 3.897 8.703 8.703s-3.897 8.703-8.703 8.703c-4.766 0-8.638-3.832-8.702-8.583v-0.006zM748.628 271.569c-1.258-2.501-1.994-5.451-1.994-8.573 0-10.729 8.697-19.426 19.426-19.426s19.426 8.697 19.426 19.426c0 10.729-8.697 19.426-19.426 19.426-7.517 0-14.036-4.269-17.266-10.515l-0.051-0.108zM749.735 82.084c-1.248-2.482-1.978-5.409-1.978-8.506 0-10.646 8.631-19.277 19.277-19.277s19.277 8.631 19.277 19.277c0 10.646-8.631 19.277-19.277 19.277-7.459 0-13.928-4.236-17.133-10.434l-0.051-0.108zM838.446 122.203c-0.011 0-0.025 0-0.038 0-4.891 0-8.856 3.965-8.856 8.856s3.965 8.856 8.856 8.856c4.891 0 8.856-3.965 8.856-8.856v0c0 0 0 0 0 0 0-4.878-3.943-8.834-8.816-8.856h-0.002z" />
<glyph unicode="&#xe99a;" horiz-adv-x="1232" d="M953.458 735.893l-4.313 92.452c-0.012 0.228-0.018 0.495-0.018 0.763 0 8.875 7.195 16.070 16.070 16.070 0.006 0 0.013 0 0.019 0h-0.001c8.881-0.020 16.073-7.225 16.073-16.109 0-0.403-0.015-0.803-0.044-1.198l0.003 0.053-6.833-92.3c-0.388-5.299-4.759-9.457-10.111-9.505h-0.272c-0.051-0.001-0.112-0.001-0.173-0.001-5.528 0-10.050 4.304-10.399 9.743l-0.002 0.031z" />
<glyph unicode="&#xe99b;" horiz-adv-x="1232" d="M975.445 700.164c0-6.198-5.025-11.223-11.223-11.223s-11.223 5.025-11.223 11.223c0 6.198 5.025 11.223 11.223 11.223s11.223-5.025 11.223-11.223z" />
<glyph unicode="&#xe99c;" horiz-adv-x="1232" d="M853.333 724.136c0-3.963-3.213-7.176-7.176-7.176s-7.176 3.213-7.176 7.176c0 3.963 3.213 7.176 7.176 7.176s7.176-3.213 7.176-7.176z" />
<glyph unicode="&#xe99d;" horiz-adv-x="1232" d="M271.173 492.89c0-3.963-3.213-7.176-7.176-7.176s-7.176 3.213-7.176 7.176c0 3.963 3.213 7.176 7.176 7.176s7.176-3.213 7.176-7.176z" />
<glyph unicode="&#xe99e;" horiz-adv-x="1232" d="M950.977 543.277c0-3.963-3.213-7.176-7.176-7.176s-7.176 3.213-7.176 7.176c0 3.963 3.213 7.176 7.176 7.176s7.176-3.213 7.176-7.176z" />
<glyph unicode="&#xe99f;" horiz-adv-x="1232" d="M1069.081 769.026c-0.012 0-0.026 0-0.039 0-2.973 0-5.382 2.41-5.382 5.382 0 0.040 0 0.081 0.001 0.121v-0.006c-0.065 54.533-44.256 98.724-98.783 98.789h-0.006c-2.973 0-5.382 2.41-5.382 5.382s2.41 5.382 5.382 5.382v0c60.47-0.087 109.467-49.084 109.553-109.545v-0.008c0.001-0.034 0.001-0.074 0.001-0.115 0-2.96-2.389-5.361-5.343-5.382h-0.002z" />
<glyph unicode="&#xe9a0;" horiz-adv-x="1232" d="M291.786 393.643c-0.034-0.001-0.074-0.001-0.115-0.001-3.697 0-6.697 2.987-6.718 6.679v203.916c0 3.689 2.991 6.68 6.68 6.68s6.68-2.991 6.68-6.68v0-203.914c0-0.001 0-0.001 0-0.002 0-3.636-2.904-6.593-6.519-6.678h-0.008z" />
<glyph unicode="&#xe9a1;" horiz-adv-x="1232" d="M922.73 380.359h-67.221c-3.689 0-6.68 2.991-6.68 6.68s2.991 6.68 6.68 6.68v0h67.221c0 0 0 0 0 0 8.145 0 14.751 6.592 14.772 14.732v113.067c0 3.689 2.991 6.68 6.68 6.68s6.68-2.991 6.68-6.68v0-113.065c-0.022-15.521-12.609-28.095-28.133-28.095v0z" />
<glyph unicode="&#xe9a2;" horiz-adv-x="1234" d="M153.853 183.709c-25.292 0-45.648 20.357-45.648 45.648s20.357 45.648 45.648 45.648 45.648-20.357 45.648-45.648v0c0-25.292-19.74-45.648-45.031-45.648 0 0-0.617 0-0.617 0zM153.853 263.285c-19.123 0-34.545-15.422-34.545-34.545s15.422-34.545 34.545-34.545 34.545 15.422 34.545 34.545c0 19.123-15.422 34.545-34.545 34.545z" />
<glyph unicode="&#xe9a3;" horiz-adv-x="1234" d="M1089.641 495.844c-25.292 0-45.648 20.357-45.648 45.648s20.357 45.648 45.648 45.648c25.292 0 45.648-20.357 45.648-45.648v0c0-25.292-20.357-45.648-45.648-45.648zM1089.641 575.42c-19.123 0-34.545-15.422-34.545-34.545s15.422-34.545 34.545-34.545 34.545 15.422 34.545 34.545c-0.617 19.123-16.039 34.545-34.545 34.545z" />
<glyph unicode="&#xe9a4;" horiz-adv-x="1234" d="M758.383 845.608c-13.571 0-24.675 11.104-24.675 24.058 0 0 0 0 0 0 0 13.571 11.104 24.675 24.675 24.675s24.675-11.104 24.675-24.675-11.72-24.058-24.675-24.058zM758.383 883.237c-7.402 0-12.954-5.552-12.954-12.954s5.552-12.954 12.954-12.954c7.402 0 12.954 5.552 12.954 12.954s-6.169 12.954-12.954 12.954c0 0 0 0 0 0z" />
<glyph unicode="&#xe9a5;" horiz-adv-x="1234" d="M1109.381 246.63c-13.571 0-24.675 11.104-24.675 24.058 0 0 0 0 0 0 0 13.571 11.104 24.058 24.675 24.675 13.571 0 24.675-11.104 24.675-24.058 0 0 0 0 0 0-0.617-13.571-11.104-24.675-24.675-24.675zM1109.381 284.259c-7.402 0-12.954-5.552-12.954-12.954s5.552-12.954 12.954-12.954c7.402 0 12.954 5.552 12.954 12.954s-5.552 12.954-12.954 12.954c0 0 0 0 0 0z" />
<glyph unicode="&#xe9a6;" horiz-adv-x="1234" d="M53.304 475.488c-13.571 0-24.675 11.104-24.675 24.675s11.104 24.675 24.675 24.675 24.675-11.104 24.675-24.675v0c-0.617-13.571-11.104-24.675-24.675-24.675 0 0 0 0 0 0zM53.304 513.117c-7.402 0-12.954-5.552-12.954-12.954s5.552-12.954 12.954-12.954 12.954 5.552 12.954 12.954v0c0 6.786-5.552 12.954-12.337 12.954-0.617 0-0.617 0-0.617 0v0z" />
<glyph unicode="&#xe9a7;" horiz-adv-x="1234" d="M218.624 837.589c-12.954 0-23.441 10.487-23.441 23.441s10.487 23.441 23.441 23.441c12.954 0 23.441-10.487 23.441-23.441 0-12.337-10.487-22.824-23.441-23.441 0 0 0 0 0 0zM218.624 873.367c-6.786 0-12.337-4.935-12.337-11.72s4.935-12.337 11.72-12.337c6.786 0 12.337 4.935 12.337 11.72 0 0 0 0 0 0 0 6.786-5.552 12.337-11.72 12.337 0 0 0 0 0 0z" />
<glyph unicode="&#xe9a8;" horiz-adv-x="1234" d="M1031.298 804.179h-51.2c-3.084 0-5.552 2.467-5.552 5.552s2.467 5.552 5.552 5.552h51.2c3.084 0 5.552-2.467 5.552-5.552s-2.467-5.552-5.552-5.552c0 0 0 0 0 0z" />
<glyph unicode="&#xe9a9;" horiz-adv-x="1234" d="M1006.006 780.121c-3.084 0-5.552 2.467-5.552 5.552v51.2c0 3.084 2.467 5.552 5.552 5.552s5.552-2.467 5.552-5.552c0 0 0 0 0 0v-50.583c0.617-3.701-1.851-6.169-5.552-6.169 0.617 0 0.617 0 0 0v0z" />
<glyph unicode="&#xe9aa;" horiz-adv-x="1234" d="M278.497 650.592c-1.234 0.617-3.084 0.617-4.318 1.851l-35.778 35.778c-1.851 2.467-1.234 6.169 1.234 8.636 1.851 1.851 4.935 1.851 7.402 0l36.395-35.778c2.467-1.851 2.467-5.552 0-8.019 0 0 0 0 0 0-1.234-1.851-3.084-2.467-4.935-2.467z" />
<glyph unicode="&#xe9ab;" horiz-adv-x="1234" d="M243.336 651.208c-3.084 0-5.552 2.467-5.552 5.552 0 1.234 0.617 3.084 1.234 4.318l35.778 35.778c2.467 2.467 5.552 2.467 8.019 0s2.467-5.552 0-8.019l-35.161-35.778c-1.234-1.234-2.467-1.851-4.318-1.851z" />
<glyph unicode="&#xe9ac;" horiz-adv-x="1234" d="M1093.342 37.512c0-20.357-207.884-37.629-463.884-37.629s-464.501 16.655-464.501 37.629 207.884 37.629 463.884 37.629c83.894 0 161.619-1.851 229.475-4.935 5.552-0.617 11.72 2.467 15.422-0.617 19.123-18.506 25.292-27.142 56.135-27.759 75.258-1.234 65.388 19.123 88.829 16.655 46.882-6.786 74.641-13.571 74.641-20.973v0z" />
<glyph unicode="&#xe9ad;" horiz-adv-x="1234" d="M995.26 280.557c-6.169 0-11.104 4.935-11.104 11.104v133.86c0 6.169 4.935 11.104 11.104 11.104s11.104-4.935 11.104-11.104v-133.86c-0.617-6.169-4.935-11.104-11.104-11.104z" />
<glyph unicode="&#xe9ae;" horiz-adv-x="1234" d="M995.26 463.15c-6.169 0-11.104 4.935-11.104 11.104v67.855c0 16.039-6.786 31.46-19.123 41.947l-312.135 272.655c-18.506 16.039-46.265 16.039-64.771 0.617l-320.771-276.357c-12.337-10.487-19.74-25.908-19.74-41.947v-37.629c0-6.169-4.935-11.104-11.104-11.104s-10.487 4.318-10.487 10.487v37.629c0 22.824 9.87 43.798 27.142 58.602l320.771 276.357c26.525 22.824 66.622 22.824 93.147-0.617l312.135-272.039c16.655-14.805 26.525-35.778 26.525-58.602v-68.472c0-6.169-4.318-10.487-10.487-10.487z" />
<glyph unicode="&#xe9af;" horiz-adv-x="1234" d="M866.335 57.251c0 0 0 0 0 0-168.405 0.617-476.222 1.234-600.829 1.851-21.59 0-39.48 17.889-39.48 39.48v371.354c0 6.169 4.935 11.104 11.104 11.104s11.104-4.935 11.104-11.104v-371.354c0-9.87 8.019-17.889 17.889-18.506 124.607-0.617 432.424-1.234 600.829-1.851 6.169 0 10.487-4.935 10.487-11.104 0-4.935-4.935-9.87-11.104-9.87z" />
<glyph unicode="&#xe9b0;" horiz-adv-x="1234" d="M293.265 542.726l652.646-5.552-264.636-201.716-4.318 4.318c-28.376 30.843-76.492 32.694-107.952 4.318-0.617-0.617-1.851-1.851-2.467-2.467l-6.786-6.786-266.487 207.884z" />
<glyph unicode="&#xe9b1;" horiz-adv-x="1234" d="M828.089 207.15c-2.467 0-4.935 0.617-6.786 2.467l-166.554 130.159c-20.357 16.655-49.349 17.272-69.706 1.234l-98.699-78.342c-4.935-3.701-11.72-3.084-15.422 1.851s-3.084 11.72 1.851 15.422l98.699 78.342c28.376 22.207 69.089 21.59 96.231-1.234l166.554-130.159c4.935-3.701 5.552-10.487 1.851-15.422-1.234-3.084-4.318-4.318-8.019-4.318z" />
<glyph unicode="&#xe9b2;" horiz-adv-x="1234" d="M243.299 72.673c-3.084 0-6.169 1.234-8.636 4.318-3.701 4.935-3.084 11.72 1.851 15.422l169.639 134.477c4.935 3.701 11.72 3.084 15.422-1.851s3.084-11.72-1.851-15.422l-169.639-134.477c-1.851-1.851-4.318-2.467-6.786-2.467z" />
<glyph unicode="&#xe9b3;" horiz-adv-x="1234" d="M684.976 327.439c-3.084 0-6.169 1.234-8.636 4.318-3.701 4.935-2.467 11.72 1.851 15.422l301.648 231.942c4.935 3.701 11.72 2.467 15.422-1.851 3.701-4.935 2.467-11.72-1.851-15.422l-301.648-231.942c-2.467-1.851-4.935-2.467-6.786-2.467z" />
<glyph unicode="&#xe9b4;" horiz-adv-x="1234" d="M709.034 167.671h-152.366c-2.467 0-4.935 2.467-4.935 4.935v37.629c0 2.467 2.467 4.935 4.935 4.935h152.366c2.467 0 4.935-2.467 4.935-4.935v-37.629c0-3.084-2.467-4.935-4.935-4.935z" />
<glyph unicode="&#xe9b5;" horiz-adv-x="1234" d="M558.518 324.972c-2.467 0-4.318 0.617-6.786 2.467l-307.817 235.027c-4.935 3.701-5.552 10.487-1.851 15.422s10.487 5.552 15.422 1.851l307.817-235.027c4.935-3.701 5.552-10.487 1.851-15.422-2.467-2.467-5.552-4.318-8.636-4.318z" />
<glyph unicode="&#xe9b6;" horiz-adv-x="1234" d="M544.33 172.606c-5.552 0-11.104 2.467-14.805 6.169s-6.169 9.253-6.169 14.805v28.376c0 5.552 1.851 11.104 6.169 14.805 3.701 3.701 9.253 6.169 14.805 6.169h141.263c0 0 0 0 0 0 11.72 0 20.973-9.253 20.973-20.973v-28.376c0-11.72-9.253-20.973-20.973-20.973h-19.123c-6.169 0-11.104 4.935-11.104 11.104s4.935 11.104 11.104 11.104h18.506v27.142h-140.029v-27.142h92.53c6.169 0 11.104-4.935 11.104-11.104s-4.935-11.104-11.104-11.104h-93.147c0 0 0 0 0 0zM684.976 193.579v0 0zM544.33 194.196c0 0 0 0 0 0v0 0zM685.593 221.338v0c0 0 0 0 0 0v0zM544.947 221.955v0c0 0 0 0 0 0z" />
<glyph unicode="&#xe9b7;" horiz-adv-x="1234" d="M950.229 30.109c-48.116 0-91.913 24.058-117.822 64.154-3.084 4.935-1.851 11.72 3.084 14.805s11.72 1.851 14.805-3.084c22.207-33.928 59.219-54.284 99.933-54.284 0 0 0 0 0 0 66.005 0 119.055 53.667 119.055 119.672 0 32.077-12.337 61.687-35.161 84.511-22.207 22.207-52.434 34.545-83.894 34.545 0 0 0 0 0 0-32.077 0-61.687-12.337-84.511-35.161s-34.545-52.434-34.545-84.511c0-6.169-4.935-11.104-10.487-11.104 0 0 0 0 0 0-6.169 0-10.487 4.935-10.487 10.487 0 37.629 14.805 72.79 41.33 99.933 26.525 26.525 61.687 41.33 99.316 41.33 0 0 0 0 0 0 37.629 0 72.79-14.805 99.316-41.33s41.33-61.687 41.33-99.316c-0.617-77.108-63.537-140.029-141.263-140.646 0 0 0 0 0 0z" />
<glyph unicode="&#xe9b8;" horiz-adv-x="1234" d="M938.003 130.116c-0.617 20.973-3.084 67.239-4.318 92.53-0.617 8.636 6.169 16.039 15.422 16.655 0 0 0.617 0 0.617 0 8.636 0 16.039-7.402 16.039-16.039 0-0.617 0-0.617 0-1.234l-6.786-92.53c-0.617-5.552-4.935-9.253-10.487-9.253v0c-5.552 0-9.87 4.318-10.487 9.87v0z" />
<glyph unicode="&#xe9b9;" horiz-adv-x="1234" d="M960.21 94.338c0-6.132-4.971-11.104-11.104-11.104s-11.104 4.971-11.104 11.104c0 6.132 4.971 11.104 11.104 11.104s11.104-4.971 11.104-11.104z" />
<glyph unicode="&#xe9ba;" horiz-adv-x="1234" d="M438.846 233.059c0-4.088-3.314-7.402-7.402-7.402s-7.402 3.314-7.402 7.402c0 4.088 3.314 7.402 7.402 7.402s7.402-3.314 7.402-7.402z" />
<glyph unicode="&#xe9bb;" horiz-adv-x="1234" d="M837.959 122.023c0-4.088-3.314-7.402-7.402-7.402s-7.402 3.314-7.402 7.402c0 4.088 3.314 7.402 7.402 7.402s7.402-3.314 7.402-7.402z" />
<glyph unicode="&#xe9bc;" horiz-adv-x="1234" d="M1002.663 449.579c0-4.088-3.314-7.402-7.402-7.402s-7.402 3.314-7.402 7.402c0 4.088 3.314 7.402 7.402 7.402s7.402-3.314 7.402-7.402z" />
<glyph unicode="&#xe9bd;" horiz-adv-x="1234" d="M536.928 763.565c-3.084 0-6.169 1.234-8.019 3.701-3.701 4.318-3.084 11.104 1.234 15.422l47.499 40.713c4.318 3.701 11.104 3.084 15.422-1.234s3.084-11.104-1.234-15.422l-47.499-40.713c-2.467-1.851-4.935-2.467-7.402-2.467z" />
<glyph unicode="&#xe9be;" horiz-adv-x="1234" d="M303.752 564.933c-3.084 0-6.169 1.234-8.019 3.701-3.701 4.318-3.084 11.104 1.234 15.422l191.846 162.853c4.318 3.701 11.104 3.084 15.422-1.234 3.701-4.318 3.084-11.104-1.234-15.422l-192.463-162.853c-1.851-1.851-4.318-2.467-6.786-2.467z" />
<glyph unicode="&#xe9bf;" horiz-adv-x="1234" d="M1053.863 168.904h-8.636c0 53.051-42.564 95.614-95.614 95.614 0 0 0 0 0 0-4.935 0-8.636 3.701-8.636 8.636s4.318 8.636 8.636 8.636c30.227 0 58.602-11.72 79.576-32.694 21.59-20.973 33.311-49.349 33.311-79.576l-8.636-0.617z" />
<glyph unicode="&#xe9c0;" horiz-adv-x="1234" d="M432.060 91.796h-108.569c-6.169 0-11.104 4.935-11.104 11.104s4.935 11.104 11.104 11.104h108.569c6.169 0 11.104-4.935 11.104-11.104s-4.935-11.104-11.104-11.104z" />
<glyph unicode="&#xe9c1;" horiz-adv-x="1234" d="M506.701 91.796h-38.863c-6.169 0-11.104 4.935-11.104 11.104s4.935 11.104 11.104 11.104h38.863c6.169 0 11.104-4.935 11.104-11.104s-5.552-11.104-11.104-11.104z" />
<glyph unicode="&#xe9c2;" horiz-adv-x="1234" d="M731.241 323.121c-3.084 0-6.786 1.234-8.636 4.318-3.701 4.935-2.467 11.72 2.467 14.805l141.88 104.867c4.935 3.701 11.72 2.467 14.805-2.467 3.701-4.935 2.467-11.72-2.467-14.805l-141.88-104.867c-1.234-1.234-3.701-1.851-6.169-1.851z" />
<glyph unicode="&#xe9c3;" glyph-name="note" horiz-adv-x="1176" d="M1175.704-64h-1175.704v1024h1175.704v-1024zM37.926-26.074h1099.852v948.148h-1099.852v-948.148zM284.444 694.519h606.815v-37.926h-606.815v37.926zM284.444 466.963h606.815v-37.926h-606.815v37.926zM284.444 239.407h303.407v-37.926h-303.407v37.926z" />
<glyph unicode="&#xe9c4;" horiz-adv-x="1224" d="M730.31 199.146l140.58-190.703c7.049-9.79 20.754-11.748 30.152-5.091 9.79 7.049 11.748 20.363 5.091 30.152l-138.23 193.444-37.592-27.803z" />
<glyph unicode="&#xe9c5;" horiz-adv-x="1224" d="M1089.003-24.45c0-21.843-216.87-39.55-484.393-39.55s-484.393 17.707-484.393 39.55c0 21.843 216.87 39.55 484.393 39.55s484.393-17.707 484.393-39.55z" />
<glyph unicode="&#xe9c6;" horiz-adv-x="1224" d="M332.066 617.753l151.936 157.81-0.392-159.376-151.544 1.566z" />
<glyph unicode="&#xe9c7;" horiz-adv-x="1224" d="M813.718 32.722h-371.224c-3.133 0-5.874 2.741-5.874 5.874s2.741 5.874 5.874 5.874h371.224c3.133 0 5.874-2.741 5.874-5.874s-2.35-5.874-5.874-5.874z" />
<glyph unicode="&#xe9c8;" horiz-adv-x="1224" d="M399.81 30.764h-55.214c-14.489 0-26.236 11.748-26.236 26.236v554.487c0 7.832 3.133 15.663 8.615 21.146l142.146 148.803c5.091 5.091 12.139 8.223 19.188 8.223 0 0 0 0 0 0h33.285c3.133 0 5.874-2.741 5.874-5.874s-2.741-5.874-5.874-5.874h-33.285c0 0 0 0 0 0-3.916 0-8.223-1.566-10.964-4.699l-142.146-148.803c-3.524-3.524-5.091-8.223-5.091-13.314v-554.096c0-7.832 6.657-14.489 14.489-14.489h55.214c3.133 0 5.874-2.741 5.874-5.874s-2.741-5.874-5.874-5.874z" />
<glyph unicode="&#xe9c9;" horiz-adv-x="1224" d="M875.98 133.751c-3.133 0-5.874 2.741-5.874 5.874v440.535c0 3.133 2.741 5.874 5.874 5.874s5.874-2.741 5.874-5.874v-440.927c0-3.133-2.35-5.482-5.874-5.482z" />
<glyph unicode="&#xe9ca;" horiz-adv-x="1224" d="M354.778 607.572h-28.977c-3.133 0-5.874 2.741-5.874 5.874s2.741 5.874 5.874 5.874h28.977c3.133 0 5.874-2.741 5.874-5.874s-2.741-5.874-5.874-5.874z" />
<glyph unicode="&#xe9cb;" horiz-adv-x="1224" d="M487.917 606.397h-102.204c-3.133 0-5.874 2.741-5.874 5.874s2.741 5.874 5.874 5.874h96.33v160.159c0 3.133 2.741 5.874 5.874 5.874s5.874-2.741 5.874-5.874v-165.641c0-3.524-2.35-6.265-5.874-6.265z" />
<glyph unicode="&#xe9cc;" horiz-adv-x="1224" d="M1005.987 82.845h-128.441c-3.133 0-5.874 2.741-5.874 5.874s2.741 5.874 5.874 5.874h128.441c12.922 0 23.495 10.573 23.495 23.495v74.010c0 3.133 2.741 5.874 5.874 5.874s5.874-2.741 5.874-5.874v-74.010c0.392-19.579-15.663-35.243-35.243-35.243z" />
<glyph unicode="&#xe9cd;" horiz-adv-x="1224" d="M1035.748 232.040c-3.133 0-5.874 2.741-5.874 5.874v461.681c0 12.922-10.573 23.495-23.495 23.495h-130.79c-3.133 0-5.874 2.741-5.874 5.874s2.741 5.874 5.874 5.874h130.79c19.579 0 35.243-15.663 35.243-35.243v-461.681c0-3.524-2.741-5.874-5.874-5.874z" />
<glyph unicode="&#xe9ce;" horiz-adv-x="1224" d="M202.45 621.277c-3.133 0-5.874 2.741-5.874 5.874v61.479c0 24.67 19.971 45.033 44.641 45.033h187.179c3.133 0 5.874-2.741 5.874-5.874s-2.741-5.874-5.874-5.874h-187.179c-18.405 0-32.893-14.88-32.893-33.285v-61.479c0-3.524-2.741-5.874-5.874-5.874z" />
<glyph unicode="&#xe9cf;" horiz-adv-x="1224" d="M325.409 83.237h-83.8c-24.67 0-44.641 20.363-44.641 45.033v428.788c0 3.133 2.741 5.874 5.874 5.874s5.874-2.741 5.874-5.874v-429.179c0-18.013 14.88-32.893 32.893-33.285h83.8c3.133 0 5.874-2.741 5.874-5.874s-2.741-5.482-5.874-5.482z" />
<glyph unicode="&#xe9d0;" horiz-adv-x="1224" d="M781.999 485.397h-57.172c-5.482 0-9.79 4.307-9.79 9.79s4.307 9.79 9.79 9.79h57.172c5.482 0 9.79-4.307 9.79-9.79s-4.307-9.79-9.79-9.79z" />
<glyph unicode="&#xe9d1;" horiz-adv-x="1224" d="M584.248 485.397h-157.418c-5.482 0-9.79 4.307-9.79 9.79s4.307 9.79 9.79 9.79h157.418c5.482 0 9.79-4.307 9.79-9.79s-4.307-9.79-9.79-9.79z" />
<glyph unicode="&#xe9d2;" horiz-adv-x="1224" d="M555.27 443.497h196.968v-19.579h-196.968v19.579z" />
<glyph unicode="&#xe9d3;" horiz-adv-x="1224" d="M514.937 423.917h-87.715c-5.482 0-9.79 4.307-9.79 9.79s4.307 9.79 9.79 9.79h87.715c5.482 0 9.79-4.307 9.79-9.79s-4.699-9.79-9.79-9.79z" />
<glyph unicode="&#xe9d4;" horiz-adv-x="1224" d="M523.552 376.144h258.447v-19.579h-258.447v19.579z" />
<glyph unicode="&#xe9d5;" horiz-adv-x="1224" d="M486.743 356.564h-58.346c-5.482 0-9.79 4.307-9.79 9.79s4.307 9.79 9.79 9.79h58.346c5.482 0 9.79-4.307 9.79-9.79s-4.307-9.79-9.79-9.79z" />
<glyph unicode="&#xe9d6;" horiz-adv-x="1224" d="M533.733 303.7h238.085v-19.579h-238.085v19.579z" />
<glyph unicode="&#xe9d7;" horiz-adv-x="1224" d="M494.183 284.121h-65.787c-5.482 0-9.79 4.307-9.79 9.79s4.307 9.79 9.79 9.79h65.787c5.482 0 9.79-4.307 9.79-9.79s-4.307-9.79-9.79-9.79z" />
<glyph unicode="&#xe9d8;" horiz-adv-x="1224" d="M552.138 215.593h-124.133c-5.482 0-9.79 4.307-9.79 9.79s4.307 9.79 9.79 9.79h124.133c5.482 0 9.79-4.307 9.79-9.79s-4.699-9.79-9.79-9.79z" />
<glyph unicode="&#xe9d9;" horiz-adv-x="1224" d="M652.776 517.507c-93.198 0.783-168.774-75.576-168.774-168.774s75.576-168.774 168.774-168.774c0 0 0 0 0 0v0c93.198 0 166.816 75.576 168.774 168.774 1.958 90.065-74.793 167.599-168.774 168.774v0zM654.733 226.166c-71.66-1.175-126.874 51.689-126.874 123.741s54.039 123.741 125.699 123.741 123.741-55.997 123.741-124.525c0-68.136-54.822-122.958-122.567-122.958v0z" />
<glyph unicode="&#xe9da;" horiz-adv-x="1224" d="M753.022 149.023c0 0 0 0 0 0l-325.8 1.175c-5.482 0-9.79 4.307-9.79 9.79s4.699 9.79 9.79 9.79l325.8-1.175c5.482 0 9.79-4.307 9.79-9.79s-4.699-9.79-9.79-9.79z" />
<glyph unicode="&#xe9db;" horiz-adv-x="1224" d="M654.342 174.476c-56.389 0-111.602 27.411-145.279 77.534-52.864 79.884-30.935 187.962 48.557 240.826 38.767 25.845 84.974 34.851 130.398 25.453s84.583-35.634 110.428-74.402c1.958-2.741 1.175-6.265-1.566-8.223s-6.265-1.175-8.223 1.566c-23.887 36.026-60.304 60.696-102.987 69.311-42.291 8.615-85.758 0-121.784-23.887-74.402-49.34-94.764-149.978-45.424-224.771 49.34-74.402 149.978-94.764 224.771-45.424 60.696 40.333 86.932 116.301 64.22 185.612-1.175 3.133 0.783 6.265 3.916 7.44s6.265-0.783 7.44-3.916c24.278-74.010-3.916-155.852-68.919-198.926-28.977-18.796-62.654-28.194-95.547-28.194z" />
<glyph unicode="&#xe9dc;" horiz-adv-x="1224" d="M216.939 872.285c-24.278 0-43.858 19.579-43.858 43.858s19.579 43.858 43.858 43.858 43.858-19.579 43.858-43.858-19.579-43.858-43.858-43.858zM216.939 948.252c-17.621 0-32.11-14.489-32.11-32.11s14.489-32.11 32.11-32.11 32.11 14.489 32.11 32.11-14.489 32.11-32.11 32.11z" />
<glyph unicode="&#xe9dd;" horiz-adv-x="1224" d="M83.016 612.662c-13.314 0-23.887 10.573-23.887 23.887s10.573 23.887 23.887 23.887 23.887-10.573 23.887-23.887-10.964-23.887-23.887-23.887zM83.016 648.297c-6.657 0-12.139-5.482-12.139-12.139s5.482-12.139 12.139-12.139c6.657 0 12.139 5.482 12.139 12.139s-5.482 12.139-12.139 12.139z" />
<glyph unicode="&#xe9de;" horiz-adv-x="1224" d="M111.602 24.107c-13.314 0-23.887 10.573-23.887 23.887s10.573 23.887 23.887 23.887 23.887-10.573 23.887-23.887-10.964-23.887-23.887-23.887zM111.602 60.133c-6.657 0-12.139-5.482-12.139-12.139s5.482-12.139 12.139-12.139 12.139 5.482 12.139 12.139-5.482 12.139-12.139 12.139z" />
<glyph unicode="&#xe9df;" horiz-adv-x="1224" d="M885.378-7.611c-10.573 0-20.754 4.699-27.020 13.706l-135.098 186.787c-1.958 2.741-1.175 6.265 1.175 8.223 2.741 1.958 6.265 1.175 8.223-1.175l135.489-186.787c6.657-9.398 19.579-11.748 28.977-5.482 9.79 6.265 12.922 19.579 6.657 29.761 0 0 0 0 0 0.392s-0.392 0.392-0.392 0.783l-0.392 0.392-134.706 184.437c-1.958 2.741-1.175 6.265 1.175 8.223 2.741 1.958 6.265 1.175 8.223-1.175l135.098-184.829c0.392-0.392 0.392-0.783 0.783-1.175 0 0 0 0 0 0 9.79-15.272 5.482-36.026-10.181-45.816-5.482-4.307-11.748-6.265-18.013-6.265z" />
<glyph unicode="&#xe9e0;" horiz-adv-x="1224" d="M1135.602 34.68c-24.278 0-43.858 19.579-43.858 43.858s19.579 43.858 43.858 43.858 43.858-19.579 43.858-43.858-19.579-43.858-43.858-43.858zM1135.602 110.648c-17.621 0-32.11-14.489-32.11-32.11s14.489-32.11 32.11-32.11 32.11 14.489 32.11 32.11-14.489 32.11-32.11 32.11z" />
<glyph unicode="&#xe9e1;" horiz-adv-x="1224" d="M1200.997 432.141c-12.531 0-22.712 10.181-22.712 22.712s10.181 22.712 22.712 22.712 22.712-10.181 22.712-22.712c0-12.531-10.181-22.712-22.712-22.712zM1200.997 466.209c-6.265 0-10.964-5.091-10.964-10.964 0-6.265 5.091-10.964 10.964-10.964s10.964 5.091 10.964 10.964c0 5.874-4.699 10.964-10.964 10.964z" />
<glyph unicode="&#xe9e2;" horiz-adv-x="1224" d="M54.431 823.728h-48.557c-3.133 0-5.874 2.741-5.874 5.874s2.741 5.874 5.874 5.874h48.557c3.133 0 5.874-2.741 5.874-5.874s-2.741-5.874-5.874-5.874z" />
<glyph unicode="&#xe9e3;" horiz-adv-x="1224" d="M30.544 800.624c-3.133 0-5.874 2.741-5.874 5.874v48.557c0 3.133 2.741 5.874 5.874 5.874s5.874-2.741 5.874-5.874v-48.557c0-3.524-2.741-5.874-5.874-5.874z" />
<glyph unicode="&#xe9e4;" horiz-adv-x="1224" d="M971.136 822.553c-1.566 0-3.133 0.392-4.307 1.566l-34.46 34.46c-2.35 2.35-2.35 5.874 0 8.223s5.874 2.35 8.223 0l34.46-34.46c2.35-2.35 2.35-5.874 0-8.223-0.783-0.783-2.35-1.566-3.916-1.566z" />
<glyph unicode="&#xe9e5;" horiz-adv-x="1224" d="M937.851 823.336c-1.566 0-3.133 0.392-4.307 1.566-2.35 2.35-2.35 5.874 0 8.223l34.46 34.46c2.35 2.35 5.874 2.35 8.223 0s2.35-5.874 0-8.223l-34.46-34.46c-0.783-1.175-2.35-1.566-3.916-1.566z" />
<glyph unicode="&#xe9e6;" horiz-adv-x="1224" d="M581.507 642.423c0-8.218-6.662-14.88-14.88-14.88s-14.88 6.662-14.88 14.88c0 8.218 6.662 14.88 14.88 14.88s14.88-6.662 14.88-14.88z" />
<glyph unicode="&#xe9e7;" horiz-adv-x="1224" d="M780.824 640.857c0-8.218-6.662-14.88-14.88-14.88s-14.88 6.662-14.88 14.88c0 8.218 6.662 14.88 14.88 14.88s14.88-6.662 14.88-14.88z" />
<glyph unicode="&#xe9e8;" horiz-adv-x="1224" d="M616.75 584.076c-0.392 0-0.783 0-1.175 0-3.133 0.783-5.091 3.916-4.699 7.049 2.741 14.489 11.356 27.020 23.495 35.243s27.020 10.964 41.508 8.223c21.929-4.307 38.767-21.146 43.075-43.075 0.783-3.133-1.566-6.265-4.699-7.049s-6.265 1.566-7.049 4.699c-3.524 17.23-16.838 30.544-34.068 33.676-11.356 2.35-23.104 0-32.502-6.265-9.79-6.265-16.055-16.055-18.405-27.411-0.392-3.133-2.741-5.091-5.482-5.091z" />
<glyph unicode="&#xe9e9;" horiz-adv-x="1224" d="M881.462 636.158c0-3.028-2.454-5.482-5.482-5.482s-5.482 2.454-5.482 5.482c0 3.028 2.454 5.482 5.482 5.482s5.482-2.454 5.482-5.482z" />
<glyph unicode="&#xe9ea;" horiz-adv-x="1224" d="M1013.427 469.341c0-3.028-2.454-5.482-5.482-5.482s-5.482 2.454-5.482 5.482c0 3.028 2.454 5.482 5.482 5.482s5.482-2.454 5.482-5.482z" />
<glyph unicode="&#xe9eb;" horiz-adv-x="1224" d="M209.107 575.462c0-3.028-2.454-5.482-5.482-5.482s-5.482 2.454-5.482 5.482c0 3.028 2.454 5.482 5.482 5.482s5.482-2.454 5.482-5.482z" />
<glyph unicode="&#xe9ec;" horiz-adv-x="1224" d="M807.844 425.875c0-3.028-2.454-5.482-5.482-5.482s-5.482 2.454-5.482 5.482c0 3.028 2.454 5.482 5.482 5.482s5.482-2.454 5.482-5.482z" />
</font>
</defs>
</svg>
