<svg width="24" height="24" viewBox="0 0 24 24" fill="none" xmlns="http://www.w3.org/2000/svg">
<g id="Bag_alt">
<path id="Vector 9" d="M8 12L8 8.00005C8 5.79091 9.79086 4.00005 12 4.00005V4.00005C14.2091 4.00005 16 5.79091 16 8.00005L16 12" stroke="#4F4F4F" stroke-width="2" stroke-linecap="round"/>
<path id="Rectangle 1" d="M3.69435 12.6679C3.83942 10.927 3.91196 10.0565 4.48605 9.52828C5.06013 9.00005 5.9336 9.00005 7.68053 9.00005H16.3195C18.0664 9.00005 18.9399 9.00005 19.514 9.52828C20.088 10.0565 20.1606 10.927 20.3057 12.6679L20.8195 18.834C20.904 19.8475 20.9462 20.3543 20.6491 20.6772C20.352 21 19.8435 21 18.8264 21H5.1736C4.15655 21 3.64802 21 3.35092 20.6772C3.05382 20.3543 3.09605 19.8475 3.18051 18.834L3.69435 12.6679Z" stroke="#4F4F4F" stroke-width="2"/>
</g>
</svg>
