<svg width="23" height="24" viewBox="0 0 23 24" fill="none" xmlns="http://www.w3.org/2000/svg">
<g id="Favorite">
<path id="Vector 15" d="M4.11777 13.764L10.8803 20.3929C11.1331 20.6407 11.2595 20.7646 11.4108 20.7919C11.4696 20.8025 11.5298 20.8025 11.5885 20.7919C11.7399 20.7646 11.8663 20.6407 12.119 20.3929L12.119 20.3929L18.8816 13.764C20.692 11.9893 20.9139 9.1504 19.4013 7.11596L18.9958 6.57068C17.1327 4.06489 13.2652 4.4732 11.9664 7.31281C11.7836 7.71252 11.2157 7.71252 11.0329 7.31281C9.7341 4.4732 5.86665 4.06489 4.00351 6.57068L3.59808 7.11597C2.0854 9.1504 2.30733 11.9893 4.11777 13.764Z" stroke="#A20035" stroke-width="2"/>
</g>
</svg>
