<svg width="24" height="24" viewBox="0 0 24 24" fill="none" xmlns="http://www.w3.org/2000/svg">
<g id="Map">
<path id="Rectangle 4214" d="M3 6.20005C3 5.07994 3 4.51989 3.21799 4.09206C3.40973 3.71574 3.71569 3.40978 4.09202 3.21803C4.51984 3.00005 5.0799 3.00005 6.2 3.00005H17.8C18.9201 3.00005 19.4802 3.00005 19.908 3.21803C20.2843 3.40978 20.5903 3.71574 20.782 4.09206C21 4.51989 21 5.07994 21 6.20005V17.8C21 18.9202 21 19.4802 20.782 19.908C20.5903 20.2844 20.2843 20.5903 19.908 20.7821C19.4802 21 18.9201 21 17.8 21H6.2C5.07989 21 4.51984 21 4.09202 20.7821C3.71569 20.5903 3.40973 20.2844 3.21799 19.908C3 19.4802 3 18.9202 3 17.8V6.20005Z" stroke="#4F4F4F" stroke-width="2" stroke-linecap="round"/>
<path id="Vector 427" d="M19 21L15 6.50005" stroke="#4F4F4F" stroke-width="2"/>
<path id="Vector 428" d="M21 6.00005L3 8.00005" stroke="#4F4F4F" stroke-width="2"/>
<path id="Ellipse 4" d="M13 14.0883C13 15.9272 11.2611 17.2334 10.4311 17.7522C10.1647 17.9187 9.83526 17.9186 9.56892 17.7522C8.7389 17.2334 7 15.9272 7 14.0883C7 12.2353 8.4536 11 10 11C11.6 11 13 12.2353 13 14.0883Z" stroke="#4F4F4F" stroke-width="2"/>
</g>
</svg>
