<svg width="49" height="49" viewBox="0 0 49 49" fill="none" xmlns="http://www.w3.org/2000/svg">
<g id="Dimond_alt_duotone">
<g id="Vector 76">
<path d="M24.5001 40.8332L8.84645 21.2661C8.51393 20.8505 8.34767 20.6427 8.303 20.3922C8.25833 20.1417 8.3425 19.8893 8.51082 19.3843L11.3384 10.9016C11.7784 9.58155 11.9984 8.92154 12.5222 8.54402C13.046 8.1665 13.7417 8.1665 15.1331 8.1665H33.867C35.2585 8.1665 35.9542 8.1665 36.478 8.54402C37.0018 8.92153 37.2218 9.58155 37.6618 10.9016L37.6618 10.9016L40.4893 19.3843C40.6577 19.8893 40.7418 20.1417 40.6972 20.3922C40.6525 20.6427 40.4862 20.8505 40.1537 21.2661L24.5001 40.8332Z" fill="#FEC260"/>
<path d="M24.5001 40.8332L8.84645 21.2661C8.51393 20.8505 8.34767 20.6427 8.303 20.3922C8.25833 20.1417 8.3425 19.8893 8.51082 19.3843L11.3384 10.9016C11.7784 9.58155 11.9984 8.92154 12.5222 8.54402C13.046 8.1665 13.7417 8.1665 15.1331 8.1665H33.867C35.2585 8.1665 35.9542 8.1665 36.478 8.54402C37.0018 8.92154 37.2218 9.58155 37.6618 10.9016L40.4893 19.3843C40.6577 19.8893 40.7418 20.1417 40.6972 20.3922C40.6525 20.6427 40.4862 20.8505 40.1537 21.2661L24.5001 40.8332ZM24.5001 40.8332L31.6459 18.3748M24.5001 40.8332L17.3542 18.3748M39.8126 20.4165L31.6459 18.3748M31.6459 18.3748L28.5834 10.2082M31.6459 18.3748H17.3542M20.4167 10.2082L17.3542 18.3748M17.3542 18.3748L9.18758 20.4165" stroke="#8C6B35" stroke-width="1.4" stroke-linecap="round"/>
</g>
</g>
</svg>
