<svg width="48" height="49" viewBox="0 0 48 49" fill="none" xmlns="http://www.w3.org/2000/svg">
<g id="Date_today_duotone">
<path id="Subtract" fill-rule="evenodd" clip-rule="evenodd" d="M15.5 8.1665H14C10.2288 8.1665 8.34315 8.1665 7.17157 9.33808C6 10.5096 6 12.3953 6 16.1665V19.9165C6 20.1522 6 20.2701 6.07322 20.3433C6.14645 20.4165 6.2643 20.4165 6.5 20.4165H41.5C41.7357 20.4165 41.8536 20.4165 41.9268 20.3433C42 20.2701 42 20.1522 42 19.9165V16.1665C42 12.3953 42 10.5096 40.8284 9.33808C39.6569 8.1665 37.7712 8.1665 34 8.1665H32.5L32.5 13.2707C32.5 14.0991 31.8284 14.7707 31 14.7707C30.1716 14.7707 29.5 14.0991 29.5 13.2707L29.5 8.1665H18.5L18.5 13.2707C18.5 14.0991 17.8284 14.7707 17 14.7707C16.1716 14.7707 15.5 14.0991 15.5 13.2707L15.5 8.1665Z" fill="#8C6B35"/>
<path id="Rectangle 2" d="M6 22.9585C6 22.7228 6 22.6049 6.07322 22.5317C6.14645 22.4585 6.2643 22.4585 6.5 22.4585H41.5C41.7357 22.4585 41.8536 22.4585 41.9268 22.5317C42 22.6049 42 22.7228 42 22.9585V32.8335C42 36.6047 42 38.4903 40.8284 39.6619C39.6569 40.8335 37.7712 40.8335 34 40.8335H14C10.2288 40.8335 8.34315 40.8335 7.17157 39.6619C6 38.4903 6 36.6047 6 32.8335V22.9585Z" fill="#FEC260"/>
<path id="Line 1" d="M17 5.104L17 13.2707" stroke="#8C6B35" stroke-linecap="round"/>
<path id="Line 2" d="M31 5.104L31 13.2707" stroke="#8C6B35" stroke-linecap="round"/>
</g>
</svg>
