<svg width="49" height="49" viewBox="0 0 49 49" fill="none" xmlns="http://www.w3.org/2000/svg">
<g id="Folder_file_duotone_line">
<path id="Rectangle 4020" d="M37.7709 22.4585V11.146C37.7709 9.26038 37.7709 8.31757 37.1851 7.73178C36.5993 7.146 35.6565 7.146 33.7709 7.146H15.2292C13.3436 7.146 12.4008 7.146 11.815 7.73178C11.2292 8.31757 11.2292 9.26038 11.2292 11.146V16.3335" stroke="#FEC260" stroke-width="1.2"/>
<path id="Rectangle 4019" d="M26.1174 20.8408C26.2299 20.9533 26.3825 21.0165 26.5417 21.0165H39.675C40.245 21.0165 40.6363 21.017 40.9397 21.0418C41.2361 21.066 41.3954 21.1104 41.5106 21.1691C41.774 21.3033 41.9882 21.5175 42.1224 21.7809C42.1811 21.8961 42.2255 22.0554 42.2497 22.3518C42.2745 22.6552 42.275 23.0466 42.275 23.6165V39.6748C42.275 40.2448 42.2745 40.6362 42.2497 40.9396C42.2255 41.236 42.1811 41.3952 42.1224 41.5104C41.9882 41.7738 41.774 41.988 41.5106 42.1222C41.3954 42.181 41.2361 42.2254 40.9397 42.2496C40.6363 42.2744 40.245 42.2748 39.675 42.2748H9.325C8.75505 42.2748 8.36367 42.2744 8.06026 42.2496C7.76386 42.2254 7.60464 42.181 7.48941 42.1222C7.22599 41.988 7.01181 41.7738 6.87759 41.5104C6.81888 41.3952 6.77447 41.236 6.75026 40.9396C6.72547 40.6362 6.725 40.2448 6.725 39.6748V17.4915C6.725 16.9216 6.72547 16.5302 6.75026 16.2268C6.77447 15.9304 6.81888 15.7711 6.87759 15.6559C7.01181 15.3925 7.22599 15.1783 7.48941 15.0441C7.60464 14.9854 7.76386 14.941 8.06026 14.9168C8.36367 14.892 8.75505 14.8915 9.325 14.8915H19.0912C19.6089 14.8915 19.77 14.8954 19.9151 14.9302C20.0579 14.9645 20.1945 15.021 20.3197 15.0978L20.632 14.5883L20.3197 15.0978C20.4469 15.1758 20.5636 15.2869 20.9297 15.653L26.1174 20.8408Z" stroke="#8C6B35" stroke-width="1.2" stroke-linejoin="round"/>
</g>
</svg>
