<svg width="24" height="24" viewBox="0 0 24 24" fill="none" xmlns="http://www.w3.org/2000/svg">
<g id="local_shipping_FILL0_wght300_GRAD0_opsz24 1">
<path id="Vector" d="M5.8434 19.5577C5.06287 19.5577 4.40017 19.2847 3.8553 18.7388C3.31044 18.1928 3.038 17.5299 3.038 16.75H2.24955C1.99345 16.75 1.77879 16.6634 1.60555 16.4901C1.43232 16.3169 1.3457 16.1022 1.3457 15.8462V6.30773C1.3457 5.8026 1.5207 5.37503 1.8707 5.02503C2.2207 4.67503 2.64826 4.50003 3.15338 4.50003H14.9611C15.4582 4.50003 15.8837 4.67704 16.2377 5.03106C16.5917 5.38506 16.7688 5.81061 16.7688 6.30773V8.30773H18.5187C18.8049 8.30773 19.0761 8.37175 19.3322 8.49978C19.5883 8.62783 19.7992 8.80483 19.9649 9.03078L22.4726 12.3885C22.5328 12.4638 22.578 12.5467 22.6082 12.6371C22.6383 12.7275 22.6534 12.8254 22.6534 12.9308V15.8462C22.6534 16.1022 22.5667 16.3169 22.3935 16.4901C22.2203 16.6634 22.0056 16.75 21.7495 16.75H20.8457C20.8457 17.5299 20.5725 18.1928 20.0261 18.7388C19.4797 19.2847 18.8163 19.5577 18.0357 19.5577C17.2552 19.5577 16.5925 19.2847 16.0476 18.7388C15.5027 18.1928 15.2303 17.5299 15.2303 16.75H8.65335C8.65335 17.532 8.38016 18.1955 7.83378 18.7404C7.28741 19.2852 6.62395 19.5577 5.8434 19.5577ZM5.84568 18.0577C6.21234 18.0577 6.52196 17.9314 6.77453 17.6789C7.02709 17.4263 7.15338 17.1167 7.15338 16.75C7.15338 16.3833 7.02709 16.0737 6.77453 15.8211C6.52196 15.5686 6.21234 15.4423 5.84568 15.4423C5.47899 15.4423 5.16937 15.5686 4.9168 15.8211C4.66424 16.0737 4.53795 16.3833 4.53795 16.75C4.53795 17.1167 4.66424 17.4263 4.9168 17.6789C5.16937 17.9314 5.47899 18.0577 5.84568 18.0577ZM2.84568 15.25H3.56875C3.78155 14.8795 4.08892 14.5689 4.49085 14.3183C4.89279 14.0676 5.34439 13.9423 5.84568 13.9423C6.33414 13.9423 6.78254 14.066 7.19088 14.3135C7.59921 14.5609 7.90979 14.8731 8.1226 15.25H15.2688V6.30773C15.2688 6.21798 15.2399 6.14426 15.1822 6.08656C15.1245 6.02886 15.0508 6.00001 14.9611 6.00001H3.15338C3.07646 6.00001 3.00594 6.03206 2.94183 6.09616C2.87773 6.16027 2.84568 6.2308 2.84568 6.30773V15.25ZM18.038 18.0577C18.4047 18.0577 18.7143 17.9314 18.9669 17.6789C19.2194 17.4263 19.3457 17.1167 19.3457 16.75C19.3457 16.3833 19.2194 16.0737 18.9669 15.8211C18.7143 15.5686 18.4047 15.4423 18.038 15.4423C17.6713 15.4423 17.3617 15.5686 17.1091 15.8211C16.8566 16.0737 16.7303 16.3833 16.7303 16.75C16.7303 17.1167 16.8566 17.4263 17.1091 17.6789C17.3617 17.9314 17.6713 18.0577 18.038 18.0577ZM16.7688 13.25H21.2495L18.7495 9.93268C18.7175 9.89423 18.6806 9.86378 18.6389 9.84133C18.5973 9.8189 18.5508 9.80768 18.4995 9.80768H16.7688V13.25Z" fill="#A20035"/>
</g>
</svg>
