<svg width="24" height="24" viewBox="0 0 24 24" fill="none" xmlns="http://www.w3.org/2000/svg">
<g id="Sign_out_squre">
<path id="Vector 9" d="M2 12.0001L1.21913 11.3754L0.719375 12.0001L1.21913 12.6248L2 12.0001ZM11 13.0001C11.5523 13.0001 12 12.5524 12 12.0001C12 11.4478 11.5523 11.0001 11 11.0001V13.0001ZM5.21913 6.37543L1.21913 11.3754L2.78087 12.6248L6.78087 7.62482L5.21913 6.37543ZM1.21913 12.6248L5.21913 17.6248L6.78087 16.3754L2.78087 11.3754L1.21913 12.6248ZM2 13.0001H11V11.0001H2V13.0001Z" fill="#4F4F4F"/>
<path id="Rectangle 21" d="M10 8.13206V7.38863C10 5.77029 10 4.96112 10.474 4.40163C10.9479 3.84214 11.7461 3.70911 13.3424 3.44305L15.0136 3.16452C18.2567 2.62401 19.8782 2.35375 20.9391 3.25244C22 4.15114 22 5.79505 22 9.08288V14.9174C22 18.2052 22 19.8491 20.9391 20.7478C19.8782 21.6465 18.2567 21.3762 15.0136 20.8357L13.3424 20.5572C11.7461 20.2911 10.9479 20.1581 10.474 19.5986C10 19.0391 10 18.23 10 16.6116V16.0661" stroke="#4F4F4F" stroke-width="2"/>
</g>
</svg>
