<svg width="23" height="24" viewBox="0 0 23 24" fill="none" xmlns="http://www.w3.org/2000/svg">
<g id="Star_fill">
<path id="Star 1" d="M9.87813 7.21991C10.4935 5.61922 10.8011 4.81888 11.301 4.70796C11.4324 4.67879 11.5682 4.67879 11.6997 4.70796C12.1995 4.81888 12.5072 5.61922 13.1225 7.21991C13.4724 8.13019 13.6474 8.58533 13.9747 8.8949C14.0666 8.98173 14.1663 9.05906 14.2724 9.12581C14.6508 9.36378 15.1231 9.40793 16.0678 9.49621C17.6671 9.64566 18.4667 9.72039 18.7109 10.1961C18.7614 10.2947 18.7958 10.4013 18.8126 10.5117C18.8935 11.0448 18.3057 11.6028 17.13 12.7189L16.8036 13.0289C16.2539 13.5507 15.9791 13.8116 15.8201 14.1372C15.7248 14.3325 15.6608 14.5429 15.6309 14.7598C15.5809 15.1215 15.6614 15.5 15.8224 16.257L15.8799 16.5275C16.1685 17.885 16.3128 18.5637 16.1327 18.8974C15.9709 19.1971 15.6728 19.3889 15.3435 19.4053C14.9769 19.4236 14.4604 18.9844 13.4273 18.106C12.7467 17.5273 12.4064 17.2379 12.0286 17.1249C11.6834 17.0216 11.3173 17.0216 10.972 17.1249C10.5942 17.2379 10.2539 17.5273 9.57331 18.106C8.54025 18.9844 8.02372 19.4236 7.65714 19.4053C7.32785 19.3889 7.02977 19.1971 6.86794 18.8974C6.68778 18.5637 6.8321 17.885 7.12075 16.5275L7.17826 16.257C7.33921 15.5 7.41969 15.1215 7.36975 14.7598C7.33979 14.5429 7.27585 14.3325 7.1805 14.1372C7.02154 13.8116 6.74671 13.5507 6.19706 13.0289L5.87059 12.7189C4.69491 11.6028 4.10708 11.0448 4.18803 10.5117C4.2048 10.4013 4.23918 10.2947 4.28975 10.1961C4.53394 9.72039 5.33355 9.64566 6.93278 9.49621C7.87749 9.40793 8.34985 9.36378 8.72824 9.12581C8.83437 9.05906 8.93405 8.98173 9.02587 8.8949C9.35325 8.58533 9.52821 8.13019 9.87813 7.21991Z" fill="white" stroke="white" stroke-width="2"/>
</g>
</svg>
