<svg width="25" height="25" viewBox="0 0 25 25" fill="none" xmlns="http://www.w3.org/2000/svg">
<g id="li:arrow-right">
<path id="Vector (Stroke)" fill-rule="evenodd" clip-rule="evenodd" d="M4.56567 12.5C4.56567 11.9477 5.01339 11.5 5.56567 11.5H19.5657C20.118 11.5 20.5657 11.9477 20.5657 12.5C20.5657 13.0523 20.118 13.5 19.5657 13.5H5.56567C5.01339 13.5 4.56567 13.0523 4.56567 12.5Z" fill="#242528"/>
<path id="Vector (Stroke)_2" fill-rule="evenodd" clip-rule="evenodd" d="M11.8586 4.79289C12.2491 4.40237 12.8823 4.40237 13.2728 4.79289L20.2728 11.7929C20.6633 12.1834 20.6633 12.8166 20.2728 13.2071L13.2728 20.2071C12.8823 20.5976 12.2491 20.5976 11.8586 20.2071C11.468 19.8166 11.468 19.1834 11.8586 18.7929L18.1515 12.5L11.8586 6.20711C11.468 5.81658 11.468 5.18342 11.8586 4.79289Z" fill="#242528"/>
</g>
</svg>
