<svg width="25" height="25" viewBox="0 0 25 25" fill="none" xmlns="http://www.w3.org/2000/svg">
<g id="li:arrow-right">
<path id="Vector (Stroke)" fill-rule="evenodd" clip-rule="evenodd" d="M20.1177 12.5C20.1177 13.0523 19.67 13.5 19.1177 13.5L5.11768 13.5C4.56539 13.5 4.11768 13.0523 4.11768 12.5C4.11768 11.9477 4.56539 11.5 5.11768 11.5L19.1177 11.5C19.67 11.5 20.1177 11.9477 20.1177 12.5Z" fill="#242528"/>
<path id="Vector (Stroke)_2" fill-rule="evenodd" clip-rule="evenodd" d="M12.8248 20.2071C12.4343 20.5976 11.8011 20.5976 11.4106 20.2071L4.41057 13.2071C4.02004 12.8166 4.02005 12.1834 4.41057 11.7929L11.4106 4.79289C11.8011 4.40237 12.4343 4.40237 12.8248 4.79289C13.2153 5.18342 13.2153 5.81658 12.8248 6.20711L6.53189 12.5L12.8248 18.7929C13.2153 19.1834 13.2153 19.8166 12.8248 20.2071Z" fill="#242528"/>
</g>
</svg>
