<svg width="18" height="26" viewBox="0 0 18 26" fill="none" xmlns="http://www.w3.org/2000/svg">
<path d="M4.05246 20.0001C3.87246 20.0001 3.69913 19.9768 3.53246 19.9301C3.36579 19.8768 3.21913 19.7901 3.09246 19.6701C2.97246 19.5501 2.87579 19.3935 2.80246 19.2001C2.72913 19.0001 2.69246 18.7535 2.69246 18.4601V13.8001H3.51246V18.2801C3.51246 18.5335 3.56579 18.7368 3.67246 18.8901C3.78579 19.0435 3.96246 19.1201 4.20246 19.1201H4.40246C4.54913 19.1201 4.62246 19.2635 4.62246 19.5501C4.62246 19.8501 4.54913 20.0001 4.40246 20.0001H4.05246ZM4.53527 19.1201C5.04194 19.1201 5.29527 18.9068 5.29527 18.4801V18.1701C5.29527 17.6035 5.44194 17.1568 5.73527 16.8301C6.03527 16.4968 6.44861 16.3301 6.97527 16.3301C7.24861 16.3301 7.48861 16.3768 7.69527 16.4701C7.90194 16.5568 8.07527 16.6801 8.21527 16.8401C8.35527 17.0001 8.45861 17.1935 8.52527 17.4201C8.59861 17.6401 8.63527 17.8835 8.63527 18.1501C8.63527 18.7368 8.48527 19.1935 8.18527 19.5201C7.88527 19.8401 7.47194 20.0001 6.94527 20.0001C6.67861 20.0001 6.42194 19.9501 6.17527 19.8501C5.93527 19.7435 5.74861 19.5668 5.61527 19.3201C5.55527 19.4601 5.48194 19.5768 5.39527 19.6701C5.30861 19.7568 5.21861 19.8268 5.12527 19.8801C5.03194 19.9268 4.93194 19.9601 4.82527 19.9801C4.72527 19.9935 4.62861 20.0001 4.53527 20.0001H4.40527C4.31861 20.0001 4.26194 19.9668 4.23527 19.9001C4.20194 19.8268 4.18527 19.7201 4.18527 19.5801C4.18527 19.4201 4.20194 19.3035 4.23527 19.2301C4.26194 19.1568 4.31861 19.1201 4.40527 19.1201H4.53527ZM7.83527 18.2101C7.83527 17.9168 7.76861 17.6768 7.63527 17.4901C7.50861 17.3035 7.28194 17.2101 6.95527 17.2101C6.65527 17.2101 6.43194 17.3001 6.28527 17.4801C6.14527 17.6601 6.07527 17.9135 6.07527 18.2401C6.07527 18.5335 6.15527 18.7535 6.31527 18.9001C6.48194 19.0468 6.69194 19.1201 6.94527 19.1201C7.24527 19.1201 7.46861 19.0435 7.61527 18.8901C7.76194 18.7301 7.83527 18.5035 7.83527 18.2101ZM10.6209 21.5501C10.8942 21.5501 11.1342 21.5068 11.3409 21.4201C11.5476 21.3401 11.7176 21.2301 11.8509 21.0901C11.9909 20.9501 12.0976 20.7868 12.1709 20.6001C12.2442 20.4135 12.2876 20.2135 12.3009 20.0001H11.4509C11.1109 20.0001 10.8309 19.9635 10.6109 19.8901C10.3909 19.8168 10.2176 19.7101 10.0909 19.5701C9.96423 19.4301 9.87423 19.2601 9.8209 19.0601C9.77423 18.8535 9.7509 18.6235 9.7509 18.3701C9.7509 18.1168 9.78757 17.8768 9.8609 17.6501C9.93423 17.4168 10.0409 17.2135 10.1809 17.0401C10.3209 16.8668 10.4942 16.7301 10.7009 16.6301C10.9142 16.5235 11.1609 16.4701 11.4409 16.4701C11.6609 16.4701 11.8709 16.5068 12.0709 16.5801C12.2776 16.6535 12.4576 16.7701 12.6109 16.9301C12.7642 17.0835 12.8842 17.2868 12.9709 17.5401C13.0642 17.7935 13.1109 18.1001 13.1109 18.4601V19.1201H14.0009C14.0809 19.1201 14.1342 19.1568 14.1609 19.2301C14.1942 19.2968 14.2109 19.4035 14.2109 19.5501C14.2109 19.7035 14.1942 19.8168 14.1609 19.8901C14.1342 19.9635 14.0809 20.0001 14.0009 20.0001H13.0909C13.0776 20.3268 13.0109 20.6368 12.8909 20.9301C12.7776 21.2235 12.6176 21.4801 12.4109 21.7001C12.2042 21.9201 11.9542 22.0935 11.6609 22.2201C11.3676 22.3535 11.0409 22.4201 10.6809 22.4201H9.6409L9.5809 21.5501H10.6209ZM10.5309 18.3201C10.5309 18.6068 10.5976 18.8135 10.7309 18.9401C10.8709 19.0601 11.1376 19.1201 11.5309 19.1201H12.3209V18.5001C12.3209 18.0801 12.2376 17.7801 12.0709 17.6001C11.9109 17.4135 11.6842 17.3201 11.3909 17.3201C11.1176 17.3201 10.9042 17.4101 10.7509 17.5901C10.6042 17.7635 10.5309 18.0068 10.5309 18.3201ZM14.9149 19.1201C15.1549 19.1201 15.3415 19.0568 15.4749 18.9301C15.6149 18.8035 15.6849 18.6235 15.6849 18.3901V17.1101H16.5049V18.4301C16.5049 18.9368 16.3682 19.3268 16.0949 19.6001C15.8282 19.8668 15.4549 20.0001 14.9749 20.0001H14.0049C13.9182 20.0001 13.8615 19.9668 13.8349 19.9001C13.8015 19.8268 13.7849 19.7201 13.7849 19.5801C13.7849 19.4201 13.8015 19.3035 13.8349 19.2301C13.8615 19.1568 13.9182 19.1201 14.0049 19.1201H14.9149ZM16.5749 15.8801H15.6649V15.0401H16.5749V15.8801ZM15.2349 15.8801H14.3249V15.0401H15.2349V15.8801Z" fill="#242528"/>
<path d="M9.49762 9.77012C9.49762 10.1368 9.43762 10.4801 9.31762 10.8001C9.20428 11.1268 9.04095 11.4101 8.82762 11.6501C8.61428 11.8901 8.35428 12.0768 8.04762 12.2101C7.74095 12.3501 7.39762 12.4201 7.01762 12.4201H6.40762C5.66095 12.4201 5.08095 12.1901 4.66762 11.7301C4.25428 11.2701 4.04762 10.6401 4.04762 9.84012V8.07012H4.85762V9.81012C4.85762 10.3301 4.98762 10.7501 5.24762 11.0701C5.50762 11.3901 5.93428 11.5501 6.52762 11.5501H6.96762C7.26762 11.5501 7.52428 11.5035 7.73762 11.4101C7.95762 11.3168 8.13762 11.1901 8.27762 11.0301C8.41762 10.8701 8.52095 10.6835 8.58762 10.4701C8.65428 10.2568 8.68762 10.0335 8.68762 9.80012V7.11012H9.49762V9.77012ZM7.11762 6.92012H6.13762V6.06012H7.11762V6.92012Z" fill="#242528"/>
</svg>
